<svg width="187" height="30" viewBox="0 0 187 30" fill="none" xmlns="http://www.w3.org/2000/svg">
<rect width="187" height="30" rx="15" fill="#FCA727"/>
<path d="M13.4112 26H9.99505C9.82535 26 9.66339 25.931 9.5487 25.8099C9.43404 25.6888 9.37718 25.5266 9.39195 25.363L10.8501 9.23113C10.8775 8.92848 11.1393 8.69629 11.4532 8.69629H19.391C20.8312 8.69629 22.1401 9.24098 23.0765 10.2301C24.0173 11.2239 24.4658 12.5423 24.3393 13.9424C24.2148 15.3195 23.5462 16.612 22.4566 17.5818C21.3665 18.552 19.9819 19.0864 18.5578 19.0864H14.5909L14.0143 25.4652C13.9869 25.7678 13.7251 26 13.4112 26V26Z" fill="#283F7A"/>
<path d="M19.3906 8.69629H15.2793V19.0863H18.5574C19.9815 19.0863 21.3662 18.552 22.4563 17.5817C23.5459 16.612 24.2144 15.3195 24.3389 13.9424C24.4655 12.5423 24.017 11.2239 23.0761 10.23C22.1398 9.24102 20.8309 8.69629 19.3906 8.69629V8.69629Z" fill="#42516C"/>
<path d="M10.2203 23.3037H6.80413C6.63443 23.3037 6.47247 23.2347 6.35778 23.1136C6.24312 22.9925 6.18626 22.8304 6.20103 22.6667L7.65922 6.53484C7.68663 6.23219 7.94842 6 8.26228 6H16.2001C17.6403 6 18.9492 6.54469 19.8856 7.53383C20.8265 8.52762 21.275 9.84602 21.1484 11.2461C21.0239 12.6232 20.3553 13.9157 19.2658 14.8855C18.1757 15.8557 16.791 16.3901 15.3669 16.3901H11.3999L10.8234 22.7689C10.796 23.0715 10.5342 23.3037 10.2203 23.3037V23.3037Z" fill="#23394F"/>
<path d="M16.2001 6H15.2793V16.39H15.367C16.7911 16.39 18.1758 15.8557 19.2659 14.8854C20.3554 13.9157 21.024 12.6232 21.1485 11.2461C21.275 9.84598 20.8265 8.52758 19.8857 7.53379C18.9493 6.54469 17.6404 6 16.2001 6V6Z" fill="#2E4E8B"/>
<path d="M11.4522 8.69621C11.1384 8.69621 10.8765 8.92839 10.8492 9.23105L9.57715 23.3036H10.2198C10.5337 23.3036 10.7955 23.0714 10.8229 22.7687L11.3994 16.39H15.3663C16.7905 16.39 18.1752 15.8556 19.2653 14.8853C20.3548 13.9156 21.0234 12.6231 21.1479 11.246C21.2235 10.4087 21.0934 9.60078 20.7755 8.87386C20.3341 8.75687 19.8694 8.69617 19.39 8.69617H11.4522V8.69621Z" fill="#2E4E8B"/>
<path d="M19.3906 8.69629H15.2793V16.39H15.367C16.7911 16.39 18.1758 15.8557 19.2659 14.8854C20.3554 13.9157 21.024 12.6232 21.1485 11.2461C21.2241 10.4088 21.094 9.60086 20.7761 8.87395C20.3347 8.75699 19.87 8.69629 19.3906 8.69629V8.69629Z" fill="#283F7A"/>
<path d="M35.546 17.102C35.7887 17.2793 35.91 17.5593 35.91 17.942C35.91 18.3153 35.826 18.6373 35.658 18.908C35.4993 19.1693 35.2613 19.4027 34.944 19.608C34.2627 20.0467 33.3247 20.266 32.13 20.266C30.9447 20.266 30.0253 19.958 29.372 19.342C28.728 18.7167 28.406 17.8533 28.406 16.752C28.406 15.1933 28.812 13.8213 29.624 12.636C30.24 11.7587 31.0987 11.1333 32.2 10.76C32.7693 10.5733 33.334 10.48 33.894 10.48C34.454 10.48 34.9067 10.5173 35.252 10.592C35.5973 10.6667 35.9007 10.7787 36.162 10.928C36.7313 11.2547 37.016 11.6793 37.016 12.202C37.016 12.678 36.792 13.0933 36.344 13.448C35.9333 13.7653 35.56 13.924 35.224 13.924C34.888 13.924 34.65 13.9007 34.51 13.854C34.5473 13.518 34.566 13.2427 34.566 13.028C34.566 12.804 34.5613 12.6127 34.552 12.454C34.5427 12.2953 34.5147 12.1413 34.468 11.992C34.3747 11.6467 34.1833 11.474 33.894 11.474C33.614 11.474 33.3293 11.6093 33.04 11.88C32.76 12.1413 32.4987 12.496 32.256 12.944C31.7053 13.9613 31.43 15.072 31.43 16.276C31.43 16.8547 31.5933 17.312 31.92 17.648C32.2467 17.9747 32.76 18.138 33.46 18.138C33.9827 18.138 34.4913 17.9653 34.986 17.62C35.2007 17.4707 35.3873 17.298 35.546 17.102ZM40.122 20.28C38.0687 20.28 37.042 19.314 37.042 17.382C37.042 16.01 37.42 14.8807 38.176 13.994C38.9787 13.0513 40.0754 12.58 41.466 12.58C42.474 12.58 43.2347 12.8133 43.748 13.28C44.2614 13.7467 44.518 14.47 44.518 15.45C44.518 16.9433 44.1167 18.124 43.314 18.992C42.53 19.8507 41.466 20.28 40.122 20.28ZM40.486 14.19C40.374 14.442 40.2714 14.7593 40.178 15.142C40.094 15.5153 39.996 16.0007 39.884 16.598C39.772 17.1953 39.716 17.8627 39.716 18.6C39.716 18.8427 39.7534 19.0433 39.828 19.202C39.912 19.3607 40.0614 19.44 40.276 19.44C40.4907 19.44 40.6634 19.3887 40.794 19.286C40.934 19.1833 41.0554 19.0107 41.158 18.768C41.3447 18.3387 41.5127 17.7273 41.662 16.934C41.8114 16.1313 41.8907 15.5573 41.9 15.212C41.9187 14.8667 41.928 14.568 41.928 14.316C41.928 14.0547 41.8907 13.84 41.816 13.672C41.7414 13.504 41.5967 13.42 41.382 13.42C41.1767 13.42 41.004 13.4853 40.864 13.616C40.724 13.7467 40.598 13.938 40.486 14.19ZM48.6875 19.23C48.3982 19.93 47.7915 20.28 46.8675 20.28C46.4008 20.28 46.0182 20.1167 45.7195 19.79C45.4768 19.5193 45.3555 19.23 45.3555 18.922C45.3555 18.222 45.5188 17.1067 45.8455 15.576L46.8675 10.2L49.7095 9.92L48.3515 17.004C48.1928 17.6947 48.1135 18.1613 48.1135 18.404C48.1135 18.936 48.3048 19.2113 48.6875 19.23ZM50.4826 19.58C50.2679 19.3373 50.1092 19.0247 50.0066 18.642C49.9132 18.2593 49.8666 17.7553 49.8666 17.13C49.8666 16.5047 49.9739 15.9073 50.1886 15.338C50.4032 14.7687 50.7066 14.2787 51.0986 13.868C51.9012 13.0093 52.9652 12.58 54.2906 12.58C54.7666 12.58 55.1772 12.6593 55.5226 12.818L57.9166 12.58L56.8806 18.04C56.8526 18.152 56.8386 18.3107 56.8386 18.516C56.8386 18.7213 56.8992 18.8893 57.0206 19.02C57.1512 19.1507 57.3099 19.2253 57.4966 19.244C57.4032 19.5613 57.1839 19.8133 56.8386 20C56.5026 20.1867 56.1432 20.28 55.7606 20.28C55.3779 20.28 55.0559 20.2053 54.7946 20.056C54.5426 19.916 54.3792 19.7247 54.3046 19.482C54.1552 19.7153 53.9219 19.9067 53.6046 20.056C53.2872 20.2053 52.9139 20.28 52.4846 20.28C52.0646 20.28 51.6819 20.224 51.3366 20.112C50.9912 20 50.7066 19.8227 50.4826 19.58ZM53.4366 13.896C53.3339 14.064 53.2359 14.2927 53.1426 14.582C53.0492 14.862 52.9232 15.3847 52.7646 16.15C52.6152 16.906 52.5406 17.5547 52.5406 18.096C52.5406 18.6373 52.5826 18.9873 52.6666 19.146C52.7506 19.3047 52.8672 19.384 53.0166 19.384C53.3152 19.384 53.5719 19.244 53.7866 18.964C54.0106 18.6747 54.1646 18.278 54.2486 17.774L54.9906 13.672C54.7946 13.504 54.5799 13.42 54.3466 13.42C54.1226 13.42 53.9406 13.4573 53.8006 13.532C53.6699 13.6067 53.5486 13.728 53.4366 13.896ZM58.4896 19.328L60.2256 10.2L63.0676 9.92L62.6336 12.062C62.5309 12.5007 62.4143 12.874 62.2836 13.182C62.4889 12.9207 62.8156 12.7387 63.2636 12.636C63.3943 12.5987 63.5389 12.58 63.6976 12.58C64.5656 12.58 65.2376 12.846 65.7136 13.378C66.1896 13.9007 66.4276 14.6707 66.4276 15.688C66.4276 17.0133 66.0496 18.0913 65.2936 18.922C64.4816 19.8273 63.3383 20.28 61.8636 20.28C60.8463 20.28 59.9549 20.112 59.1896 19.776C58.9189 19.6547 58.6856 19.5053 58.4896 19.328ZM61.3036 19.202C61.4996 19.37 61.7189 19.454 61.9616 19.454C62.2043 19.454 62.3956 19.4073 62.5356 19.314C62.6756 19.2207 62.7969 19.0807 62.8996 18.894C63.1796 18.39 63.4316 17.368 63.6556 15.828C63.7209 15.3893 63.7536 14.9507 63.7536 14.512C63.7536 14.0733 63.7023 13.784 63.5996 13.644C63.5063 13.504 63.3663 13.434 63.1796 13.434C62.6103 13.434 62.2323 13.9893 62.0456 15.1L61.3036 19.202ZM70.3232 20.28C68.2699 20.28 67.2432 19.314 67.2432 17.382C67.2432 16.01 67.6212 14.8807 68.3772 13.994C69.1799 13.0513 70.2765 12.58 71.6672 12.58C72.6752 12.58 73.4359 12.8133 73.9492 13.28C74.4625 13.7467 74.7192 14.47 74.7192 15.45C74.7192 16.9433 74.3179 18.124 73.5152 18.992C72.7312 19.8507 71.6672 20.28 70.3232 20.28ZM70.6872 14.19C70.5752 14.442 70.4725 14.7593 70.3792 15.142C70.2952 15.5153 70.1972 16.0007 70.0852 16.598C69.9732 17.1953 69.9172 17.8627 69.9172 18.6C69.9172 18.8427 69.9545 19.0433 70.0292 19.202C70.1132 19.3607 70.2625 19.44 70.4772 19.44C70.6919 19.44 70.8645 19.3887 70.9952 19.286C71.1352 19.1833 71.2565 19.0107 71.3592 18.768C71.5459 18.3387 71.7139 17.7273 71.8632 16.934C72.0125 16.1313 72.0919 15.5573 72.1012 15.212C72.1199 14.8667 72.1292 14.568 72.1292 14.316C72.1292 14.0547 72.0919 13.84 72.0172 13.672C71.9425 13.504 71.7979 13.42 71.5832 13.42C71.3779 13.42 71.2052 13.4853 71.0652 13.616C70.9252 13.7467 70.7992 13.938 70.6872 14.19ZM79.9247 16.066C80.2607 15.4687 80.4287 14.8667 80.4287 14.26C80.4287 13.8587 80.284 13.658 79.9947 13.658C79.7707 13.658 79.542 13.8493 79.3087 14.232C79.066 14.6147 78.9074 15.0533 78.8327 15.548L78.1047 20L75.2067 20.28L76.6347 12.86L78.9447 12.58L78.6927 13.994C79.15 13.0513 79.892 12.58 80.9187 12.58C81.46 12.58 81.8754 12.72 82.1647 13C82.4634 13.28 82.6127 13.7093 82.6127 14.288C82.6127 14.8573 82.4214 15.324 82.0387 15.688C81.6654 16.052 81.1567 16.234 80.5127 16.234C80.2327 16.234 80.0367 16.178 79.9247 16.066ZM83.4455 19.58C83.2308 19.3373 83.0721 19.0247 82.9695 18.642C82.8761 18.2593 82.8295 17.7553 82.8295 17.13C82.8295 16.5047 82.9368 15.9073 83.1515 15.338C83.3661 14.7687 83.6695 14.2787 84.0615 13.868C84.8641 13.0093 85.9281 12.58 87.2535 12.58C87.7295 12.58 88.1401 12.6593 88.4855 12.818L90.8795 12.58L89.8435 18.04C89.8155 18.152 89.8015 18.3107 89.8015 18.516C89.8015 18.7213 89.8621 18.8893 89.9835 19.02C90.1141 19.1507 90.2728 19.2253 90.4595 19.244C90.3661 19.5613 90.1468 19.8133 89.8015 20C89.4655 20.1867 89.1061 20.28 88.7235 20.28C88.3408 20.28 88.0188 20.2053 87.7575 20.056C87.5055 19.916 87.3421 19.7247 87.2675 19.482C87.1181 19.7153 86.8848 19.9067 86.5675 20.056C86.2501 20.2053 85.8768 20.28 85.4475 20.28C85.0275 20.28 84.6448 20.224 84.2995 20.112C83.9541 20 83.6695 19.8227 83.4455 19.58ZM86.3995 13.896C86.2968 14.064 86.1988 14.2927 86.1055 14.582C86.0121 14.862 85.8861 15.3847 85.7275 16.15C85.5781 16.906 85.5035 17.5547 85.5035 18.096C85.5035 18.6373 85.5455 18.9873 85.6295 19.146C85.7135 19.3047 85.8301 19.384 85.9795 19.384C86.2781 19.384 86.5348 19.244 86.7495 18.964C86.9735 18.6747 87.1275 18.278 87.2115 17.774L87.9535 13.672C87.7575 13.504 87.5428 13.42 87.3095 13.42C87.0855 13.42 86.9035 13.4573 86.7635 13.532C86.6328 13.6067 86.5115 13.728 86.3995 13.896ZM101.393 14.176C101.393 14.568 101.23 14.8853 100.903 15.128C100.577 15.3707 100.147 15.492 99.6153 15.492C99.3913 15.492 99.2139 15.4593 99.0833 15.394C99.1859 15.1513 99.2513 14.8807 99.2793 14.582C99.3166 14.274 99.3353 14.078 99.3353 13.994C99.3353 13.602 99.1999 13.406 98.9293 13.406C98.7426 13.406 98.5419 13.5227 98.3273 13.756C98.1219 13.9893 97.9306 14.288 97.7533 14.652C97.3613 15.492 97.1653 16.3367 97.1653 17.186C97.1653 17.6527 97.2539 17.9933 97.4313 18.208C97.6086 18.4133 97.8933 18.516 98.2853 18.516C98.8266 18.516 99.3119 18.292 99.7413 17.844C99.8626 17.704 99.9559 17.5547 100.021 17.396C100.376 17.5827 100.553 17.9327 100.553 18.446C100.553 18.9687 100.264 19.4027 99.6853 19.748C99.0879 20.1027 98.3133 20.28 97.3613 20.28C95.4666 20.28 94.5193 19.2767 94.5193 17.27C94.5193 15.8047 94.9346 14.652 95.7653 13.812C96.5679 12.9907 97.7066 12.58 99.1813 12.58C100.656 12.58 101.393 13.112 101.393 14.176ZM104.817 20.28C102.764 20.28 101.737 19.314 101.737 17.382C101.737 16.01 102.115 14.8807 102.871 13.994C103.674 13.0513 104.771 12.58 106.161 12.58C107.169 12.58 107.93 12.8133 108.443 13.28C108.957 13.7467 109.213 14.47 109.213 15.45C109.213 16.9433 108.812 18.124 108.009 18.992C107.225 19.8507 106.161 20.28 104.817 20.28ZM105.181 14.19C105.069 14.442 104.967 14.7593 104.873 15.142C104.789 15.5153 104.691 16.0007 104.579 16.598C104.467 17.1953 104.411 17.8627 104.411 18.6C104.411 18.8427 104.449 19.0433 104.523 19.202C104.607 19.3607 104.757 19.44 104.971 19.44C105.186 19.44 105.359 19.3887 105.489 19.286C105.629 19.1833 105.751 19.0107 105.853 18.768C106.04 18.3387 106.208 17.7273 106.357 16.934C106.507 16.1313 106.586 15.5573 106.595 15.212C106.614 14.8667 106.623 14.568 106.623 14.316C106.623 14.0547 106.586 13.84 106.511 13.672C106.437 13.504 106.292 13.42 106.077 13.42C105.872 13.42 105.699 13.4853 105.559 13.616C105.419 13.7467 105.293 13.938 105.181 14.19ZM115.959 20.28C114.829 20.28 114.265 19.8413 114.265 18.964C114.274 18.7213 114.316 18.3947 114.391 17.984L114.643 16.696C114.895 15.4827 115.021 14.7407 115.021 14.47C115.021 13.9287 114.862 13.658 114.545 13.658C114.013 13.658 113.607 14.3533 113.327 15.744L112.501 20L109.687 20.28L111.143 12.846L113.439 12.58L113.215 13.952C113.653 13.0373 114.545 12.58 115.889 12.58C116.542 12.58 117.004 12.72 117.275 13C117.555 13.2707 117.695 13.714 117.695 14.33C117.695 14.9087 117.545 15.8747 117.247 17.228C117.107 17.8347 117.037 18.2547 117.037 18.488C117.037 18.712 117.097 18.8893 117.219 19.02C117.349 19.1507 117.508 19.2253 117.695 19.244C117.601 19.5613 117.391 19.8133 117.065 20C116.747 20.1867 116.379 20.28 115.959 20.28ZM127.621 20.28C126.492 20.28 125.927 19.8413 125.927 18.964C125.936 18.7213 125.978 18.3947 126.053 17.984L126.305 16.696C126.557 15.4827 126.683 14.7407 126.683 14.47C126.683 13.9287 126.524 13.658 126.207 13.658C125.675 13.658 125.269 14.3533 124.989 15.744L124.163 20L121.349 20.28L122.805 12.846L125.101 12.58L124.877 13.952C125.316 13.0373 126.207 12.58 127.551 12.58C128.204 12.58 128.666 12.72 128.937 13C129.217 13.2707 129.357 13.714 129.357 14.33C129.357 14.9087 129.208 15.8747 128.909 17.228C128.769 17.8347 128.699 18.2547 128.699 18.488C128.699 18.712 128.76 18.8893 128.881 19.02C129.012 19.1507 129.17 19.2253 129.357 19.244C129.264 19.5613 129.054 19.8133 128.727 20C128.41 20.1867 128.041 20.28 127.621 20.28ZM133.528 20.28C131.475 20.28 130.448 19.314 130.448 17.382C130.448 16.01 130.826 14.8807 131.582 13.994C132.385 13.0513 133.482 12.58 134.872 12.58C135.88 12.58 136.641 12.8133 137.154 13.28C137.668 13.7467 137.924 14.47 137.924 15.45C137.924 16.9433 137.523 18.124 136.72 18.992C135.936 19.8507 134.872 20.28 133.528 20.28ZM133.892 14.19C133.78 14.442 133.678 14.7593 133.584 15.142C133.5 15.5153 133.402 16.0007 133.29 16.598C133.178 17.1953 133.122 17.8627 133.122 18.6C133.122 18.8427 133.16 19.0433 133.234 19.202C133.318 19.3607 133.468 19.44 133.682 19.44C133.897 19.44 134.07 19.3887 134.2 19.286C134.34 19.1833 134.462 19.0107 134.564 18.768C134.751 18.3387 134.919 17.7273 135.068 16.934C135.218 16.1313 135.297 15.5573 135.306 15.212C135.325 14.8667 135.334 14.568 135.334 14.316C135.334 14.0547 135.297 13.84 135.222 13.672C135.148 13.504 135.003 13.42 134.788 13.42C134.583 13.42 134.41 13.4853 134.27 13.616C134.13 13.7467 134.004 13.938 133.892 14.19ZM142.934 15.086C143.064 14.7407 143.13 14.4187 143.13 14.12C143.13 13.5693 142.906 13.294 142.458 13.294C142.224 13.294 142.01 13.4013 141.814 13.616C141.627 13.8213 141.534 14.0547 141.534 14.316C141.534 14.5027 141.608 14.6707 141.758 14.82C141.972 15.0253 142.355 15.296 142.906 15.632C143.456 15.968 143.834 16.276 144.04 16.556C144.254 16.8267 144.362 17.1533 144.362 17.536C144.362 17.9093 144.268 18.2687 144.082 18.614C143.904 18.9593 143.652 19.2533 143.326 19.496C142.626 20.0187 141.716 20.28 140.596 20.28C139.989 20.28 139.452 20.1213 138.986 19.804C138.519 19.496 138.286 19.16 138.286 18.796C138.286 18.432 138.416 18.1427 138.678 17.928C138.948 17.7133 139.28 17.606 139.672 17.606C140.064 17.606 140.381 17.6807 140.624 17.83C140.502 18.138 140.442 18.3947 140.442 18.6C140.442 19.216 140.703 19.524 141.226 19.524C141.45 19.524 141.636 19.454 141.786 19.314C141.935 19.174 142.01 18.9827 142.01 18.74C142.01 18.264 141.608 17.774 140.806 17.27C140.152 16.8407 139.751 16.542 139.602 16.374C139.35 16.0753 139.224 15.7393 139.224 15.366C139.224 14.9927 139.312 14.6287 139.49 14.274C139.667 13.9193 139.919 13.616 140.246 13.364C140.927 12.8413 141.86 12.58 143.046 12.58C143.652 12.58 144.133 12.7013 144.488 12.944C144.852 13.1867 145.034 13.5133 145.034 13.924C145.034 14.3347 144.908 14.6567 144.656 14.89C144.413 15.1233 144.068 15.24 143.62 15.24C143.312 15.24 143.083 15.1887 142.934 15.086ZM148.608 20.28C146.555 20.28 145.528 19.314 145.528 17.382C145.528 16.01 145.906 14.8807 146.662 13.994C147.465 13.0513 148.562 12.58 149.952 12.58C150.96 12.58 151.721 12.8133 152.234 13.28C152.748 13.7467 153.004 14.47 153.004 15.45C153.004 16.9433 152.603 18.124 151.8 18.992C151.016 19.8507 149.952 20.28 148.608 20.28ZM148.972 14.19C148.86 14.442 148.758 14.7593 148.664 15.142C148.58 15.5153 148.482 16.0007 148.37 16.598C148.258 17.1953 148.202 17.8627 148.202 18.6C148.202 18.8427 148.24 19.0433 148.314 19.202C148.398 19.3607 148.548 19.44 148.762 19.44C148.977 19.44 149.15 19.3887 149.28 19.286C149.42 19.1833 149.542 19.0107 149.644 18.768C149.831 18.3387 149.999 17.7273 150.148 16.934C150.298 16.1313 150.377 15.5573 150.386 15.212C150.405 14.8667 150.414 14.568 150.414 14.316C150.414 14.0547 150.377 13.84 150.302 13.672C150.228 13.504 150.083 13.42 149.868 13.42C149.663 13.42 149.49 13.4853 149.35 13.616C149.21 13.7467 149.084 13.938 148.972 14.19ZM154.052 18.6C154.052 18.348 154.117 17.9047 154.248 17.27L154.99 13.49H154.164L154.22 13.07C155.34 12.734 156.441 12.1553 157.524 11.334H158.196L157.86 12.86H158.952L158.826 13.49H157.748L157.034 17.27C156.913 17.8487 156.852 18.236 156.852 18.432C156.852 18.88 157.048 19.1507 157.44 19.244C157.347 19.5613 157.132 19.8133 156.796 20C156.46 20.1867 156.054 20.28 155.578 20.28C155.102 20.28 154.729 20.1307 154.458 19.832C154.187 19.5333 154.052 19.1227 154.052 18.6ZM163.268 16.066C163.604 15.4687 163.772 14.8667 163.772 14.26C163.772 13.8587 163.628 13.658 163.338 13.658C163.114 13.658 162.886 13.8493 162.652 14.232C162.41 14.6147 162.251 15.0533 162.176 15.548L161.448 20L158.55 20.28L159.978 12.86L162.288 12.58L162.036 13.994C162.494 13.0513 163.236 12.58 164.262 12.58C164.804 12.58 165.219 12.72 165.508 13C165.807 13.28 165.956 13.7093 165.956 14.288C165.956 14.8573 165.765 15.324 165.382 15.688C165.009 16.052 164.5 16.234 163.856 16.234C163.576 16.234 163.38 16.178 163.268 16.066ZM169.239 20.28C167.186 20.28 166.159 19.314 166.159 17.382C166.159 16.01 166.537 14.8807 167.293 13.994C168.096 13.0513 169.193 12.58 170.583 12.58C171.591 12.58 172.352 12.8133 172.865 13.28C173.379 13.7467 173.635 14.47 173.635 15.45C173.635 16.9433 173.234 18.124 172.431 18.992C171.647 19.8507 170.583 20.28 169.239 20.28ZM169.603 14.19C169.491 14.442 169.389 14.7593 169.295 15.142C169.211 15.5153 169.113 16.0007 169.001 16.598C168.889 17.1953 168.833 17.8627 168.833 18.6C168.833 18.8427 168.871 19.0433 168.945 19.202C169.029 19.3607 169.179 19.44 169.393 19.44C169.608 19.44 169.781 19.3887 169.911 19.286C170.051 19.1833 170.173 19.0107 170.275 18.768C170.462 18.3387 170.63 17.7273 170.779 16.934C170.929 16.1313 171.008 15.5573 171.017 15.212C171.036 14.8667 171.045 14.568 171.045 14.316C171.045 14.0547 171.008 13.84 170.933 13.672C170.859 13.504 170.714 13.42 170.499 13.42C170.294 13.42 170.121 13.4853 169.981 13.616C169.841 13.7467 169.715 13.938 169.603 14.19ZM178.645 15.086C178.775 14.7407 178.841 14.4187 178.841 14.12C178.841 13.5693 178.617 13.294 178.169 13.294C177.935 13.294 177.721 13.4013 177.525 13.616C177.338 13.8213 177.245 14.0547 177.245 14.316C177.245 14.5027 177.319 14.6707 177.469 14.82C177.683 15.0253 178.066 15.296 178.617 15.632C179.167 15.968 179.545 16.276 179.751 16.556C179.965 16.8267 180.073 17.1533 180.073 17.536C180.073 17.9093 179.979 18.2687 179.793 18.614C179.615 18.9593 179.363 19.2533 179.037 19.496C178.337 20.0187 177.427 20.28 176.307 20.28C175.7 20.28 175.163 20.1213 174.697 19.804C174.23 19.496 173.997 19.16 173.997 18.796C173.997 18.432 174.127 18.1427 174.389 17.928C174.659 17.7133 174.991 17.606 175.383 17.606C175.775 17.606 176.092 17.6807 176.335 17.83C176.213 18.138 176.153 18.3947 176.153 18.6C176.153 19.216 176.414 19.524 176.937 19.524C177.161 19.524 177.347 19.454 177.497 19.314C177.646 19.174 177.721 18.9827 177.721 18.74C177.721 18.264 177.319 17.774 176.517 17.27C175.863 16.8407 175.462 16.542 175.313 16.374C175.061 16.0753 174.935 15.7393 174.935 15.366C174.935 14.9927 175.023 14.6287 175.201 14.274C175.378 13.9193 175.63 13.616 175.957 13.364C176.638 12.8413 177.571 12.58 178.757 12.58C179.363 12.58 179.844 12.7013 180.199 12.944C180.563 13.1867 180.745 13.5133 180.745 13.924C180.745 14.3347 180.619 14.6567 180.367 14.89C180.124 15.1233 179.779 15.24 179.331 15.24C179.023 15.24 178.794 15.1887 178.645 15.086Z" fill="white"/>
</svg>
