<svg width="441" height="660" viewBox="0 0 441 660" fill="none" xmlns="http://www.w3.org/2000/svg">
<rect width="440" height="660" fill="#E4E4E4"/>
<rect width="440" height="660" fill="url(#paint0_linear)"/>
<path d="M0 660L440.5 0.5L440 660H0Z" fill="url(#paint1_linear)"/>
<path d="M317.543 485H307.193C306.743 484.5 306.168 483.8 305.468 482.9C304.768 481.95 304.318 481.325 304.118 481.025C300.268 484.225 295.668 485.825 290.318 485.825C285.818 485.825 282.218 484.625 279.518 482.225C276.818 479.775 275.468 476.625 275.468 472.775C275.468 466.075 279.593 460.775 287.843 456.875L287.918 456.65C286.068 453.45 285.143 450.5 285.143 447.8C285.143 443.8 286.543 440.45 289.343 437.75C292.143 435 295.668 433.625 299.918 433.625C303.468 433.625 306.293 434.625 308.393 436.625C310.493 438.575 311.543 441.125 311.543 444.275C311.543 449.875 307.318 454.65 298.868 458.6V458.825C300.718 461.925 303.318 465.8 306.668 470.45C309.518 467 311.918 462.375 313.868 456.575H321.968C318.968 465.075 315.193 471.575 310.643 476.075C312.793 479.125 315.093 482.1 317.543 485ZM292.643 479.15H292.718C295.668 479.15 298.293 478.05 300.593 475.85C296.593 470.3 293.393 465.575 290.993 461.675C286.593 464.525 284.393 467.75 284.393 471.35C284.393 473.6 285.118 475.475 286.568 476.975C288.018 478.425 290.043 479.15 292.643 479.15ZM299.168 439.475H299.093C297.393 439.475 295.968 440.2 294.818 441.65C293.668 443.05 293.093 444.8 293.093 446.9C293.093 449.25 293.843 451.6 295.343 453.95C300.893 451.35 303.668 448.175 303.668 444.425C303.668 443.025 303.293 441.85 302.543 440.9C301.793 439.95 300.668 439.475 299.168 439.475Z" fill="#213F41"/>
<path d="M222.118 398L231.718 347.45H240.418L232.318 390.35H252.118L250.693 398H222.118ZM263.28 347.45H272.055L266.43 376.925C266.03 379.025 265.83 381.075 265.83 383.075C265.83 385.675 266.555 387.725 268.005 389.225C269.455 390.725 271.48 391.475 274.08 391.475C280.63 391.475 284.805 386.65 286.605 377L292.23 347.45H301.005L295.38 376.85C293.93 384.45 291.38 390.025 287.73 393.575C284.13 397.075 279.205 398.825 272.955 398.825C268.055 398.875 264.18 397.6 261.33 395C258.53 392.35 257.13 388.45 257.13 383.3C257.13 381.4 257.355 379.05 257.805 376.25L263.28 347.45ZM309.905 398H301.73L311.33 347.45H321.38L330.23 370.925C331.98 375.825 333.48 381.1 334.73 386.75H334.955C335.155 382.35 335.905 376.65 337.205 369.65L341.405 347.45H349.58L339.98 398H331.055L321.98 374.075C319.78 367.775 318.18 362.35 317.18 357.8L316.955 357.875C316.505 362.175 315.505 368.35 313.955 376.4L309.905 398ZM383.208 368.15L381.783 375.5H363.633L360.783 390.575H381.183L379.758 398H350.583L360.183 347.45H388.233L386.808 354.875H367.533L364.983 368.15H383.208ZM386.365 395.225L389.365 388.025C392.715 390.175 396.515 391.25 400.765 391.25C403.365 391.25 405.565 390.6 407.365 389.3C409.165 387.95 410.065 386.1 410.065 383.75C410.065 382.15 409.515 380.725 408.415 379.475C407.315 378.225 405.515 376.925 403.015 375.575C396.165 371.875 392.74 367.475 392.74 362.375C392.74 357.675 394.515 353.9 398.065 351.05C401.665 348.15 406.09 346.7 411.34 346.7C415.99 346.7 419.74 347.55 422.59 349.25L419.74 356.45C416.89 354.9 413.84 354.15 410.59 354.2C407.94 354.2 405.815 354.85 404.215 356.15C402.665 357.45 401.89 359 401.89 360.8C401.89 362.4 402.49 363.8 403.69 365C404.89 366.2 406.815 367.525 409.465 368.975C416.015 372.425 419.29 376.9 419.29 382.4C419.29 387.4 417.465 391.375 413.815 394.325C410.165 397.275 405.49 398.75 399.79 398.75C396.89 398.7 394.24 398.35 391.84 397.7C389.44 397 387.615 396.175 386.365 395.225Z" fill="#213F41"/>
<path d="M152.684 571H142.709L136.409 520.45H145.409L148.334 548.275C148.934 554.175 149.284 558.725 149.384 561.925H149.609C151.309 557.475 153.384 552.8 155.834 547.9L169.259 520.45H179.009L152.684 571ZM185.017 520.45H193.717L184.117 571H175.417L185.017 520.45ZM227.382 541.15L225.957 548.5H207.807L204.957 563.575H225.357L223.932 571H194.757L204.357 520.45H232.407L230.982 527.875H211.707L209.157 541.15H227.382ZM232.039 571L241.564 521.275C245.014 520.475 249.139 520.075 253.939 520.075C259.539 520.075 263.789 521.15 266.689 523.3C269.839 525.6 271.414 528.675 271.414 532.525C271.414 536.125 270.314 539.175 268.114 541.675C265.914 544.175 263.114 545.95 259.714 547V547.225C262.664 548.375 264.389 551.575 264.889 556.825C265.689 565.325 266.264 570.05 266.614 571H257.614C257.264 569.55 256.839 565.525 256.339 558.925C256.139 555.775 255.439 553.525 254.239 552.175C253.089 550.825 251.339 550.15 248.989 550.15H244.714L240.739 571H232.039ZM248.989 527.425L245.989 543.55H250.939C254.289 543.55 257.014 542.625 259.114 540.775C261.264 538.875 262.339 536.55 262.339 533.8C262.339 531.55 261.539 529.85 259.939 528.7C258.389 527.55 256.314 526.975 253.714 526.975C251.614 526.975 250.039 527.125 248.989 527.425ZM281.813 571H273.638L283.238 520.45H293.288L302.138 543.925C303.888 548.825 305.388 554.1 306.638 559.75H306.863C307.063 555.35 307.813 549.65 309.113 542.65L313.313 520.45H321.488L311.888 571H302.963L293.888 547.075C291.688 540.775 290.088 535.35 289.088 530.8L288.863 530.875C288.413 535.175 287.413 541.35 285.863 549.4L281.813 571ZM355.116 541.15L353.691 548.5H335.541L332.691 563.575H353.091L351.666 571H322.491L332.091 520.45H360.141L358.716 527.875H339.441L336.891 541.15H355.116ZM358.273 568.225L361.273 561.025C364.623 563.175 368.423 564.25 372.673 564.25C375.273 564.25 377.473 563.6 379.273 562.3C381.073 560.95 381.973 559.1 381.973 556.75C381.973 555.15 381.423 553.725 380.323 552.475C379.223 551.225 377.423 549.925 374.923 548.575C368.073 544.875 364.648 540.475 364.648 535.375C364.648 530.675 366.423 526.9 369.973 524.05C373.573 521.15 377.998 519.7 383.248 519.7C387.898 519.7 391.648 520.55 394.498 522.25L391.648 529.45C388.798 527.9 385.748 527.15 382.498 527.2C379.848 527.2 377.723 527.85 376.123 529.15C374.573 530.45 373.798 532 373.798 533.8C373.798 535.4 374.398 536.8 375.598 538C376.798 539.2 378.723 540.525 381.373 541.975C387.923 545.425 391.198 549.9 391.198 555.4C391.198 560.4 389.373 564.375 385.723 567.325C382.073 570.275 377.398 571.75 371.698 571.75C368.798 571.7 366.148 571.35 363.748 570.7C361.348 570 359.523 569.175 358.273 568.225Z" fill="#213F41"/>
<path d="M245.188 218.362C244.297 218.362 243.392 218.103 242.612 217.566C240.621 216.206 240.16 213.563 241.588 211.657C274.063 168.319 268.946 109.458 229.42 71.705C185.07 29.3445 112.909 29.3445 68.5585 71.705C29.0814 109.415 23.9334 168.234 56.3114 211.564C57.7348 213.466 57.2737 216.113 55.2827 217.468C53.2829 218.828 50.5205 218.387 49.0927 216.486C14.1827 169.776 19.7298 106.37 62.2842 65.7207C110.089 20.0567 187.881 20.0567 235.686 65.7207C278.293 106.417 283.809 169.869 248.793 216.592C247.933 217.743 246.567 218.362 245.188 218.362Z" fill="#5B6165"/>
<path d="M245.184 220.479C243.782 220.479 242.439 220.064 241.308 219.281C239.876 218.302 238.918 216.837 238.63 215.164C238.337 213.491 238.745 211.81 239.783 210.425C271.624 167.929 266.605 110.22 227.85 73.2042C206.819 53.1166 178.809 42.0543 148.989 42.0543C119.161 42.0543 91.1548 53.1166 70.1281 73.2042C31.4225 110.173 26.3676 167.844 58.1205 210.328C59.1492 211.708 59.5571 213.39 59.2689 215.063C58.9763 216.74 58.0185 218.201 56.573 219.188C53.5844 221.216 49.4296 220.556 47.2967 217.71C11.7483 170.152 17.3974 105.599 60.7189 64.2171C84.2597 41.7324 115.605 29.3486 148.989 29.3486C182.37 29.3486 213.719 41.7324 237.255 64.2171C280.634 105.65 286.248 170.25 250.598 217.82C249.365 219.484 247.339 220.479 245.184 220.479ZM148.985 37.8191C179.993 37.8191 209.116 49.3219 230.981 70.2099C271.278 108.7 276.497 168.704 243.383 212.89C243.042 213.347 242.904 213.911 243.002 214.465C243.095 215.024 243.419 215.511 243.898 215.838C244.376 216.172 244.86 216.24 245.184 216.24C245.902 216.24 246.571 215.91 246.979 215.359C281.366 169.475 275.952 107.175 234.116 67.2114C211.413 45.5271 181.181 33.5838 148.985 33.5838C116.784 33.5838 86.5522 45.5271 63.8494 67.2114C22.0665 107.128 16.6214 169.386 50.8973 215.253C51.6067 216.206 53.0035 216.431 53.9923 215.744C54.4712 215.418 54.7904 214.931 54.888 214.372C54.9811 213.817 54.8481 213.254 54.5067 212.797C21.4901 168.615 26.7401 108.653 66.9888 70.2099C88.8579 49.3261 117.972 37.8191 148.985 37.8191Z" fill="#5B8491"/>
<path d="M232.551 79.3029C229.713 79.3029 226.879 78.2695 224.711 76.2027C182.955 36.3197 115.01 36.3197 73.2541 76.2027C68.9264 80.3405 61.9027 80.3405 57.5794 76.2027C53.2473 72.0691 53.2473 65.3648 57.5794 61.2312C107.978 13.0896 189.987 13.0896 240.39 61.2312C244.718 65.3648 244.718 72.0691 240.39 76.2027C238.231 78.2695 235.388 79.3029 232.551 79.3029Z" fill="#00A8D4"/>
<path d="M233.593 76.1985C211.586 55.1792 182.312 45.3535 153.428 46.4885C179.354 47.505 204.966 57.3349 224.716 76.1985C226.88 78.2653 229.717 79.2987 232.555 79.2987C234.072 79.2987 235.584 78.981 236.994 78.3881C235.761 77.8799 234.595 77.1641 233.593 76.1985Z" fill="#477682"/>
<path d="M66.4566 76.1984C62.1244 72.0649 62.1244 65.3605 66.4566 61.227C90.5295 38.2298 121.812 26.2484 153.423 25.2235C118.855 24.0969 83.9049 36.0825 57.5794 61.227C53.2473 65.3605 53.2473 72.0649 57.5794 76.1984C60.9006 79.3706 65.8003 80.0864 69.8576 78.3923C68.6293 77.8798 67.4631 77.1641 66.4566 76.1984Z" fill="#477682"/>
<path d="M232.83 81.4205C229.273 81.4205 225.924 80.0991 223.411 77.6977C182.456 38.6449 115.818 38.6406 74.8591 77.6977C69.8274 82.5004 61.052 82.5004 56.0203 77.6977C53.5067 75.3006 52.1167 72.1115 52.1167 68.7148C52.1167 65.3182 53.5067 62.1291 56.0203 59.7277C80.8544 36.0444 113.927 23 149.139 23C184.356 23 217.424 36.0444 242.254 59.7277C244.767 62.1291 246.157 65.3182 246.157 68.7148C246.157 72.1115 244.767 75.3006 242.254 77.6977C239.74 80.0991 236.392 81.4205 232.83 81.4205ZM149.135 44.1718C177.171 44.1718 205.207 54.349 226.55 74.7034C229.908 77.9052 235.761 77.8968 239.11 74.7034C240.788 73.1025 241.712 70.9764 241.712 68.7148C241.712 66.4532 240.788 64.3229 239.11 62.722C215.119 39.8392 183.162 27.2352 149.135 27.2352C115.108 27.2352 83.1549 39.8392 59.1557 62.722C57.477 64.3229 56.5533 66.449 56.5533 68.7148C56.5533 70.9807 57.477 73.1025 59.1557 74.7034C62.5131 77.9052 68.3574 77.9052 71.7148 74.7034C93.0583 54.349 121.099 44.1718 149.135 44.1718Z" fill="#3B6573"/>
<path d="M61.8895 167.874L49.3409 169.212C44.5388 170.029 40.6101 174.514 40.6101 179.177V217.874C40.6101 222.537 44.5388 227.018 49.3409 227.836L61.8895 229.178V167.874Z" fill="#00A8D4"/>
<path d="M49.4873 226.349V187.652C49.4873 182.989 53.4159 178.508 58.2181 177.687L61.8895 177.293V167.87L49.3409 169.212C44.5388 170.03 40.6101 174.515 40.6101 179.178V217.875C40.6101 222.538 44.5388 227.019 49.3409 227.836L49.6425 227.87C49.5538 227.366 49.4873 226.862 49.4873 226.349Z" fill="#BBD6FF"/>
<path d="M61.8896 231.3C61.8053 231.3 61.7255 231.296 61.6413 231.287L49.0926 229.945C43.1287 228.928 38.3931 223.524 38.3931 217.875V179.177C38.3931 173.528 43.1287 168.124 48.9508 167.128L61.6413 165.769C62.2576 165.701 62.8917 165.892 63.3661 166.298C63.8362 166.701 64.1066 167.272 64.1066 167.878V229.183C64.1066 229.784 63.8362 230.36 63.3661 230.762C62.9582 231.11 62.4305 231.3 61.8896 231.3ZM59.6725 170.241L49.5893 171.317C45.9887 171.935 42.8316 175.544 42.8316 179.173V217.87C42.8316 221.504 45.9932 225.108 49.7356 225.748L59.6769 226.807V170.241H59.6725Z" fill="#3B6573"/>
<path d="M88.5122 232.363C88.5122 237.022 84.5215 240.834 79.6439 240.834H70.7579C65.8804 240.834 61.8896 237.022 61.8896 232.363V164.693C61.8896 160.03 65.8804 156.223 70.7579 156.223H79.6439C84.5215 156.223 88.5122 160.03 88.5122 164.693V232.363Z" fill="#00A8D4"/>
<path d="M70.7668 173.172C70.7668 168.509 74.7575 164.702 79.6351 164.702H88.5122V164.697C88.5122 160.035 84.5215 156.227 79.6439 156.227H70.7579C65.8804 156.227 61.8896 160.035 61.8896 164.697V232.368C61.8896 237.026 65.8804 240.838 70.7579 240.838H70.7668V173.172Z" fill="#97D6EA"/>
<path d="M79.6393 242.951H70.7533C64.6386 242.951 59.668 238.199 59.668 232.363V164.693C59.668 158.857 64.6386 154.105 70.7533 154.105H79.6393C85.754 154.105 90.7247 158.857 90.7247 164.693V232.363C90.7247 238.199 85.754 242.951 79.6393 242.951ZM70.7578 158.34C67.0907 158.34 64.1065 161.19 64.1065 164.693V232.363C64.1065 235.866 67.0907 238.716 70.7578 238.716H79.6438C83.3108 238.716 86.295 235.866 86.295 232.363V164.693C86.295 161.19 83.3108 158.34 79.6438 158.34H70.7578Z" fill="#3B6573"/>
<path d="M237.495 156.223C232.852 156.223 215.51 156.223 210.868 156.223C186.405 156.223 166.58 175.163 166.58 198.528C166.58 221.894 186.409 240.834 210.868 240.834H237.495C261.958 240.834 281.783 221.894 281.783 198.528C281.787 175.163 261.958 156.223 237.495 156.223Z" fill="#00A8D4"/>
<path d="M237.495 242.951H210.872C185.225 242.951 164.363 223.025 164.363 198.528C164.363 174.032 185.225 154.105 210.872 154.105H237.495C263.137 154.105 284 174.032 284 198.528C284 223.025 263.137 242.951 237.495 242.951V242.951ZM210.872 158.34C187.673 158.34 168.797 176.369 168.797 198.528C168.797 220.687 187.673 238.716 210.872 238.716H237.495C260.69 238.716 279.566 220.687 279.566 198.528C279.566 176.369 260.69 158.34 237.495 158.34H210.872Z" fill="#3B6573"/>
<path d="M255.165 198.528C255.165 221.894 235.331 240.834 210.872 240.834C186.413 240.834 166.584 221.894 166.584 198.528C166.584 175.163 186.413 156.223 210.872 156.223C235.331 156.223 255.165 175.163 255.165 198.528Z" fill="#97D6EA"/>
<path d="M175.452 198.528C175.452 176.594 192.927 158.565 215.306 156.439C213.848 156.299 212.367 156.223 210.868 156.223C186.405 156.223 166.58 175.163 166.58 198.528C166.58 221.894 186.409 240.834 210.868 240.834C212.367 240.834 213.848 240.757 215.306 240.618C192.932 238.492 175.452 220.458 175.452 198.528Z" fill="#8399A3"/>
<path d="M210.872 242.951C185.225 242.951 164.363 223.025 164.363 198.528C164.363 174.032 185.225 154.105 210.872 154.105C236.515 154.105 257.377 174.032 257.377 198.528C257.377 223.025 236.515 242.951 210.872 242.951ZM210.872 158.34C187.673 158.34 168.797 176.369 168.797 198.528C168.797 220.687 187.673 238.716 210.872 238.716C234.067 238.716 252.943 220.687 252.943 198.528C252.943 176.369 234.072 158.34 210.872 158.34Z" fill="#3B6573"/>
<path d="M237.056 198.528C237.056 212.339 225.332 223.537 210.872 223.537C196.412 223.537 184.688 212.339 184.688 198.528C184.688 184.717 196.417 173.519 210.872 173.519C225.332 173.519 237.056 184.717 237.056 198.528Z" fill="#83B8C9"/>
<path d="M193.561 198.528C193.561 186.165 202.966 175.92 215.306 173.904C213.861 173.667 212.384 173.519 210.868 173.519C196.408 173.519 184.684 184.717 184.684 198.528C184.684 212.339 196.412 223.537 210.868 223.537C212.384 223.537 213.861 223.389 215.306 223.151C202.966 221.136 193.561 210.891 193.561 198.528Z" fill="#8399A3"/>
<path d="M210.872 225.655C195.211 225.655 182.467 213.483 182.467 198.528C182.467 183.574 195.211 171.402 210.872 171.402C226.529 171.402 239.268 183.574 239.268 198.528C239.268 213.483 226.529 225.655 210.872 225.655V225.655ZM210.872 175.637C197.654 175.637 186.901 185.907 186.901 198.528C186.901 211.149 197.654 221.42 210.872 221.42C224.081 221.42 234.834 211.149 234.834 198.528C234.834 185.907 224.086 175.637 210.872 175.637V175.637Z" fill="#3B6573"/>
<path d="M108.042 110.513C108.121 110.277 108.161 109.963 108.161 109.57C108.161 108.941 107.982 108.43 107.623 108.038C107.304 107.645 106.786 107.213 106.069 106.741C105.471 106.309 105.033 105.936 104.754 105.621C104.515 105.307 104.455 104.934 104.575 104.502C104.694 103.952 104.993 103.578 105.471 103.382C105.95 103.186 106.707 103.087 107.743 103.087H124.717C125.554 103.087 126.192 103.225 126.63 103.5C127.108 103.775 127.347 104.128 127.347 104.561C127.347 104.757 127.288 105.012 127.168 105.327C127.048 105.602 126.869 105.857 126.63 106.093C126.431 106.289 126.232 106.446 126.032 106.564C125.873 106.643 125.753 106.721 125.674 106.8C125.036 107.154 124.518 107.546 124.12 107.979C123.721 108.411 123.383 109.079 123.104 109.982L117.246 130.372C116.051 134.537 114.019 137.641 111.15 139.683C108.281 141.687 104.555 142.689 99.9726 142.689C96.9044 142.689 94.2944 142.257 92.1427 141.392C90.0308 140.489 88.437 139.291 87.3611 137.798C86.2852 136.305 85.7473 134.674 85.7473 132.906C85.7473 132.042 85.8669 131.197 86.1059 130.372C86.6239 128.604 87.5006 127.269 88.7358 126.365C90.0109 125.461 91.4255 125.01 92.9795 125.01C94.7726 125.01 96.1473 125.54 97.1036 126.601C98.06 127.662 98.5381 129.017 98.5381 130.667C98.5381 131.492 98.4186 132.317 98.1795 133.142C97.7013 134.792 96.8048 136.01 95.4898 136.796C96.1274 137.189 96.8646 137.385 97.7013 137.385C98.5381 137.385 99.2753 136.973 99.9128 136.148C100.55 135.323 101.088 134.164 101.527 132.671L108.042 110.513Z" fill="#314A52"/>
<path d="M152.724 103.087C156.948 103.087 160.195 103.991 162.466 105.798C164.778 107.605 165.933 110.002 165.933 112.988C165.933 114.166 165.754 115.404 165.395 116.7C164.279 120.629 162.068 123.536 158.761 125.422C155.493 127.308 151.349 128.251 146.329 128.251H140.172L138.14 135.381C138.06 135.617 138.02 135.932 138.02 136.324C138.02 136.874 138.14 137.326 138.379 137.68C138.658 138.033 139.056 138.446 139.575 138.917C140.013 139.31 140.312 139.605 140.471 139.801C140.63 139.998 140.71 140.233 140.71 140.508C140.71 141.176 140.391 141.648 139.754 141.923C139.116 142.198 138.18 142.335 136.945 142.335H121.942C120.906 142.335 120.129 142.159 119.611 141.805C119.093 141.412 118.914 140.882 119.073 140.214C119.153 139.86 119.312 139.585 119.552 139.389C119.751 139.153 120.07 138.898 120.508 138.623C121.185 138.23 121.723 137.817 122.122 137.385C122.52 136.953 122.839 136.285 123.078 135.381L130.37 109.982C130.529 109.472 130.609 108.98 130.609 108.509C130.609 108.077 130.529 107.723 130.37 107.448C130.25 107.134 130.071 106.78 129.832 106.387C129.473 105.877 129.294 105.464 129.294 105.15C129.294 105.032 129.334 104.816 129.414 104.502C129.573 103.991 129.912 103.637 130.43 103.441C130.988 103.205 131.824 103.087 132.94 103.087H152.724ZM151.17 115.64C151.608 114.186 151.827 112.909 151.827 111.809C151.827 109.53 150.752 108.391 148.6 108.391H145.91L141.666 122.947H144.296C145.97 122.947 147.325 122.436 148.361 121.415C149.437 120.354 150.373 118.429 151.17 115.64Z" fill="#314A52"/>
<path d="M183.917 142.689C180.57 142.689 177.562 142.08 174.892 140.862C172.222 139.644 170.091 137.857 168.497 135.499C166.943 133.103 166.166 130.215 166.166 126.837C166.166 124.479 166.584 121.926 167.421 119.175C169.254 113.282 172.023 109.039 175.729 106.446C179.435 103.814 183.399 102.498 187.623 102.498C189.894 102.498 191.907 102.832 193.66 103.5C195.413 104.168 197.027 105.13 198.501 106.387L200.115 105.15C201.191 104.325 202.088 103.755 202.805 103.441C203.562 103.127 204.399 102.969 205.315 102.969C206.311 102.969 207.108 103.186 207.706 103.618C208.304 104.05 208.602 104.678 208.602 105.504C208.602 105.936 208.523 106.368 208.363 106.8L205.016 115.993C204.658 117.054 204.219 117.8 203.701 118.233C203.223 118.665 202.486 118.881 201.49 118.881C200.454 118.881 199.597 118.527 198.92 117.82C198.282 117.074 197.545 115.816 196.708 114.049C195.752 112.202 194.975 110.984 194.377 110.395C193.779 109.805 192.903 109.511 191.747 109.511C190.114 109.511 188.54 110.513 187.025 112.516C185.511 114.481 184.137 117.447 182.901 121.415C181.865 124.754 181.347 127.544 181.347 129.783C181.347 131.747 181.726 133.221 182.483 134.203C183.24 135.146 184.256 135.617 185.531 135.617C187.404 135.617 188.938 135.205 190.133 134.38C191.369 133.555 192.624 132.435 193.899 131.021C194.696 130.156 195.333 129.528 195.812 129.135C196.33 128.703 196.868 128.487 197.425 128.487C198.143 128.487 198.9 128.84 199.697 129.547C200.494 130.255 200.872 130.962 200.832 131.669C200.872 132.533 200.155 133.869 198.681 135.676C197.246 137.483 195.234 139.114 192.644 140.567C190.094 141.982 187.185 142.689 183.917 142.689Z" fill="#314A52"/>
<path d="M93.039 55.7105C92.2817 51.1487 91.5829 46.5678 90.9426 41.9678C92.4424 41.1442 93.9866 40.4293 95.5659 39.8274C96.9356 39.1753 98.4294 38.9323 99.9052 39.1214C100.375 39.2113 100.813 39.4534 101.165 39.8186C101.517 40.1838 101.769 40.6566 101.89 41.1803C102.195 42.1652 102.165 43.2437 101.808 44.2053C101.42 45.1414 100.778 45.9109 99.9754 46.3995C100.474 47.3738 101.109 48.2487 101.856 48.9892C102.372 49.5705 103.026 49.9678 103.738 50.1323C103.731 50.6801 103.557 51.2083 103.244 51.6257C102.911 52.0279 102.489 52.3224 102.023 52.4791C101.525 52.6717 100.986 52.6784 100.484 52.4982C99.9212 52.2838 99.402 51.9435 98.957 51.4973C97.722 50.2011 96.7794 48.5866 96.2087 46.7898L96.34 46.7378C97.1055 46.4774 97.7585 45.9031 98.1722 45.1264C98.3291 44.7116 98.41 44.2648 98.41 43.8133C98.41 43.3619 98.3291 42.9151 98.1722 42.5003C98.1337 42.2222 98.0405 41.9575 97.8994 41.7261C97.7583 41.4947 97.573 41.3024 97.3574 41.1637C97.1418 41.0249 96.9014 40.9433 96.6541 40.9248C96.4068 40.9064 96.159 40.9516 95.9293 41.0572L95.5064 41.2219C95.4158 41.2556 95.328 41.298 95.2437 41.3486C95.7262 45.6028 96.2596 49.8437 96.8439 54.0714C95.5695 54.5952 94.3012 55.1416 93.039 55.7105Z" fill="white"/>
<path d="M106.028 49.9707C105.628 49.6908 105.295 49.3036 105.058 48.8433C104.728 48.1885 104.472 47.4892 104.295 46.7618C104.059 45.8883 103.979 44.9704 104.057 44.0612C104.126 43.1788 104.362 42.3239 104.748 41.5548C105.172 40.7359 105.743 40.0267 106.422 39.4726C107.101 38.9186 107.875 38.5318 108.694 38.3372C109.276 38.1499 109.886 38.1014 110.486 38.195C111.567 37.7694 112.653 37.3577 113.743 36.96C113.783 39.7237 113.844 42.4839 113.928 45.2406C113.931 45.475 113.96 45.708 114.013 45.9345C114.037 46.0703 114.084 46.1992 114.153 46.3134C114.222 46.4277 114.31 46.5248 114.413 46.5988C114.617 46.7444 114.86 46.8016 115.097 46.7601C115.076 47.0171 115.008 47.2665 114.9 47.4933C114.791 47.7201 114.643 47.9197 114.465 48.0801C114.085 48.4634 113.628 48.735 113.134 48.871C112.704 49.0078 112.25 49.0215 111.815 48.9109C111.471 48.8286 111.17 48.5955 110.976 48.2622C110.83 48.6973 110.579 49.0771 110.253 49.3584C109.847 49.7208 109.379 49.9815 108.878 50.1234C108.373 50.29 107.849 50.3695 107.323 50.3593C106.869 50.3594 106.423 50.2255 106.028 49.9707V49.9707ZM107.964 40.5799C107.862 40.936 107.8 41.3057 107.782 41.6796C107.754 42.4817 107.766 43.2849 107.817 44.0854C107.85 45.0628 107.972 46.0337 108.182 46.9821C108.271 47.5015 108.45 47.9953 108.71 48.4339C108.774 48.5229 108.859 48.5892 108.955 48.6248C109.051 48.6605 109.153 48.6641 109.251 48.6351C109.45 48.57 109.633 48.4527 109.785 48.2927C109.937 48.1328 110.054 47.9346 110.126 47.7141C110.331 47.1167 110.403 46.4705 110.334 45.8339C110.214 43.7698 110.107 41.7033 110.011 39.6346C109.713 39.4713 109.374 39.432 109.053 39.5236C108.791 39.5864 108.547 39.7176 108.338 39.9069C108.166 40.0922 108.037 40.3236 107.964 40.5799V40.5799Z" fill="white"/>
<path d="M120.887 35.3296C121.309 35.2375 121.74 35.209 122.169 35.2446C122.169 35.1891 122.179 35.0815 122.183 34.9272V34.2715C122.195 33.9871 122.208 33.6118 122.22 33.1458L122.302 31.4633C123.617 31.0736 124.935 30.7053 126.255 30.3584C126 34.4646 125.793 38.5697 125.635 42.6736C125.636 42.7847 125.645 42.8955 125.661 43.0049L125.707 43.3345C125.738 43.6164 125.844 43.8806 126.012 44.0907C126.083 44.1859 126.175 44.2587 126.278 44.3022C126.381 44.3456 126.492 44.3582 126.6 44.3388C126.498 44.7008 126.329 45.0337 126.104 45.315C125.879 45.5963 125.604 45.8194 125.296 45.9692C125.004 46.1126 124.696 46.2123 124.38 46.2658C124.014 46.333 123.638 46.2918 123.29 46.1462C122.957 46.0312 122.677 45.772 122.51 45.4246C122.352 45.8463 122.091 46.2075 121.757 46.4653C121.338 46.7862 120.862 47.0004 120.363 47.0932C119.835 47.2157 119.294 47.2519 118.757 47.2008C118.295 47.1633 117.849 46.99 117.464 46.6977C116.656 45.8643 116.137 44.7307 115.999 43.501C115.787 42.6047 115.745 41.6672 115.877 40.751C116.008 39.8349 116.311 38.9612 116.763 38.1881C117.24 37.4148 117.853 36.7618 118.562 36.2699C119.272 35.7781 120.063 35.4579 120.887 35.3296V35.3296ZM120.942 36.5871C120.707 36.6333 120.489 36.7564 120.316 36.9413C120.142 37.1262 120.019 37.3649 119.963 37.6278C119.751 38.6125 119.648 39.6236 119.658 40.6373C119.619 41.9532 119.707 43.27 119.92 44.5643C120.062 45.3968 120.356 45.7628 120.801 45.6674C121.004 45.619 121.192 45.5144 121.35 45.3631C121.508 45.2118 121.631 45.0184 121.707 44.8002C121.933 44.2136 122.04 43.5771 122.021 42.9373C122.048 40.8662 122.085 38.7952 122.134 36.7242C121.763 36.5234 121.341 36.475 120.942 36.5871Z" fill="white"/>
<path d="M132.68 43.3984C132.524 43.942 132.222 44.416 131.815 44.7532C131.409 45.0904 130.919 45.2736 130.416 45.2769C130.13 45.3292 129.837 45.3122 129.557 45.227C129.277 45.1418 129.016 44.9903 128.791 44.7825C128.448 44.4895 128.214 44.0615 128.133 43.5822C128.002 41.9062 128.039 40.2185 128.245 38.5521C128.325 37.1818 128.411 35.8115 128.503 34.4412C129.826 34.1082 131.149 33.7931 132.473 33.4959C132.269 35.7242 132.081 37.9525 131.908 40.1808C131.808 40.8778 131.768 41.5842 131.789 42.29C131.868 43.0659 132.165 43.4354 132.68 43.3984ZM128.538 31.5029C128.505 31.2483 128.536 30.9882 128.628 30.7527C128.719 30.5173 128.868 30.3161 129.056 30.1725C129.514 29.7983 130.053 29.5734 130.616 29.5221C131.149 29.4234 131.695 29.5099 132.184 29.7701C132.379 29.8798 132.546 30.0462 132.666 30.2524C132.786 30.4586 132.857 30.6974 132.87 30.9444C132.898 31.1941 132.865 31.4479 132.773 31.677C132.681 31.9061 132.534 32.1012 132.349 32.2401C131.896 32.5911 131.369 32.8004 130.822 32.8472C130.294 32.9422 129.752 32.8702 129.257 32.639C129.058 32.5418 128.885 32.3846 128.759 32.1844C128.632 31.9843 128.556 31.7486 128.538 31.5029V31.5029Z" fill="white"/>
<path d="M138.463 44.3734C135.74 44.5989 134.255 43.3431 134 40.4794C133.771 38.6475 134.185 36.787 135.152 35.2983C135.691 34.5293 136.375 33.907 137.153 33.4769C137.931 33.0469 138.784 32.8199 139.649 32.8127C140.797 32.6428 141.96 32.9509 142.924 33.68C143.319 34.0742 143.631 34.5651 143.835 35.1158C144.039 35.6665 144.131 36.2627 144.103 36.8594C144.241 38.7868 143.714 40.6999 142.632 42.1931C142.106 42.8616 141.464 43.4001 140.747 43.7752C140.029 44.1502 139.252 44.3539 138.463 44.3734V44.3734ZM138.406 35.3018C138.254 35.7662 138.142 36.2467 138.073 36.7362C137.985 37.3144 137.892 38.0493 137.795 38.9408C137.698 39.9328 137.686 40.9332 137.76 41.9277C137.77 42.2364 137.845 42.5379 137.979 42.8071C138.043 42.9195 138.136 43.008 138.244 43.0619C138.353 43.1158 138.473 43.1327 138.589 43.1107C138.84 43.1046 139.082 43.0053 139.278 42.8279C139.482 42.6083 139.633 42.3322 139.716 42.0266C139.982 41.1256 140.163 40.1954 140.257 39.2513C140.376 38.4017 140.446 37.5442 140.467 36.6842C140.467 36.1639 140.45 35.7215 140.432 35.3417C140.426 35.0162 140.356 34.6963 140.228 34.405C140.166 34.2851 140.073 34.1891 139.963 34.1294C139.852 34.0697 139.729 34.0491 139.608 34.0703C139.337 34.0796 139.079 34.2032 138.884 34.4172C138.674 34.6724 138.511 34.9733 138.406 35.3018V35.3018Z" fill="white"/>
<path d="M156.951 34.112C157.152 33.7545 157.272 33.3455 157.299 32.9221C157.319 32.6192 157.312 32.3148 157.279 32.0132C157.252 31.8091 157.193 31.6123 157.104 31.4322C157.018 31.2531 156.89 31.1039 156.736 31.0007C156.581 30.8974 156.404 30.8439 156.224 30.8459C155.731 30.8208 155.247 30.9988 154.861 31.3472C154.653 31.5147 154.483 31.7358 154.365 31.9924C154.247 32.249 154.184 32.5337 154.181 32.8233C154.177 33.0151 154.206 33.206 154.267 33.3848C154.329 33.5635 154.421 33.7265 154.539 33.864C154.822 34.2064 155.141 34.5097 155.487 34.7677C155.871 35.0626 156.278 35.3597 156.708 35.6592C157.132 35.9528 157.536 36.2828 157.916 36.6462C158.301 36.9613 158.611 37.3795 158.82 37.8636C159.028 38.3478 159.128 38.8829 159.11 39.4214C159.073 40.1047 158.861 40.7607 158.499 41.3086C158.118 41.8891 157.641 42.3794 157.095 42.7518C155.827 43.6313 154.358 44.0624 152.874 43.9902C151.867 44.0327 150.867 43.7763 149.973 43.2461C149.684 43.0815 149.438 42.8313 149.263 42.5219C149.087 42.2124 148.988 41.8551 148.976 41.4873C148.916 40.9721 149.02 40.4492 149.269 40.0136C149.519 39.5779 149.898 39.2583 150.337 39.1127C150.651 39.0088 150.979 38.9631 151.306 38.9774C151.736 38.9908 152.16 39.0906 152.558 39.2723C152.356 39.7809 152.243 40.3294 152.225 40.8871C152.209 41.999 152.557 42.5592 153.27 42.58C153.74 42.5911 154.197 42.4059 154.555 42.0597C154.727 41.9275 154.871 41.7538 154.976 41.5511C155.082 41.3484 155.147 41.1216 155.166 40.8871C155.186 40.4825 155.065 40.0853 154.83 39.7805C154.569 39.4441 154.263 39.1551 153.925 38.9236C153.558 38.6687 153.161 38.4172 152.739 38.1708C152.314 37.9273 151.914 37.6343 151.543 37.2966C151.13 36.9532 150.797 36.5021 150.57 35.9813C150.343 35.4605 150.23 34.8854 150.241 34.3046C150.234 33.5521 150.433 32.8159 150.81 32.1971C151.198 31.5704 151.704 31.0487 152.29 30.669C153.519 29.8433 154.937 29.4497 156.363 29.5381C157.503 29.5138 158.63 29.8182 159.638 30.4227C159.944 30.6067 160.197 30.8861 160.368 31.2282C160.539 31.5702 160.62 31.9606 160.602 32.3532C160.585 32.6791 160.498 32.9954 160.35 33.2749C160.202 33.5544 159.996 33.7887 159.75 33.9577C159.315 34.279 158.8 34.4334 158.282 34.3982C157.828 34.3813 157.379 34.2847 156.951 34.112V34.112Z" fill="white"/>
<path d="M160.719 41.919C160.798 41.2573 160.931 40.6053 161.115 39.9711C161.578 38.1325 162.051 36.2956 162.534 34.4605C162.147 34.4235 161.759 34.3888 161.371 34.3564C161.412 34.1517 161.452 33.9453 161.492 33.7406C163.208 33.3351 164.86 32.6332 166.39 31.6592L167.35 31.7771C167.116 32.5091 166.884 33.2411 166.655 33.9731C167.168 34.0355 167.683 34.1014 168.196 34.1708C168.104 34.4726 168.013 34.7744 167.923 35.0762C167.419 35.0103 166.913 34.9461 166.41 34.8854C165.901 36.7078 165.402 38.5326 164.913 40.3596C164.738 40.9092 164.604 41.4751 164.515 42.0508C164.463 42.3242 164.504 42.6098 164.631 42.8495C164.758 43.0893 164.96 43.2651 165.197 43.3413C165.104 43.575 164.971 43.785 164.805 43.9587C164.639 44.1325 164.443 44.2664 164.231 44.3525C163.706 44.5875 163.138 44.6715 162.577 44.5971C162.3 44.5864 162.029 44.5093 161.78 44.3709C161.532 44.2325 161.311 44.0359 161.134 43.794C160.789 43.2528 160.64 42.5814 160.719 41.919V41.919Z" fill="white"/>
<path d="M173.087 44.7549C172.626 45.1499 172.094 45.4232 171.529 45.5549C170.963 45.6867 170.379 45.6735 169.819 45.5164C169.097 45.4208 168.425 45.0439 167.92 44.4497C167.685 44.1939 167.505 43.8797 167.395 43.5318C167.285 43.1839 167.247 42.8118 167.285 42.4445C167.309 42.1321 167.361 41.8231 167.437 41.5218C168.113 39.1246 168.807 36.7321 169.52 34.3442C170.87 34.3963 172.221 34.4685 173.574 34.5611C172.742 37.1282 171.93 39.6999 171.138 42.2763C171.065 42.5068 171.01 42.7442 170.973 42.9857C170.874 43.7836 171.042 44.2155 171.479 44.2866C171.759 44.302 172.038 44.2292 172.285 44.0762C172.531 43.9232 172.736 43.6959 172.876 43.4193C173.029 43.189 173.148 42.9326 173.23 42.6596C174.021 40.2232 174.831 37.7948 175.661 35.3746C176.971 35.4786 178.281 35.6018 179.593 35.744C178.664 38.2984 177.757 40.8597 176.872 43.428C176.802 43.6291 176.751 43.8378 176.719 44.0507C176.686 44.2925 176.706 44.54 176.779 44.7705C176.834 44.9198 176.922 45.0513 177.032 45.1537C177.143 45.2562 177.274 45.3265 177.414 45.3586C177.283 45.6737 177.06 45.9267 176.782 46.0732C176.232 46.4118 175.6 46.5372 174.981 46.4305C174.494 46.3626 174.03 46.1516 173.636 45.8182C173.336 45.5605 173.139 45.1781 173.087 44.7549V44.7549Z" fill="white"/>
<path d="M186.727 37.4564C187.149 37.5624 187.556 37.7309 187.938 37.9577C187.963 37.9091 188.004 37.812 188.062 37.6715L188.295 37.0731C188.405 36.8164 188.549 36.4781 188.725 36.0549C188.944 35.5542 189.166 35.0523 189.389 34.5493C190.732 34.7875 192.075 35.0448 193.418 35.3212C191.747 38.9718 190.118 42.6421 188.532 46.332C188.493 46.4348 188.462 46.5409 188.439 46.6495L188.366 46.9721C188.297 47.2462 188.305 47.5377 188.389 47.8064C188.421 47.9263 188.481 48.0346 188.561 48.1209C188.641 48.2072 188.739 48.2685 188.847 48.299C188.624 48.5886 188.348 48.82 188.039 48.9772C187.73 49.1344 187.394 49.2137 187.056 49.2096C186.736 49.2084 186.417 49.1606 186.108 49.0674C185.746 48.9633 185.415 48.7561 185.144 48.4655C184.881 48.2079 184.717 47.8439 184.686 47.4508C184.393 47.7626 184.027 47.9732 183.633 48.0579C183.135 48.1623 182.623 48.144 182.132 48.0041C181.603 47.8787 181.093 47.6678 180.617 47.378C180.207 47.1359 179.859 46.7773 179.606 46.3372C179.157 45.2078 179.077 43.9337 179.38 42.7433C179.498 41.8249 179.787 40.9456 180.228 40.164C180.669 39.3825 181.251 38.7167 181.936 38.2109C182.646 37.7174 183.438 37.3956 184.263 37.2658C185.087 37.136 185.926 37.2009 186.727 37.4564V37.4564ZM186.338 38.6342C186.105 38.5705 185.861 38.5859 185.636 38.6784C185.411 38.7709 185.215 38.9365 185.072 39.1545C184.531 39.9611 184.082 40.8423 183.736 41.7771C183.24 42.9679 182.861 44.2167 182.603 45.5012C182.443 46.3291 182.584 46.7986 183.028 46.9096C183.231 46.9564 183.44 46.9455 183.639 46.878C183.837 46.8106 184.017 46.6886 184.164 46.5228C184.577 46.0893 184.899 45.5557 185.106 44.9617C185.854 43.0746 186.613 41.1909 187.382 39.3106C187.113 38.9552 186.744 38.7162 186.338 38.6342V38.6342Z" fill="white"/>
<path d="M194.795 50.1996C194.458 50.6262 194.012 50.9224 193.519 51.0468C193.026 51.1712 192.511 51.1176 192.047 50.8934C191.764 50.8119 191.5 50.6638 191.271 50.4589C191.042 50.2539 190.853 49.9966 190.717 49.7035C190.503 49.2796 190.437 48.7806 190.529 48.3037C190.996 46.7033 191.623 45.1692 192.398 43.7315C192.953 42.5104 193.513 41.2921 194.078 40.0768C195.414 40.3682 196.75 40.6804 198.086 41.0135C197.115 42.9654 196.159 44.9231 195.217 46.8866C194.881 47.4814 194.597 48.1116 194.368 48.7686C194.157 49.5214 194.31 49.9984 194.795 50.1996ZM195.128 37.4056C195.188 37.1563 195.308 36.9313 195.476 36.7566C195.643 36.5819 195.851 36.4647 196.075 36.4187C196.631 36.2843 197.208 36.3233 197.747 36.5314C198.277 36.6826 198.755 37.0099 199.121 37.4715C199.263 37.6596 199.358 37.8872 199.398 38.1311C199.437 38.3749 199.418 38.6262 199.344 38.8592C199.282 39.1019 199.162 39.3201 198.996 39.4885C198.831 39.657 198.627 39.7689 198.408 39.8114C197.865 39.926 197.305 39.8794 196.783 39.6761C196.262 39.5224 195.787 39.2107 195.409 38.7742C195.257 38.5969 195.15 38.3756 195.101 38.1344C195.051 37.8932 195.061 37.6412 195.128 37.4056V37.4056Z" fill="white"/>
<path d="M199.822 53.7312C197.211 52.6905 196.275 50.8658 197.041 48.1235C197.475 46.3368 198.513 44.8173 199.929 43.8964C200.705 43.4363 201.561 43.1776 202.436 43.1389C203.31 43.1002 204.182 43.2825 204.987 43.6726C206.119 44.0386 207.098 44.8534 207.746 45.9692C207.976 46.5084 208.095 47.1004 208.092 47.6996C208.089 48.2989 207.966 48.8895 207.731 49.4261C207.18 51.2621 206.014 52.7773 204.486 53.6428C203.755 54.0161 202.964 54.2164 202.162 54.2316C201.36 54.2468 200.564 54.0766 199.822 53.7312V53.7312ZM202.953 45.3846C202.648 45.7403 202.374 46.1302 202.138 46.5485C201.855 47.0307 201.511 47.6621 201.107 48.4426C200.668 49.3071 200.306 50.2194 200.026 51.1658C199.927 51.4541 199.891 51.7654 199.921 52.073C199.941 52.2068 199.995 52.331 200.076 52.4303C200.158 52.5295 200.263 52.5995 200.379 52.6315C200.614 52.7394 200.874 52.7588 201.12 52.687C201.386 52.5803 201.624 52.3961 201.808 52.1528C202.372 51.4473 202.868 50.6757 203.288 49.8511C203.696 49.1268 204.062 48.3736 204.385 47.5962C204.56 47.1209 204.706 46.7063 204.822 46.349C204.932 46.0477 204.979 45.7221 204.961 45.3968C204.947 45.257 204.895 45.1256 204.813 45.02C204.731 44.9144 204.623 44.8395 204.503 44.8053C204.25 44.6895 203.967 44.6839 203.711 44.7897C203.425 44.9272 203.167 45.1296 202.953 45.3846V45.3846Z" fill="white"/>
<defs>
<linearGradient id="paint0_linear" x1="0" y1="0" x2="440" y2="660" gradientUnits="userSpaceOnUse">
<stop stop-color="#A6B0D3" stop-opacity="0.24"/>
<stop offset="1" stop-color="#A6B0D3"/>
</linearGradient>
<linearGradient id="paint1_linear" x1="4.78761e-06" y1="0.999997" x2="441" y2="660" gradientUnits="userSpaceOnUse">
<stop offset="0.458333" stop-color="#459FB3"/>
<stop offset="1" stop-color="#3D6F7E" stop-opacity="0"/>
</linearGradient>
</defs>
</svg>
