<svg width="441" height="660" viewBox="0 0 441 660" fill="none" xmlns="http://www.w3.org/2000/svg">
<rect width="440" height="660" fill="#E4E4E4"/>
<rect width="440" height="660" fill="url(#paint0_linear)"/>
<path d="M0 660L440.5 0.5L440 660H0Z" fill="url(#paint1_linear)"/>
<path d="M111.555 567.225L114.555 560.025C117.905 562.175 121.705 563.25 125.955 563.25C128.555 563.25 130.755 562.6 132.555 561.3C134.355 559.95 135.255 558.1 135.255 555.75C135.255 554.15 134.705 552.725 133.605 551.475C132.505 550.225 130.705 548.925 128.205 547.575C121.355 543.875 117.93 539.475 117.93 534.375C117.93 529.675 119.705 525.9 123.255 523.05C126.855 520.15 131.28 518.7 136.53 518.7C141.18 518.7 144.93 519.55 147.78 521.25L144.93 528.45C142.08 526.9 139.03 526.15 135.78 526.2C133.13 526.2 131.005 526.85 129.405 528.15C127.855 529.45 127.08 531 127.08 532.8C127.08 534.4 127.68 535.8 128.88 537C130.08 538.2 132.005 539.525 134.655 540.975C141.205 544.425 144.48 548.9 144.48 554.4C144.48 559.4 142.655 563.375 139.005 566.325C135.355 569.275 130.68 570.75 124.98 570.75C122.08 570.7 119.43 570.35 117.03 569.7C114.63 569 112.805 568.175 111.555 567.225ZM177.655 555.6H161.83L154.93 570H145.63L170.905 519.45H181.855L188.23 570H179.155L177.655 555.6ZM164.605 548.85H177.205L175.78 536.325C175.58 534.325 175.305 531.1 174.955 526.65H174.805C174.605 527.15 174.005 528.6 173.005 531C172.055 533.35 171.28 535.1 170.68 536.25L164.605 548.85ZM194.283 569.55L203.583 520.2C207.333 519.45 211.383 519.075 215.733 519.075C220.983 519.075 225.033 520.075 227.883 522.075C231.133 524.075 232.758 526.95 232.758 530.7C232.758 533.75 231.758 536.375 229.758 538.575C227.758 540.725 225.258 542.2 222.258 543V543.225C224.708 543.975 226.658 545.325 228.108 547.275C229.608 549.175 230.358 551.525 230.358 554.325C230.358 559.275 228.183 563.25 223.833 566.25C219.933 569 213.983 570.375 205.983 570.375C201.133 570.375 197.233 570.1 194.283 569.55ZM211.083 526.275L208.458 540.15H212.508C215.858 540.15 218.558 539.425 220.608 537.975C222.708 536.475 223.758 534.45 223.758 531.9C223.758 527.9 221.083 525.9 215.733 525.9C213.633 525.9 212.083 526.025 211.083 526.275ZM207.108 546.6L204.033 563.25C205.383 563.4 206.908 563.475 208.608 563.475C212.208 563.475 215.183 562.7 217.533 561.15C219.933 559.6 221.133 557.225 221.133 554.025C221.133 551.475 220.208 549.6 218.358 548.4C216.508 547.2 214.133 546.6 211.233 546.6H207.108ZM263.788 555.6H247.963L241.063 570H231.763L257.038 519.45H267.988L274.363 570H265.288L263.788 555.6ZM250.738 548.85H263.338L261.913 536.325C261.713 534.325 261.438 531.1 261.088 526.65H260.938C260.738 527.15 260.138 528.6 259.138 531C258.188 533.35 257.413 535.1 256.813 536.25L250.738 548.85ZM280.415 569.475L289.79 520.125C294.09 519.425 298.54 519.075 303.14 519.075C311.39 519.075 317.565 521.075 321.665 525.075C325.515 528.575 327.44 533.55 327.44 540C327.44 544.75 326.515 549.2 324.665 553.35C322.865 557.5 320.365 560.9 317.165 563.55C311.515 568.1 303.64 570.375 293.54 570.375C288.04 570.375 283.665 570.075 280.415 569.475ZM297.365 526.575L290.465 562.95C292.015 563.15 293.865 563.25 296.015 563.25C302.915 563.25 308.24 561.175 311.99 557.025C315.99 552.725 317.99 547.125 317.99 540.225C317.99 535.775 316.765 532.325 314.315 529.875C311.865 527.375 308.09 526.125 302.99 526.125C300.64 526.125 298.765 526.275 297.365 526.575ZM351.967 570.825H351.892C345.592 570.825 340.692 568.85 337.192 564.9C333.742 560.9 332.017 555.925 332.017 549.975C332.017 545.375 332.842 540.9 334.492 536.55C336.142 532.15 338.467 528.525 341.467 525.675C346.317 520.975 352.242 518.625 359.242 518.625C365.642 518.625 370.542 520.6 373.942 524.55C377.342 528.45 379.042 533.45 379.042 539.55C379.042 544.15 378.242 548.6 376.642 552.9C375.042 557.2 372.817 560.775 369.967 563.625C365.067 568.425 359.067 570.825 351.967 570.825ZM353.092 563.475H353.167C356.967 563.475 360.242 562.05 362.992 559.2C365.092 557.1 366.742 554.2 367.942 550.5C369.192 546.8 369.817 543.25 369.817 539.85C369.817 538.05 369.642 536.375 369.292 534.825C368.942 533.275 368.342 531.825 367.492 530.475C366.692 529.075 365.492 527.975 363.892 527.175C362.292 526.375 360.392 525.975 358.192 525.975C354.392 525.975 351.042 527.425 348.142 530.325C346.042 532.475 344.367 535.375 343.117 539.025C341.867 542.625 341.242 546.125 341.242 549.525C341.242 553.675 342.217 557.05 344.167 559.65C346.117 562.2 349.092 563.475 353.092 563.475ZM380.427 567.225L383.427 560.025C386.777 562.175 390.577 563.25 394.827 563.25C397.427 563.25 399.627 562.6 401.427 561.3C403.227 559.95 404.127 558.1 404.127 555.75C404.127 554.15 403.577 552.725 402.477 551.475C401.377 550.225 399.577 548.925 397.077 547.575C390.227 543.875 386.802 539.475 386.802 534.375C386.802 529.675 388.577 525.9 392.127 523.05C395.727 520.15 400.152 518.7 405.402 518.7C410.052 518.7 413.802 519.55 416.652 521.25L413.802 528.45C410.952 526.9 407.902 526.15 404.652 526.2C402.002 526.2 399.877 526.85 398.277 528.15C396.727 529.45 395.952 531 395.952 532.8C395.952 534.4 396.552 535.8 397.752 537C398.952 538.2 400.877 539.525 403.527 540.975C410.077 544.425 413.352 548.9 413.352 554.4C413.352 559.4 411.527 563.375 407.877 566.325C404.227 569.275 399.552 570.75 393.852 570.75C390.952 570.7 388.302 570.35 385.902 569.7C383.502 569 381.677 568.175 380.427 567.225Z" fill="#213F41"/>
<path d="M238.188 217.362C237.297 217.362 236.392 217.103 235.612 216.566C233.621 215.206 233.16 212.563 234.588 210.657C267.063 167.319 261.946 108.458 222.42 70.705C178.07 28.3445 105.909 28.3445 61.5585 70.705C22.0814 108.415 16.9334 167.234 49.3114 210.564C50.7348 212.466 50.2737 215.113 48.2827 216.468C46.2829 217.828 43.5205 217.387 42.0927 215.486C7.18268 168.776 12.7298 105.37 55.2842 64.7207C103.089 19.0567 180.881 19.0567 228.686 64.7207C271.293 105.417 276.809 168.869 241.793 215.592C240.933 216.743 239.567 217.362 238.188 217.362Z" fill="#5B6165"/>
<path d="M238.184 219.479C236.782 219.479 235.439 219.064 234.308 218.281C232.876 217.302 231.918 215.837 231.63 214.164C231.337 212.491 231.745 210.81 232.783 209.425C264.624 166.929 259.605 109.22 220.85 72.2042C199.819 52.1166 171.809 41.0543 141.989 41.0543C112.161 41.0543 84.1548 52.1166 63.1281 72.2042C24.4225 109.173 19.3676 166.844 51.1205 209.328C52.1492 210.708 52.5571 212.39 52.2689 214.063C51.9763 215.74 51.0185 217.201 49.573 218.188C46.5844 220.216 42.4296 219.556 40.2967 216.71C4.74825 169.152 10.3974 104.599 53.7189 63.2171C77.2597 40.7324 108.605 28.3486 141.989 28.3486C175.37 28.3486 206.719 40.7324 230.255 63.2171C273.634 104.65 279.248 169.25 243.598 216.82C242.365 218.484 240.339 219.479 238.184 219.479ZM141.985 36.8191C172.993 36.8191 202.116 48.3219 223.981 69.2099C264.278 107.7 269.497 167.704 236.383 211.89C236.042 212.347 235.904 212.911 236.002 213.465C236.095 214.024 236.419 214.511 236.898 214.838C237.376 215.172 237.86 215.24 238.184 215.24C238.902 215.24 239.571 214.91 239.979 214.359C274.366 168.475 268.952 106.175 227.116 66.2114C204.413 44.5271 174.181 32.5838 141.985 32.5838C109.784 32.5838 79.5522 44.5271 56.8494 66.2114C15.0665 106.128 9.62137 168.386 43.8973 214.253C44.6067 215.206 46.0035 215.431 46.9923 214.744C47.4712 214.418 47.7904 213.931 47.888 213.372C47.9811 212.817 47.8481 212.254 47.5067 211.797C14.4901 167.615 19.7401 107.653 59.9888 69.2099C81.8579 48.3261 110.972 36.8191 141.985 36.8191Z" fill="#5B8491"/>
<path d="M225.551 78.3029C222.713 78.3029 219.879 77.2695 217.711 75.2027C175.955 35.3197 108.01 35.3197 66.2541 75.2027C61.9264 79.3405 54.9027 79.3405 50.5794 75.2027C46.2473 71.0691 46.2473 64.3648 50.5794 60.2312C100.978 12.0896 182.987 12.0896 233.39 60.2312C237.718 64.3648 237.718 71.0691 233.39 75.2027C231.231 77.2695 228.388 78.3029 225.551 78.3029Z" fill="#00A8D4"/>
<path d="M226.593 75.1985C204.586 54.1792 175.312 44.3535 146.428 45.4885C172.354 46.505 197.966 56.3349 217.716 75.1985C219.88 77.2653 222.717 78.2987 225.555 78.2987C227.072 78.2987 228.584 77.981 229.994 77.3881C228.761 76.8799 227.595 76.1641 226.593 75.1985Z" fill="#477682"/>
<path d="M59.4566 75.1984C55.1244 71.0649 55.1244 64.3605 59.4566 60.227C83.5295 37.2298 114.812 25.2484 146.423 24.2235C111.855 23.0969 76.9049 35.0825 50.5794 60.227C46.2473 64.3605 46.2473 71.0649 50.5794 75.1984C53.9006 78.3706 58.8003 79.0864 62.8576 77.3923C61.6293 76.8798 60.4631 76.1641 59.4566 75.1984Z" fill="#477682"/>
<path d="M225.83 80.4205C222.273 80.4205 218.924 79.0991 216.411 76.6977C175.456 37.6449 108.818 37.6406 67.8591 76.6977C62.8274 81.5004 54.052 81.5004 49.0203 76.6977C46.5067 74.3006 45.1167 71.1115 45.1167 67.7148C45.1167 64.3182 46.5067 61.1291 49.0203 58.7277C73.8544 35.0444 106.927 22 142.139 22C177.356 22 210.424 35.0444 235.254 58.7277C237.767 61.1291 239.157 64.3182 239.157 67.7148C239.157 71.1115 237.767 74.3006 235.254 76.6977C232.74 79.0991 229.392 80.4205 225.83 80.4205ZM142.135 43.1718C170.171 43.1718 198.207 53.349 219.55 73.7034C222.908 76.9052 228.761 76.8968 232.11 73.7034C233.788 72.1025 234.712 69.9764 234.712 67.7148C234.712 65.4532 233.788 63.3229 232.11 61.722C208.119 38.8392 176.162 26.2352 142.135 26.2352C108.108 26.2352 76.1549 38.8392 52.1557 61.722C50.477 63.3229 49.5533 65.449 49.5533 67.7148C49.5533 69.9807 50.477 72.1025 52.1557 73.7034C55.5131 76.9052 61.3574 76.9052 64.7148 73.7034C86.0583 53.349 114.099 43.1718 142.135 43.1718Z" fill="#3B6573"/>
<path d="M54.8895 166.874L42.3409 168.212C37.5388 169.029 33.6101 173.514 33.6101 178.177V216.874C33.6101 221.537 37.5388 226.018 42.3409 226.836L54.8895 228.178V166.874Z" fill="#00A8D4"/>
<path d="M42.4873 225.349V186.652C42.4873 181.989 46.4159 177.508 51.2181 176.687L54.8895 176.293V166.87L42.3409 168.212C37.5388 169.03 33.6101 173.515 33.6101 178.178V216.875C33.6101 221.538 37.5388 226.019 42.3409 226.836L42.6425 226.87C42.5538 226.366 42.4873 225.862 42.4873 225.349Z" fill="#BBD6FF"/>
<path d="M54.8896 230.3C54.8053 230.3 54.7255 230.296 54.6413 230.287L42.0926 228.945C36.1287 227.928 31.3931 222.524 31.3931 216.875V178.177C31.3931 172.528 36.1287 167.124 41.9508 166.128L54.6413 164.769C55.2576 164.701 55.8917 164.892 56.3661 165.298C56.8362 165.701 57.1066 166.272 57.1066 166.878V228.183C57.1066 228.784 56.8362 229.36 56.3661 229.762C55.9582 230.11 55.4305 230.3 54.8896 230.3ZM52.6725 169.241L42.5893 170.317C38.9887 170.935 35.8316 174.544 35.8316 178.173V216.87C35.8316 220.504 38.9932 224.108 42.7356 224.748L52.6769 225.807V169.241H52.6725Z" fill="#3B6573"/>
<path d="M81.5122 231.363C81.5122 236.022 77.5215 239.834 72.6439 239.834H63.7579C58.8804 239.834 54.8896 236.022 54.8896 231.363V163.693C54.8896 159.03 58.8804 155.223 63.7579 155.223H72.6439C77.5215 155.223 81.5122 159.03 81.5122 163.693V231.363Z" fill="#00A8D4"/>
<path d="M63.7668 172.172C63.7668 167.509 67.7575 163.702 72.6351 163.702H81.5122V163.697C81.5122 159.035 77.5215 155.227 72.6439 155.227H63.7579C58.8804 155.227 54.8896 159.035 54.8896 163.697V231.368C54.8896 236.026 58.8804 239.838 63.7579 239.838H63.7668V172.172Z" fill="#97D6EA"/>
<path d="M72.6393 241.951H63.7533C57.6386 241.951 52.668 237.199 52.668 231.363V163.693C52.668 157.857 57.6386 153.105 63.7533 153.105H72.6393C78.754 153.105 83.7247 157.857 83.7247 163.693V231.363C83.7247 237.199 78.754 241.951 72.6393 241.951ZM63.7578 157.34C60.0907 157.34 57.1065 160.19 57.1065 163.693V231.363C57.1065 234.866 60.0907 237.716 63.7578 237.716H72.6438C76.3108 237.716 79.295 234.866 79.295 231.363V163.693C79.295 160.19 76.3108 157.34 72.6438 157.34H63.7578Z" fill="#3B6573"/>
<path d="M230.495 155.223C225.852 155.223 208.51 155.223 203.868 155.223C179.405 155.223 159.58 174.163 159.58 197.528C159.58 220.894 179.409 239.834 203.868 239.834H230.495C254.958 239.834 274.783 220.894 274.783 197.528C274.787 174.163 254.958 155.223 230.495 155.223Z" fill="#00A8D4"/>
<path d="M230.495 241.951H203.872C178.225 241.951 157.363 222.025 157.363 197.528C157.363 173.032 178.225 153.105 203.872 153.105H230.495C256.137 153.105 277 173.032 277 197.528C277 222.025 256.137 241.951 230.495 241.951V241.951ZM203.872 157.34C180.673 157.34 161.797 175.369 161.797 197.528C161.797 219.687 180.673 237.716 203.872 237.716H230.495C253.69 237.716 272.566 219.687 272.566 197.528C272.566 175.369 253.69 157.34 230.495 157.34H203.872Z" fill="#3B6573"/>
<path d="M248.165 197.528C248.165 220.894 228.331 239.834 203.872 239.834C179.413 239.834 159.584 220.894 159.584 197.528C159.584 174.163 179.413 155.223 203.872 155.223C228.331 155.223 248.165 174.163 248.165 197.528Z" fill="#97D6EA"/>
<path d="M168.452 197.528C168.452 175.594 185.927 157.565 208.306 155.439C206.848 155.299 205.367 155.223 203.868 155.223C179.405 155.223 159.58 174.163 159.58 197.528C159.58 220.894 179.409 239.834 203.868 239.834C205.367 239.834 206.848 239.757 208.306 239.618C185.932 237.492 168.452 219.458 168.452 197.528Z" fill="#8399A3"/>
<path d="M203.872 241.951C178.225 241.951 157.363 222.025 157.363 197.528C157.363 173.032 178.225 153.105 203.872 153.105C229.515 153.105 250.377 173.032 250.377 197.528C250.377 222.025 229.515 241.951 203.872 241.951ZM203.872 157.34C180.673 157.34 161.797 175.369 161.797 197.528C161.797 219.687 180.673 237.716 203.872 237.716C227.067 237.716 245.943 219.687 245.943 197.528C245.943 175.369 227.072 157.34 203.872 157.34Z" fill="#3B6573"/>
<path d="M230.056 197.528C230.056 211.339 218.332 222.537 203.872 222.537C189.412 222.537 177.688 211.339 177.688 197.528C177.688 183.717 189.417 172.519 203.872 172.519C218.332 172.519 230.056 183.717 230.056 197.528Z" fill="#83B8C9"/>
<path d="M186.561 197.528C186.561 185.165 195.966 174.92 208.306 172.904C206.861 172.667 205.384 172.519 203.868 172.519C189.408 172.519 177.684 183.717 177.684 197.528C177.684 211.339 189.412 222.537 203.868 222.537C205.384 222.537 206.861 222.389 208.306 222.151C195.966 220.136 186.561 209.891 186.561 197.528Z" fill="#8399A3"/>
<path d="M203.872 224.655C188.211 224.655 175.467 212.483 175.467 197.528C175.467 182.574 188.211 170.402 203.872 170.402C219.529 170.402 232.268 182.574 232.268 197.528C232.268 212.483 219.529 224.655 203.872 224.655V224.655ZM203.872 174.637C190.654 174.637 179.901 184.907 179.901 197.528C179.901 210.149 190.654 220.42 203.872 220.42C217.081 220.42 227.834 210.149 227.834 197.528C227.834 184.907 217.086 174.637 203.872 174.637V174.637Z" fill="#3B6573"/>
<path d="M101.042 109.513C101.121 109.277 101.161 108.963 101.161 108.57C101.161 107.941 100.982 107.43 100.623 107.038C100.304 106.645 99.7864 106.213 99.0692 105.741C98.4715 105.309 98.0331 104.936 97.7542 104.621C97.5151 104.307 97.4554 103.934 97.5749 103.502C97.6944 102.952 97.9933 102.578 98.4715 102.382C98.9496 102.186 99.7067 102.087 100.743 102.087H117.717C118.554 102.087 119.192 102.225 119.63 102.5C120.108 102.775 120.347 103.128 120.347 103.561C120.347 103.757 120.288 104.012 120.168 104.327C120.048 104.602 119.869 104.857 119.63 105.093C119.431 105.289 119.232 105.446 119.032 105.564C118.873 105.643 118.753 105.721 118.674 105.8C118.036 106.154 117.518 106.546 117.12 106.979C116.721 107.411 116.383 108.079 116.104 108.982L110.246 129.372C109.051 133.537 107.019 136.641 104.15 138.683C101.281 140.687 97.555 141.689 92.9726 141.689C89.9044 141.689 87.2944 141.257 85.1427 140.392C83.0308 139.489 81.437 138.291 80.3611 136.798C79.2852 135.305 78.7473 133.674 78.7473 131.906C78.7473 131.042 78.8669 130.197 79.1059 129.372C79.6239 127.604 80.5006 126.269 81.7358 125.365C83.0109 124.461 84.4255 124.01 85.9795 124.01C87.7726 124.01 89.1473 124.54 90.1036 125.601C91.06 126.662 91.5381 128.017 91.5381 129.667C91.5381 130.492 91.4186 131.317 91.1795 132.142C90.7013 133.792 89.8048 135.01 88.4898 135.796C89.1274 136.189 89.8646 136.385 90.7013 136.385C91.5381 136.385 92.2753 135.973 92.9128 135.148C93.5504 134.323 94.0883 133.164 94.5266 131.671L101.042 109.513Z" fill="#314A52"/>
<path d="M145.724 102.087C149.948 102.087 153.195 102.991 155.466 104.798C157.778 106.605 158.933 109.002 158.933 111.988C158.933 113.166 158.754 114.404 158.395 115.7C157.279 119.629 155.068 122.536 151.761 124.422C148.493 126.308 144.349 127.251 139.329 127.251H133.172L131.14 134.381C131.06 134.617 131.02 134.932 131.02 135.324C131.02 135.874 131.14 136.326 131.379 136.68C131.658 137.033 132.056 137.446 132.575 137.917C133.013 138.31 133.312 138.605 133.471 138.801C133.63 138.998 133.71 139.233 133.71 139.508C133.71 140.176 133.391 140.648 132.754 140.923C132.116 141.198 131.18 141.335 129.945 141.335H114.942C113.906 141.335 113.129 141.159 112.611 140.805C112.093 140.412 111.914 139.882 112.073 139.214C112.153 138.86 112.312 138.585 112.552 138.389C112.751 138.153 113.07 137.898 113.508 137.623C114.185 137.23 114.723 136.817 115.122 136.385C115.52 135.953 115.839 135.285 116.078 134.381L123.37 108.982C123.529 108.472 123.609 107.98 123.609 107.509C123.609 107.077 123.529 106.723 123.37 106.448C123.25 106.134 123.071 105.78 122.832 105.387C122.473 104.877 122.294 104.464 122.294 104.15C122.294 104.032 122.334 103.816 122.414 103.502C122.573 102.991 122.912 102.637 123.43 102.441C123.988 102.205 124.824 102.087 125.94 102.087H145.724ZM144.17 114.64C144.608 113.186 144.827 111.909 144.827 110.809C144.827 108.53 143.752 107.391 141.6 107.391H138.91L134.666 121.947H137.296C138.97 121.947 140.325 121.436 141.361 120.415C142.437 119.354 143.373 117.429 144.17 114.64Z" fill="#314A52"/>
<path d="M176.917 141.689C173.57 141.689 170.562 141.08 167.892 139.862C165.222 138.644 163.091 136.857 161.497 134.499C159.943 132.103 159.166 129.215 159.166 125.837C159.166 123.479 159.584 120.926 160.421 118.175C162.254 112.282 165.023 108.039 168.729 105.446C172.435 102.814 176.399 101.498 180.623 101.498C182.894 101.498 184.907 101.832 186.66 102.5C188.413 103.168 190.027 104.13 191.501 105.387L193.115 104.15C194.191 103.325 195.088 102.755 195.805 102.441C196.562 102.127 197.399 101.969 198.315 101.969C199.311 101.969 200.108 102.186 200.706 102.618C201.304 103.05 201.602 103.678 201.602 104.504C201.602 104.936 201.523 105.368 201.363 105.8L198.016 114.993C197.658 116.054 197.219 116.8 196.701 117.233C196.223 117.665 195.486 117.881 194.49 117.881C193.454 117.881 192.597 117.527 191.92 116.82C191.282 116.074 190.545 114.816 189.708 113.049C188.752 111.202 187.975 109.984 187.377 109.395C186.779 108.805 185.903 108.511 184.747 108.511C183.114 108.511 181.54 109.513 180.025 111.516C178.511 113.481 177.137 116.447 175.901 120.415C174.865 123.754 174.347 126.544 174.347 128.783C174.347 130.747 174.726 132.221 175.483 133.203C176.24 134.146 177.256 134.617 178.531 134.617C180.404 134.617 181.938 134.205 183.133 133.38C184.369 132.555 185.624 131.435 186.899 130.021C187.696 129.156 188.333 128.528 188.812 128.135C189.33 127.703 189.868 127.487 190.425 127.487C191.143 127.487 191.9 127.84 192.697 128.547C193.494 129.255 193.872 129.962 193.832 130.669C193.872 131.533 193.155 132.869 191.681 134.676C190.246 136.483 188.234 138.114 185.644 139.567C183.094 140.982 180.185 141.689 176.917 141.689Z" fill="#314A52"/>
<path d="M86.039 54.7105C85.2817 50.1487 84.5829 45.5678 83.9426 40.9678C85.4424 40.1442 86.9866 39.4293 88.5659 38.8274C89.9356 38.1753 91.4294 37.9323 92.9052 38.1214C93.3753 38.2113 93.8126 38.4534 94.1647 38.8186C94.5168 39.1838 94.7686 39.6566 94.8901 40.1803C95.1947 41.1652 95.1653 42.2437 94.8076 43.2053C94.4204 44.1414 93.7779 44.9109 92.9754 45.3995C93.4735 46.3738 94.109 47.2487 94.8565 47.9892C95.372 48.5705 96.0258 48.9678 96.7376 49.1323C96.7312 49.6801 96.5568 50.2083 96.2444 50.6257C95.9109 51.0279 95.4894 51.3224 95.0229 51.4791C94.5248 51.6717 93.9856 51.6784 93.4839 51.4982C92.9212 51.2838 92.402 50.9435 91.957 50.4973C90.722 49.2011 89.7794 47.5866 89.2087 45.7898L89.34 45.7378C90.1055 45.4774 90.7585 44.9031 91.1722 44.1264C91.3291 43.7116 91.41 43.2648 91.41 42.8133C91.41 42.3619 91.3291 41.9151 91.1722 41.5003C91.1337 41.2222 91.0405 40.9575 90.8994 40.7261C90.7583 40.4947 90.573 40.3024 90.3574 40.1637C90.1418 40.0249 89.9014 39.9433 89.6541 39.9248C89.4068 39.9064 89.159 39.9516 88.9293 40.0572L88.5064 40.2219C88.4158 40.2556 88.328 40.298 88.2437 40.3486C88.7262 44.6028 89.2596 48.8437 89.8439 53.0714C88.5695 53.5952 87.3012 54.1416 86.039 54.7105Z" fill="white"/>
<path d="M99.0278 48.9707C98.6282 48.6908 98.2953 48.3036 98.0583 47.8433C97.7282 47.1885 97.4717 46.4892 97.2949 45.7618C97.0595 44.8883 96.9786 43.9704 97.0567 43.0612C97.1256 42.1788 97.3615 41.3239 97.7483 40.5548C98.1725 39.7359 98.7425 39.0267 99.4219 38.4726C100.101 37.9186 100.875 37.5318 101.694 37.3372C102.276 37.1499 102.886 37.1014 103.486 37.195C104.567 36.7694 105.653 36.3577 106.743 35.96C106.783 38.7237 106.844 41.4839 106.928 44.2406C106.931 44.475 106.96 44.708 107.013 44.9345C107.037 45.0703 107.084 45.1992 107.153 45.3134C107.222 45.4277 107.31 45.5248 107.413 45.5988C107.617 45.7444 107.86 45.8016 108.097 45.7601C108.076 46.0171 108.008 46.2665 107.9 46.4933C107.791 46.7201 107.643 46.9197 107.465 47.0801C107.085 47.4634 106.628 47.735 106.134 47.871C105.704 48.0078 105.25 48.0215 104.815 47.9109C104.471 47.8286 104.17 47.5955 103.976 47.2622C103.83 47.6973 103.579 48.0771 103.253 48.3584C102.847 48.7208 102.379 48.9815 101.878 49.1234C101.373 49.29 100.849 49.3695 100.323 49.3593C99.8687 49.3594 99.4225 49.2255 99.0278 48.9707V48.9707ZM100.964 39.5799C100.862 39.936 100.8 40.3057 100.782 40.6796C100.754 41.4817 100.766 42.2849 100.817 43.0854C100.85 44.0628 100.972 45.0337 101.182 45.9821C101.271 46.5015 101.45 46.9953 101.71 47.4339C101.774 47.5229 101.859 47.5892 101.955 47.6248C102.051 47.6605 102.153 47.6641 102.251 47.6351C102.45 47.57 102.633 47.4527 102.785 47.2927C102.937 47.1328 103.054 46.9346 103.126 46.7141C103.331 46.1167 103.403 45.4705 103.334 44.8339C103.214 42.7698 103.107 40.7033 103.011 38.6346C102.713 38.4713 102.374 38.432 102.053 38.5236C101.791 38.5864 101.547 38.7176 101.338 38.9069C101.166 39.0922 101.037 39.3236 100.964 39.5799V39.5799Z" fill="white"/>
<path d="M113.887 34.3296C114.309 34.2375 114.74 34.209 115.169 34.2446C115.169 34.1891 115.179 34.0815 115.183 33.9272V33.2715C115.195 32.9871 115.208 32.6118 115.22 32.1458L115.302 30.4633C116.617 30.0736 117.935 29.7053 119.255 29.3584C119 33.4646 118.793 37.5697 118.635 41.6736C118.636 41.7847 118.645 41.8955 118.661 42.0049L118.707 42.3345C118.738 42.6164 118.844 42.8806 119.012 43.0907C119.083 43.1859 119.175 43.2587 119.278 43.3022C119.381 43.3456 119.492 43.3582 119.6 43.3388C119.498 43.7008 119.329 44.0337 119.104 44.315C118.879 44.5963 118.604 44.8194 118.296 44.9692C118.004 45.1126 117.696 45.2123 117.38 45.2658C117.014 45.333 116.638 45.2918 116.29 45.1462C115.957 45.0312 115.677 44.772 115.51 44.4246C115.352 44.8463 115.091 45.2075 114.757 45.4653C114.338 45.7862 113.862 46.0004 113.363 46.0932C112.835 46.2157 112.294 46.2519 111.757 46.2008C111.295 46.1633 110.849 45.99 110.464 45.6977C109.656 44.8643 109.137 43.7307 108.999 42.501C108.787 41.6047 108.745 40.6672 108.877 39.751C109.008 38.8349 109.311 37.9612 109.763 37.1881C110.24 36.4148 110.853 35.7618 111.562 35.2699C112.272 34.7781 113.063 34.4579 113.887 34.3296V34.3296ZM113.942 35.5871C113.707 35.6333 113.489 35.7564 113.316 35.9413C113.142 36.1262 113.019 36.3649 112.963 36.6278C112.751 37.6125 112.648 38.6236 112.658 39.6373C112.619 40.9532 112.707 42.27 112.92 43.5643C113.062 44.3968 113.356 44.7628 113.801 44.6674C114.004 44.619 114.192 44.5144 114.35 44.3631C114.508 44.2118 114.631 44.0184 114.707 43.8002C114.933 43.2136 115.04 42.5771 115.021 41.9373C115.048 39.8662 115.085 37.7952 115.134 35.7242C114.763 35.5234 114.341 35.475 113.942 35.5871Z" fill="white"/>
<path d="M125.68 42.3984C125.524 42.942 125.222 43.416 124.815 43.7532C124.409 44.0904 123.919 44.2736 123.416 44.2769C123.13 44.3292 122.837 44.3122 122.557 44.227C122.277 44.1418 122.016 43.9903 121.791 43.7825C121.448 43.4895 121.214 43.0615 121.133 42.5822C121.002 40.9062 121.039 39.2185 121.245 37.5521C121.325 36.1818 121.411 34.8115 121.503 33.4412C122.826 33.1082 124.149 32.7931 125.473 32.4959C125.269 34.7242 125.081 36.9525 124.908 39.1808C124.808 39.8778 124.768 40.5842 124.789 41.29C124.868 42.0659 125.165 42.4354 125.68 42.3984ZM121.538 30.5029C121.505 30.2483 121.536 29.9882 121.628 29.7527C121.719 29.5173 121.868 29.3161 122.056 29.1725C122.514 28.7983 123.053 28.5734 123.616 28.5221C124.149 28.4234 124.695 28.5099 125.184 28.7701C125.379 28.8798 125.546 29.0462 125.666 29.2524C125.786 29.4586 125.857 29.6974 125.87 29.9444C125.898 30.1941 125.865 30.4479 125.773 30.677C125.681 30.9061 125.534 31.1012 125.349 31.2401C124.896 31.5911 124.369 31.8004 123.822 31.8472C123.294 31.9422 122.752 31.8702 122.257 31.639C122.058 31.5418 121.885 31.3846 121.759 31.1844C121.632 30.9843 121.556 30.7486 121.538 30.5029V30.5029Z" fill="white"/>
<path d="M131.463 43.3734C128.74 43.5989 127.255 42.3431 127 39.4794C126.771 37.6475 127.185 35.787 128.152 34.2983C128.691 33.5293 129.375 32.907 130.153 32.4769C130.931 32.0469 131.784 31.8199 132.649 31.8127C133.797 31.6428 134.96 31.9509 135.924 32.68C136.319 33.0742 136.631 33.5651 136.835 34.1158C137.039 34.6665 137.131 35.2627 137.103 35.8594C137.241 37.7868 136.714 39.6999 135.632 41.1931C135.106 41.8616 134.464 42.4001 133.747 42.7752C133.029 43.1502 132.252 43.3539 131.463 43.3734V43.3734ZM131.406 34.3018C131.254 34.7662 131.142 35.2467 131.073 35.7362C130.985 36.3144 130.892 37.0493 130.795 37.9408C130.698 38.9328 130.686 39.9332 130.76 40.9277C130.77 41.2364 130.845 41.5379 130.979 41.8071C131.043 41.9195 131.136 42.008 131.244 42.0619C131.353 42.1158 131.473 42.1327 131.589 42.1107C131.84 42.1046 132.082 42.0053 132.278 41.8279C132.482 41.6083 132.633 41.3322 132.716 41.0266C132.982 40.1256 133.163 39.1954 133.257 38.2513C133.376 37.4017 133.446 36.5442 133.467 35.6842C133.467 35.1639 133.45 34.7215 133.432 34.3417C133.426 34.0162 133.356 33.6963 133.228 33.405C133.166 33.2851 133.073 33.1891 132.963 33.1294C132.852 33.0697 132.729 33.0491 132.608 33.0703C132.337 33.0796 132.079 33.2032 131.884 33.4172C131.674 33.6724 131.511 33.9733 131.406 34.3018V34.3018Z" fill="white"/>
<path d="M149.951 33.112C150.152 32.7545 150.272 32.3455 150.299 31.9221C150.319 31.6192 150.312 31.3148 150.279 31.0132C150.252 30.8091 150.193 30.6123 150.104 30.4322C150.018 30.2531 149.89 30.1039 149.736 30.0007C149.581 29.8974 149.404 29.8439 149.224 29.8459C148.731 29.8208 148.247 29.9988 147.861 30.3472C147.653 30.5147 147.483 30.7358 147.365 30.9924C147.247 31.249 147.184 31.5337 147.181 31.8233C147.177 32.0151 147.206 32.206 147.267 32.3848C147.329 32.5635 147.421 32.7265 147.539 32.864C147.822 33.2064 148.141 33.5097 148.487 33.7677C148.871 34.0626 149.278 34.3597 149.708 34.6592C150.132 34.9528 150.536 35.2828 150.916 35.6462C151.301 35.9613 151.611 36.3795 151.82 36.8636C152.028 37.3478 152.128 37.8829 152.11 38.4214C152.073 39.1047 151.861 39.7607 151.499 40.3086C151.118 40.8891 150.641 41.3794 150.095 41.7518C148.827 42.6313 147.358 43.0624 145.874 42.9902C144.867 43.0327 143.867 42.7763 142.973 42.2461C142.684 42.0815 142.438 41.8313 142.263 41.5219C142.087 41.2124 141.988 40.8551 141.976 40.4873C141.916 39.9721 142.02 39.4492 142.269 39.0136C142.519 38.5779 142.898 38.2583 143.337 38.1127C143.651 38.0088 143.979 37.9631 144.306 37.9774C144.736 37.9908 145.16 38.0906 145.558 38.2723C145.356 38.7809 145.243 39.3294 145.225 39.8871C145.209 40.999 145.557 41.5592 146.27 41.58C146.74 41.5911 147.197 41.4059 147.555 41.0597C147.727 40.9275 147.871 40.7538 147.976 40.5511C148.082 40.3484 148.147 40.1216 148.166 39.8871C148.186 39.4825 148.065 39.0853 147.83 38.7805C147.569 38.4441 147.263 38.1551 146.925 37.9236C146.558 37.6687 146.161 37.4172 145.739 37.1708C145.314 36.9273 144.914 36.6343 144.543 36.2966C144.13 35.9532 143.797 35.5021 143.57 34.9813C143.343 34.4605 143.23 33.8854 143.241 33.3046C143.234 32.5521 143.433 31.8159 143.81 31.1971C144.198 30.5704 144.704 30.0487 145.29 29.669C146.519 28.8433 147.937 28.4497 149.363 28.5381C150.503 28.5138 151.63 28.8182 152.638 29.4227C152.944 29.6067 153.197 29.8861 153.368 30.2282C153.539 30.5702 153.62 30.9606 153.602 31.3532C153.585 31.6791 153.498 31.9954 153.35 32.2749C153.202 32.5544 152.996 32.7887 152.75 32.9577C152.315 33.279 151.8 33.4334 151.282 33.3982C150.828 33.3813 150.379 33.2847 149.951 33.112V33.112Z" fill="white"/>
<path d="M153.719 40.919C153.798 40.2573 153.931 39.6053 154.115 38.9711C154.578 37.1325 155.051 35.2956 155.534 33.4605C155.147 33.4235 154.759 33.3888 154.371 33.3564C154.412 33.1517 154.452 32.9453 154.492 32.7406C156.208 32.3351 157.86 31.6332 159.39 30.6592L160.35 30.7771C160.116 31.5091 159.884 32.2411 159.655 32.9731C160.168 33.0355 160.683 33.1014 161.196 33.1708C161.104 33.4726 161.013 33.7744 160.923 34.0762C160.419 34.0103 159.913 33.9461 159.41 33.8854C158.901 35.7078 158.402 37.5326 157.913 39.3596C157.738 39.9092 157.604 40.4751 157.515 41.0508C157.463 41.3242 157.504 41.6098 157.631 41.8495C157.758 42.0893 157.96 42.2651 158.197 42.3413C158.104 42.575 157.971 42.785 157.805 42.9587C157.639 43.1325 157.443 43.2664 157.231 43.3525C156.706 43.5875 156.138 43.6715 155.577 43.5971C155.3 43.5864 155.029 43.5093 154.78 43.3709C154.532 43.2325 154.311 43.0359 154.134 42.794C153.789 42.2528 153.64 41.5814 153.719 40.919V40.919Z" fill="white"/>
<path d="M166.087 43.7549C165.626 44.1499 165.094 44.4232 164.529 44.5549C163.963 44.6867 163.379 44.6735 162.819 44.5164C162.097 44.4208 161.425 44.0439 160.92 43.4497C160.685 43.1939 160.505 42.8797 160.395 42.5318C160.285 42.1839 160.247 41.8118 160.285 41.4445C160.309 41.1321 160.361 40.8231 160.437 40.5218C161.113 38.1246 161.807 35.7321 162.52 33.3442C163.87 33.3963 165.221 33.4685 166.574 33.5611C165.742 36.1282 164.93 38.6999 164.138 41.2763C164.065 41.5068 164.01 41.7442 163.973 41.9857C163.874 42.7836 164.042 43.2155 164.479 43.2866C164.759 43.302 165.038 43.2292 165.285 43.0762C165.531 42.9232 165.736 42.6959 165.876 42.4193C166.029 42.189 166.148 41.9326 166.23 41.6596C167.021 39.2232 167.831 36.7948 168.661 34.3746C169.971 34.4786 171.281 34.6018 172.593 34.744C171.664 37.2984 170.757 39.8597 169.872 42.428C169.802 42.6291 169.751 42.8378 169.719 43.0507C169.686 43.2925 169.706 43.54 169.779 43.7705C169.834 43.9198 169.922 44.0513 170.032 44.1537C170.143 44.2562 170.274 44.3265 170.414 44.3586C170.283 44.6737 170.06 44.9267 169.782 45.0732C169.232 45.4118 168.6 45.5372 167.981 45.4305C167.494 45.3626 167.03 45.1516 166.636 44.8182C166.336 44.5605 166.139 44.1781 166.087 43.7549V43.7549Z" fill="white"/>
<path d="M179.727 36.4564C180.149 36.5624 180.556 36.7309 180.938 36.9577C180.963 36.9091 181.004 36.812 181.062 36.6715L181.295 36.0731C181.405 35.8164 181.549 35.4781 181.725 35.0549C181.944 34.5542 182.166 34.0523 182.389 33.5493C183.732 33.7875 185.075 34.0448 186.418 34.3212C184.747 37.9718 183.118 41.6421 181.532 45.332C181.493 45.4348 181.462 45.5409 181.439 45.6495L181.366 45.9721C181.297 46.2462 181.305 46.5377 181.389 46.8064C181.421 46.9263 181.481 47.0346 181.561 47.1209C181.641 47.2072 181.739 47.2685 181.847 47.299C181.624 47.5886 181.348 47.82 181.039 47.9772C180.73 48.1344 180.394 48.2137 180.056 48.2096C179.736 48.2084 179.417 48.1606 179.108 48.0674C178.746 47.9633 178.415 47.7561 178.144 47.4655C177.881 47.2079 177.717 46.8439 177.686 46.4508C177.393 46.7626 177.027 46.9732 176.633 47.0579C176.135 47.1623 175.623 47.144 175.132 47.0041C174.603 46.8787 174.093 46.6678 173.617 46.378C173.207 46.1359 172.859 45.7773 172.606 45.3372C172.157 44.2078 172.077 42.9337 172.38 41.7433C172.498 40.8249 172.787 39.9456 173.228 39.164C173.669 38.3825 174.251 37.7167 174.936 37.2109C175.646 36.7174 176.438 36.3956 177.263 36.2658C178.087 36.136 178.926 36.2009 179.727 36.4564V36.4564ZM179.338 37.6342C179.105 37.5705 178.861 37.5859 178.636 37.6784C178.411 37.7709 178.215 37.9365 178.072 38.1545C177.531 38.9611 177.082 39.8423 176.736 40.7771C176.24 41.9679 175.861 43.2167 175.603 44.5012C175.443 45.3291 175.584 45.7986 176.028 45.9096C176.231 45.9564 176.44 45.9455 176.639 45.878C176.837 45.8106 177.017 45.6886 177.164 45.5228C177.577 45.0893 177.899 44.5557 178.106 43.9617C178.854 42.0746 179.613 40.1909 180.382 38.3106C180.113 37.9552 179.744 37.7162 179.338 37.6342V37.6342Z" fill="white"/>
<path d="M187.795 49.1996C187.458 49.6262 187.012 49.9224 186.519 50.0468C186.026 50.1712 185.511 50.1176 185.047 49.8934C184.764 49.8119 184.5 49.6638 184.271 49.4589C184.042 49.2539 183.853 48.9966 183.717 48.7035C183.503 48.2796 183.437 47.7806 183.529 47.3037C183.996 45.7033 184.623 44.1692 185.398 42.7315C185.953 41.5104 186.513 40.2921 187.078 39.0768C188.414 39.3682 189.75 39.6804 191.086 40.0135C190.115 41.9654 189.159 43.9231 188.217 45.8866C187.881 46.4814 187.597 47.1116 187.368 47.7686C187.157 48.5214 187.31 48.9984 187.795 49.1996ZM188.128 36.4056C188.188 36.1563 188.308 35.9313 188.476 35.7566C188.643 35.5819 188.851 35.4647 189.075 35.4187C189.631 35.2843 190.208 35.3233 190.747 35.5314C191.277 35.6826 191.755 36.0099 192.121 36.4715C192.263 36.6596 192.358 36.8872 192.398 37.1311C192.437 37.3749 192.418 37.6262 192.344 37.8592C192.282 38.1019 192.162 38.3201 191.996 38.4885C191.831 38.657 191.627 38.7689 191.408 38.8114C190.865 38.926 190.305 38.8794 189.783 38.6761C189.262 38.5224 188.787 38.2107 188.409 37.7742C188.257 37.5969 188.15 37.3756 188.101 37.1344C188.051 36.8932 188.061 36.6412 188.128 36.4056V36.4056Z" fill="white"/>
<path d="M192.822 52.7312C190.211 51.6905 189.275 49.8658 190.041 47.1235C190.475 45.3368 191.513 43.8173 192.929 42.8964C193.705 42.4363 194.561 42.1776 195.436 42.1389C196.31 42.1002 197.182 42.2825 197.987 42.6726C199.119 43.0386 200.098 43.8534 200.746 44.9692C200.976 45.5084 201.095 46.1004 201.092 46.6996C201.089 47.2989 200.966 47.8895 200.731 48.4261C200.18 50.2621 199.014 51.7773 197.486 52.6428C196.755 53.0161 195.964 53.2164 195.162 53.2316C194.36 53.2468 193.564 53.0766 192.822 52.7312V52.7312ZM195.953 44.3846C195.648 44.7403 195.374 45.1302 195.138 45.5485C194.855 46.0307 194.511 46.6621 194.107 47.4426C193.668 48.3071 193.306 49.2194 193.026 50.1658C192.927 50.4541 192.891 50.7654 192.921 51.073C192.941 51.2068 192.995 51.331 193.076 51.4303C193.158 51.5295 193.263 51.5995 193.379 51.6315C193.614 51.7394 193.874 51.7588 194.12 51.687C194.386 51.5803 194.624 51.3961 194.808 51.1528C195.372 50.4473 195.868 49.6757 196.288 48.8511C196.696 48.1268 197.062 47.3736 197.385 46.5962C197.56 46.1209 197.706 45.7063 197.822 45.349C197.932 45.0477 197.979 44.7221 197.961 44.3968C197.947 44.257 197.895 44.1256 197.813 44.02C197.731 43.9144 197.623 43.8395 197.503 43.8053C197.25 43.6895 196.967 43.6839 196.711 43.7897C196.425 43.9272 196.167 44.1296 195.953 44.3846V44.3846Z" fill="white"/>
<defs>
<linearGradient id="paint0_linear" x1="0" y1="0" x2="440" y2="660" gradientUnits="userSpaceOnUse">
<stop stop-color="#A6B0D3" stop-opacity="0.24"/>
<stop offset="1" stop-color="#A6B0D3"/>
</linearGradient>
<linearGradient id="paint1_linear" x1="4.78761e-06" y1="0.999997" x2="441" y2="660" gradientUnits="userSpaceOnUse">
<stop offset="0.458333" stop-color="#459FB3"/>
<stop offset="1" stop-color="#3D6F7E" stop-opacity="0"/>
</linearGradient>
</defs>
</svg>
