<svg width="441" height="660" viewBox="0 0 441 660" fill="none" xmlns="http://www.w3.org/2000/svg">
<rect width="440" height="660" fill="#E4E4E4"/>
<rect width="440" height="660" fill="url(#paint0_linear)"/>
<path d="M0 660L440.5 0.5L440 660H0Z" fill="url(#paint1_linear)"/>
<path d="M86.4417 570.475L95.8167 521.125C100.117 520.425 104.567 520.075 109.167 520.075C117.417 520.075 123.592 522.075 127.692 526.075C131.542 529.575 133.467 534.55 133.467 541C133.467 545.75 132.542 550.2 130.692 554.35C128.892 558.5 126.392 561.9 123.192 564.55C117.542 569.1 109.667 571.375 99.5667 571.375C94.0667 571.375 89.6917 571.075 86.4417 570.475ZM103.392 527.575L96.4917 563.95C98.0417 564.15 99.8917 564.25 102.042 564.25C108.942 564.25 114.267 562.175 118.017 558.025C122.017 553.725 124.017 548.125 124.017 541.225C124.017 536.775 122.792 533.325 120.342 530.875C117.892 528.375 114.117 527.125 109.017 527.125C106.667 527.125 104.792 527.275 103.392 527.575ZM154.993 571.825H154.918C148.618 571.825 143.718 569.85 140.218 565.9C136.768 561.9 135.043 556.925 135.043 550.975C135.043 546.375 135.868 541.9 137.518 537.55C139.168 533.15 141.493 529.525 144.493 526.675C149.343 521.975 155.268 519.625 162.268 519.625C168.668 519.625 173.568 521.6 176.968 525.55C180.368 529.45 182.068 534.45 182.068 540.55C182.068 545.15 181.268 549.6 179.668 553.9C178.068 558.2 175.843 561.775 172.993 564.625C168.093 569.425 162.093 571.825 154.993 571.825ZM156.118 564.475H156.193C159.993 564.475 163.268 563.05 166.018 560.2C168.118 558.1 169.768 555.2 170.968 551.5C172.218 547.8 172.843 544.25 172.843 540.85C172.843 539.05 172.668 537.375 172.318 535.825C171.968 534.275 171.368 532.825 170.518 531.475C169.718 530.075 168.518 528.975 166.918 528.175C165.318 527.375 163.418 526.975 161.218 526.975C157.418 526.975 154.068 528.425 151.168 531.325C149.068 533.475 147.393 536.375 146.143 540.025C144.893 543.625 144.268 547.125 144.268 550.525C144.268 554.675 145.243 558.05 147.193 560.65C149.143 563.2 152.118 564.475 156.118 564.475ZM232.654 571H224.179L227.479 547.225C228.979 537.775 230.029 531.6 230.629 528.7H230.404C227.204 535.95 224.404 541.9 222.004 546.55L209.629 570.4H202.804L200.179 546.925C199.629 541.625 199.179 535.55 198.829 528.7H198.679C198.479 529.65 197.854 532.475 196.804 537.175C195.804 541.875 195.079 545.225 194.629 547.225L188.779 571H180.679L193.579 520.45H205.054L207.754 544.075C208.354 551.575 208.679 556.425 208.729 558.625H209.029C210.629 554.375 212.754 549.55 215.404 544.15L227.629 520.45H239.329L232.654 571ZM248.46 520.45H257.16L247.56 571H238.86L248.46 520.45ZM263.375 571H255.2L264.8 520.45H274.85L283.7 543.925C285.45 548.825 286.95 554.1 288.2 559.75H288.425C288.625 555.35 289.375 549.65 290.675 542.65L294.875 520.45H303.05L293.45 571H284.525L275.45 547.075C273.25 540.775 271.65 535.35 270.65 530.8L270.425 530.875C269.975 535.175 268.975 541.35 267.425 549.4L263.375 571ZM345.677 543.25L340.802 568.75C335.802 570.6 330.677 571.525 325.427 571.525C318.327 571.525 312.752 569.575 308.702 565.675C304.852 561.875 302.927 556.775 302.927 550.375C302.927 545.875 303.802 541.625 305.552 537.625C307.352 533.575 309.852 530.15 313.052 527.35C318.852 522.4 326.052 519.925 334.652 519.925C340.152 519.925 344.402 520.675 347.402 522.175L344.702 529.525C341.702 528.125 338.127 527.425 333.977 527.425C328.477 527.425 323.777 529.1 319.877 532.45C317.627 534.4 315.827 536.925 314.477 540.025C313.127 543.125 312.452 546.375 312.452 549.775C312.452 554.375 313.677 557.925 316.127 560.425C318.577 562.875 322.152 564.1 326.852 564.1C329.452 564.1 331.627 563.725 333.377 562.975L335.777 550.3H326.852L328.202 543.25H345.677ZM368.655 571.825H368.58C362.28 571.825 357.38 569.85 353.88 565.9C350.43 561.9 348.705 556.925 348.705 550.975C348.705 546.375 349.53 541.9 351.18 537.55C352.83 533.15 355.155 529.525 358.155 526.675C363.005 521.975 368.93 519.625 375.93 519.625C382.33 519.625 387.23 521.6 390.63 525.55C394.03 529.45 395.73 534.45 395.73 540.55C395.73 545.15 394.93 549.6 393.33 553.9C391.73 558.2 389.505 561.775 386.655 564.625C381.755 569.425 375.755 571.825 368.655 571.825ZM369.78 564.475H369.855C373.655 564.475 376.93 563.05 379.68 560.2C381.78 558.1 383.43 555.2 384.63 551.5C385.88 547.8 386.505 544.25 386.505 540.85C386.505 539.05 386.33 537.375 385.98 535.825C385.63 534.275 385.03 532.825 384.18 531.475C383.38 530.075 382.18 528.975 380.58 528.175C378.98 527.375 377.08 526.975 374.88 526.975C371.08 526.975 367.73 528.425 364.83 531.325C362.73 533.475 361.055 536.375 359.805 540.025C358.555 543.625 357.93 547.125 357.93 550.525C357.93 554.675 358.905 558.05 360.855 560.65C362.805 563.2 365.78 564.475 369.78 564.475ZM394.116 568.225L397.116 561.025C400.466 563.175 404.266 564.25 408.516 564.25C411.116 564.25 413.316 563.6 415.116 562.3C416.916 560.95 417.816 559.1 417.816 556.75C417.816 555.15 417.266 553.725 416.166 552.475C415.066 551.225 413.266 549.925 410.766 548.575C403.916 544.875 400.491 540.475 400.491 535.375C400.491 530.675 402.266 526.9 405.816 524.05C409.416 521.15 413.841 519.7 419.091 519.7C423.741 519.7 427.491 520.55 430.341 522.25L427.491 529.45C424.641 527.9 421.591 527.15 418.341 527.2C415.691 527.2 413.566 527.85 411.966 529.15C410.416 530.45 409.641 532 409.641 533.8C409.641 535.4 410.241 536.8 411.441 538C412.641 539.2 414.566 540.525 417.216 541.975C423.766 545.425 427.041 549.9 427.041 555.4C427.041 560.4 425.216 564.375 421.566 567.325C417.916 570.275 413.241 571.75 407.541 571.75C404.641 571.7 401.991 571.35 399.591 570.7C397.191 570 395.366 569.175 394.116 568.225Z" fill="#213F41"/>
<path d="M238.188 218.362C237.297 218.362 236.392 218.103 235.612 217.566C233.621 216.206 233.16 213.563 234.588 211.657C267.063 168.319 261.946 109.458 222.42 71.705C178.07 29.3445 105.909 29.3445 61.5585 71.705C22.0814 109.415 16.9334 168.234 49.3114 211.564C50.7348 213.466 50.2737 216.113 48.2827 217.468C46.2829 218.828 43.5205 218.387 42.0927 216.486C7.18268 169.776 12.7298 106.37 55.2842 65.7207C103.089 20.0567 180.881 20.0567 228.686 65.7207C271.293 106.417 276.809 169.869 241.793 216.592C240.933 217.743 239.567 218.362 238.188 218.362Z" fill="#5B6165"/>
<path d="M238.184 220.479C236.782 220.479 235.439 220.064 234.308 219.281C232.876 218.302 231.918 216.837 231.63 215.164C231.337 213.491 231.745 211.81 232.783 210.425C264.624 167.929 259.605 110.22 220.85 73.2042C199.819 53.1166 171.809 42.0543 141.989 42.0543C112.161 42.0543 84.1548 53.1166 63.1281 73.2042C24.4225 110.173 19.3676 167.844 51.1205 210.328C52.1492 211.708 52.5571 213.39 52.2689 215.063C51.9763 216.74 51.0185 218.201 49.573 219.188C46.5844 221.216 42.4296 220.556 40.2967 217.71C4.74825 170.152 10.3974 105.599 53.7189 64.2171C77.2597 41.7324 108.605 29.3486 141.989 29.3486C175.37 29.3486 206.719 41.7324 230.255 64.2171C273.634 105.65 279.248 170.25 243.598 217.82C242.365 219.484 240.339 220.479 238.184 220.479ZM141.985 37.8191C172.993 37.8191 202.116 49.3219 223.981 70.2099C264.278 108.7 269.497 168.704 236.383 212.89C236.042 213.347 235.904 213.911 236.002 214.465C236.095 215.024 236.419 215.511 236.898 215.838C237.376 216.172 237.86 216.24 238.184 216.24C238.902 216.24 239.571 215.91 239.979 215.359C274.366 169.475 268.952 107.175 227.116 67.2114C204.413 45.5271 174.181 33.5838 141.985 33.5838C109.784 33.5838 79.5522 45.5271 56.8494 67.2114C15.0665 107.128 9.62137 169.386 43.8973 215.253C44.6067 216.206 46.0035 216.431 46.9923 215.744C47.4712 215.418 47.7904 214.931 47.888 214.372C47.9811 213.817 47.8481 213.254 47.5067 212.797C14.4901 168.615 19.7401 108.653 59.9888 70.2099C81.8579 49.3261 110.972 37.8191 141.985 37.8191Z" fill="#5B8491"/>
<path d="M225.551 79.3029C222.713 79.3029 219.879 78.2695 217.711 76.2027C175.955 36.3197 108.01 36.3197 66.2541 76.2027C61.9264 80.3405 54.9027 80.3405 50.5794 76.2027C46.2473 72.0691 46.2473 65.3648 50.5794 61.2312C100.978 13.0896 182.987 13.0896 233.39 61.2312C237.718 65.3648 237.718 72.0691 233.39 76.2027C231.231 78.2695 228.388 79.3029 225.551 79.3029Z" fill="#00A8D4"/>
<path d="M226.593 76.1985C204.586 55.1792 175.312 45.3535 146.428 46.4885C172.354 47.505 197.966 57.3349 217.716 76.1985C219.88 78.2653 222.717 79.2987 225.555 79.2987C227.072 79.2987 228.584 78.981 229.994 78.3881C228.761 77.8799 227.595 77.1641 226.593 76.1985Z" fill="#477682"/>
<path d="M59.4566 76.1984C55.1244 72.0649 55.1244 65.3605 59.4566 61.227C83.5295 38.2298 114.812 26.2484 146.423 25.2235C111.855 24.0969 76.9049 36.0825 50.5794 61.227C46.2473 65.3605 46.2473 72.0649 50.5794 76.1984C53.9006 79.3706 58.8003 80.0864 62.8576 78.3923C61.6293 77.8798 60.4631 77.1641 59.4566 76.1984Z" fill="#477682"/>
<path d="M225.83 81.4205C222.273 81.4205 218.924 80.0991 216.411 77.6977C175.456 38.6449 108.818 38.6406 67.8591 77.6977C62.8274 82.5004 54.052 82.5004 49.0203 77.6977C46.5067 75.3006 45.1167 72.1115 45.1167 68.7148C45.1167 65.3182 46.5067 62.1291 49.0203 59.7277C73.8544 36.0444 106.927 23 142.139 23C177.356 23 210.424 36.0444 235.254 59.7277C237.767 62.1291 239.157 65.3182 239.157 68.7148C239.157 72.1115 237.767 75.3006 235.254 77.6977C232.74 80.0991 229.392 81.4205 225.83 81.4205ZM142.135 44.1718C170.171 44.1718 198.207 54.349 219.55 74.7034C222.908 77.9052 228.761 77.8968 232.11 74.7034C233.788 73.1025 234.712 70.9764 234.712 68.7148C234.712 66.4532 233.788 64.3229 232.11 62.722C208.119 39.8392 176.162 27.2352 142.135 27.2352C108.108 27.2352 76.1549 39.8392 52.1557 62.722C50.477 64.3229 49.5533 66.449 49.5533 68.7148C49.5533 70.9807 50.477 73.1025 52.1557 74.7034C55.5131 77.9052 61.3574 77.9052 64.7148 74.7034C86.0583 54.349 114.099 44.1718 142.135 44.1718Z" fill="#3B6573"/>
<path d="M54.8895 167.874L42.3409 169.212C37.5388 170.029 33.6101 174.514 33.6101 179.177V217.874C33.6101 222.537 37.5388 227.018 42.3409 227.836L54.8895 229.178V167.874Z" fill="#00A8D4"/>
<path d="M42.4873 226.349V187.652C42.4873 182.989 46.4159 178.508 51.2181 177.687L54.8895 177.293V167.87L42.3409 169.212C37.5388 170.03 33.6101 174.515 33.6101 179.178V217.875C33.6101 222.538 37.5388 227.019 42.3409 227.836L42.6425 227.87C42.5538 227.366 42.4873 226.862 42.4873 226.349Z" fill="#BBD6FF"/>
<path d="M54.8896 231.3C54.8053 231.3 54.7255 231.296 54.6413 231.287L42.0926 229.945C36.1287 228.928 31.3931 223.524 31.3931 217.875V179.177C31.3931 173.528 36.1287 168.124 41.9508 167.128L54.6413 165.769C55.2576 165.701 55.8917 165.892 56.3661 166.298C56.8362 166.701 57.1066 167.272 57.1066 167.878V229.183C57.1066 229.784 56.8362 230.36 56.3661 230.762C55.9582 231.11 55.4305 231.3 54.8896 231.3ZM52.6725 170.241L42.5893 171.317C38.9887 171.935 35.8316 175.544 35.8316 179.173V217.87C35.8316 221.504 38.9932 225.108 42.7356 225.748L52.6769 226.807V170.241H52.6725Z" fill="#3B6573"/>
<path d="M81.5122 232.363C81.5122 237.022 77.5215 240.834 72.6439 240.834H63.7579C58.8804 240.834 54.8896 237.022 54.8896 232.363V164.693C54.8896 160.03 58.8804 156.223 63.7579 156.223H72.6439C77.5215 156.223 81.5122 160.03 81.5122 164.693V232.363Z" fill="#00A8D4"/>
<path d="M63.7668 173.172C63.7668 168.509 67.7575 164.702 72.6351 164.702H81.5122V164.697C81.5122 160.035 77.5215 156.227 72.6439 156.227H63.7579C58.8804 156.227 54.8896 160.035 54.8896 164.697V232.368C54.8896 237.026 58.8804 240.838 63.7579 240.838H63.7668V173.172Z" fill="#97D6EA"/>
<path d="M72.6393 242.951H63.7533C57.6386 242.951 52.668 238.199 52.668 232.363V164.693C52.668 158.857 57.6386 154.105 63.7533 154.105H72.6393C78.754 154.105 83.7247 158.857 83.7247 164.693V232.363C83.7247 238.199 78.754 242.951 72.6393 242.951ZM63.7578 158.34C60.0907 158.34 57.1065 161.19 57.1065 164.693V232.363C57.1065 235.866 60.0907 238.716 63.7578 238.716H72.6438C76.3108 238.716 79.295 235.866 79.295 232.363V164.693C79.295 161.19 76.3108 158.34 72.6438 158.34H63.7578Z" fill="#3B6573"/>
<path d="M230.495 156.223C225.852 156.223 208.51 156.223 203.868 156.223C179.405 156.223 159.58 175.163 159.58 198.528C159.58 221.894 179.409 240.834 203.868 240.834H230.495C254.958 240.834 274.783 221.894 274.783 198.528C274.787 175.163 254.958 156.223 230.495 156.223Z" fill="#00A8D4"/>
<path d="M230.495 242.951H203.872C178.225 242.951 157.363 223.025 157.363 198.528C157.363 174.032 178.225 154.105 203.872 154.105H230.495C256.137 154.105 277 174.032 277 198.528C277 223.025 256.137 242.951 230.495 242.951V242.951ZM203.872 158.34C180.673 158.34 161.797 176.369 161.797 198.528C161.797 220.687 180.673 238.716 203.872 238.716H230.495C253.69 238.716 272.566 220.687 272.566 198.528C272.566 176.369 253.69 158.34 230.495 158.34H203.872Z" fill="#3B6573"/>
<path d="M248.165 198.528C248.165 221.894 228.331 240.834 203.872 240.834C179.413 240.834 159.584 221.894 159.584 198.528C159.584 175.163 179.413 156.223 203.872 156.223C228.331 156.223 248.165 175.163 248.165 198.528Z" fill="#97D6EA"/>
<path d="M168.452 198.528C168.452 176.594 185.927 158.565 208.306 156.439C206.848 156.299 205.367 156.223 203.868 156.223C179.405 156.223 159.58 175.163 159.58 198.528C159.58 221.894 179.409 240.834 203.868 240.834C205.367 240.834 206.848 240.757 208.306 240.618C185.932 238.492 168.452 220.458 168.452 198.528Z" fill="#8399A3"/>
<path d="M203.872 242.951C178.225 242.951 157.363 223.025 157.363 198.528C157.363 174.032 178.225 154.105 203.872 154.105C229.515 154.105 250.377 174.032 250.377 198.528C250.377 223.025 229.515 242.951 203.872 242.951ZM203.872 158.34C180.673 158.34 161.797 176.369 161.797 198.528C161.797 220.687 180.673 238.716 203.872 238.716C227.067 238.716 245.943 220.687 245.943 198.528C245.943 176.369 227.072 158.34 203.872 158.34Z" fill="#3B6573"/>
<path d="M230.056 198.528C230.056 212.339 218.332 223.537 203.872 223.537C189.412 223.537 177.688 212.339 177.688 198.528C177.688 184.717 189.417 173.519 203.872 173.519C218.332 173.519 230.056 184.717 230.056 198.528Z" fill="#83B8C9"/>
<path d="M186.561 198.528C186.561 186.165 195.966 175.92 208.306 173.904C206.861 173.667 205.384 173.519 203.868 173.519C189.408 173.519 177.684 184.717 177.684 198.528C177.684 212.339 189.412 223.537 203.868 223.537C205.384 223.537 206.861 223.389 208.306 223.151C195.966 221.136 186.561 210.891 186.561 198.528Z" fill="#8399A3"/>
<path d="M203.872 225.655C188.211 225.655 175.467 213.483 175.467 198.528C175.467 183.574 188.211 171.402 203.872 171.402C219.529 171.402 232.268 183.574 232.268 198.528C232.268 213.483 219.529 225.655 203.872 225.655V225.655ZM203.872 175.637C190.654 175.637 179.901 185.907 179.901 198.528C179.901 211.149 190.654 221.42 203.872 221.42C217.081 221.42 227.834 211.149 227.834 198.528C227.834 185.907 217.086 175.637 203.872 175.637V175.637Z" fill="#3B6573"/>
<path d="M101.042 110.513C101.121 110.277 101.161 109.963 101.161 109.57C101.161 108.941 100.982 108.43 100.623 108.038C100.304 107.645 99.7864 107.213 99.0692 106.741C98.4715 106.309 98.0331 105.936 97.7542 105.621C97.5151 105.307 97.4554 104.934 97.5749 104.502C97.6944 103.952 97.9933 103.578 98.4715 103.382C98.9496 103.186 99.7067 103.087 100.743 103.087H117.717C118.554 103.087 119.192 103.225 119.63 103.5C120.108 103.775 120.347 104.128 120.347 104.561C120.347 104.757 120.288 105.012 120.168 105.327C120.048 105.602 119.869 105.857 119.63 106.093C119.431 106.289 119.232 106.446 119.032 106.564C118.873 106.643 118.753 106.721 118.674 106.8C118.036 107.154 117.518 107.546 117.12 107.979C116.721 108.411 116.383 109.079 116.104 109.982L110.246 130.372C109.051 134.537 107.019 137.641 104.15 139.683C101.281 141.687 97.555 142.689 92.9726 142.689C89.9044 142.689 87.2944 142.257 85.1427 141.392C83.0308 140.489 81.437 139.291 80.3611 137.798C79.2852 136.305 78.7473 134.674 78.7473 132.906C78.7473 132.042 78.8669 131.197 79.1059 130.372C79.6239 128.604 80.5006 127.269 81.7358 126.365C83.0109 125.461 84.4255 125.01 85.9795 125.01C87.7726 125.01 89.1473 125.54 90.1036 126.601C91.06 127.662 91.5381 129.017 91.5381 130.667C91.5381 131.492 91.4186 132.317 91.1795 133.142C90.7013 134.792 89.8048 136.01 88.4898 136.796C89.1274 137.189 89.8646 137.385 90.7013 137.385C91.5381 137.385 92.2753 136.973 92.9128 136.148C93.5504 135.323 94.0883 134.164 94.5266 132.671L101.042 110.513Z" fill="#314A52"/>
<path d="M145.724 103.087C149.948 103.087 153.195 103.991 155.466 105.798C157.778 107.605 158.933 110.002 158.933 112.988C158.933 114.166 158.754 115.404 158.395 116.7C157.279 120.629 155.068 123.536 151.761 125.422C148.493 127.308 144.349 128.251 139.329 128.251H133.172L131.14 135.381C131.06 135.617 131.02 135.932 131.02 136.324C131.02 136.874 131.14 137.326 131.379 137.68C131.658 138.033 132.056 138.446 132.575 138.917C133.013 139.31 133.312 139.605 133.471 139.801C133.63 139.998 133.71 140.233 133.71 140.508C133.71 141.176 133.391 141.648 132.754 141.923C132.116 142.198 131.18 142.335 129.945 142.335H114.942C113.906 142.335 113.129 142.159 112.611 141.805C112.093 141.412 111.914 140.882 112.073 140.214C112.153 139.86 112.312 139.585 112.552 139.389C112.751 139.153 113.07 138.898 113.508 138.623C114.185 138.23 114.723 137.817 115.122 137.385C115.52 136.953 115.839 136.285 116.078 135.381L123.37 109.982C123.529 109.472 123.609 108.98 123.609 108.509C123.609 108.077 123.529 107.723 123.37 107.448C123.25 107.134 123.071 106.78 122.832 106.387C122.473 105.877 122.294 105.464 122.294 105.15C122.294 105.032 122.334 104.816 122.414 104.502C122.573 103.991 122.912 103.637 123.43 103.441C123.988 103.205 124.824 103.087 125.94 103.087H145.724ZM144.17 115.64C144.608 114.186 144.827 112.909 144.827 111.809C144.827 109.53 143.752 108.391 141.6 108.391H138.91L134.666 122.947H137.296C138.97 122.947 140.325 122.436 141.361 121.415C142.437 120.354 143.373 118.429 144.17 115.64Z" fill="#314A52"/>
<path d="M176.917 142.689C173.57 142.689 170.562 142.08 167.892 140.862C165.222 139.644 163.091 137.857 161.497 135.499C159.943 133.103 159.166 130.215 159.166 126.837C159.166 124.479 159.584 121.926 160.421 119.175C162.254 113.282 165.023 109.039 168.729 106.446C172.435 103.814 176.399 102.498 180.623 102.498C182.894 102.498 184.907 102.832 186.66 103.5C188.413 104.168 190.027 105.13 191.501 106.387L193.115 105.15C194.191 104.325 195.088 103.755 195.805 103.441C196.562 103.127 197.399 102.969 198.315 102.969C199.311 102.969 200.108 103.186 200.706 103.618C201.304 104.05 201.602 104.678 201.602 105.504C201.602 105.936 201.523 106.368 201.363 106.8L198.016 115.993C197.658 117.054 197.219 117.8 196.701 118.233C196.223 118.665 195.486 118.881 194.49 118.881C193.454 118.881 192.597 118.527 191.92 117.82C191.282 117.074 190.545 115.816 189.708 114.049C188.752 112.202 187.975 110.984 187.377 110.395C186.779 109.805 185.903 109.511 184.747 109.511C183.114 109.511 181.54 110.513 180.025 112.516C178.511 114.481 177.137 117.447 175.901 121.415C174.865 124.754 174.347 127.544 174.347 129.783C174.347 131.747 174.726 133.221 175.483 134.203C176.24 135.146 177.256 135.617 178.531 135.617C180.404 135.617 181.938 135.205 183.133 134.38C184.369 133.555 185.624 132.435 186.899 131.021C187.696 130.156 188.333 129.528 188.812 129.135C189.33 128.703 189.868 128.487 190.425 128.487C191.143 128.487 191.9 128.84 192.697 129.547C193.494 130.255 193.872 130.962 193.832 131.669C193.872 132.533 193.155 133.869 191.681 135.676C190.246 137.483 188.234 139.114 185.644 140.567C183.094 141.982 180.185 142.689 176.917 142.689Z" fill="#314A52"/>
<path d="M86.039 55.7105C85.2817 51.1487 84.5829 46.5678 83.9426 41.9678C85.4424 41.1442 86.9866 40.4293 88.5659 39.8274C89.9356 39.1753 91.4294 38.9323 92.9052 39.1214C93.3753 39.2113 93.8126 39.4534 94.1647 39.8186C94.5168 40.1838 94.7686 40.6566 94.8901 41.1803C95.1947 42.1652 95.1653 43.2437 94.8076 44.2053C94.4204 45.1414 93.7779 45.9109 92.9754 46.3995C93.4735 47.3738 94.109 48.2487 94.8565 48.9892C95.372 49.5705 96.0258 49.9678 96.7376 50.1323C96.7312 50.6801 96.5568 51.2083 96.2444 51.6257C95.9109 52.0279 95.4894 52.3224 95.0229 52.4791C94.5248 52.6717 93.9856 52.6784 93.4839 52.4982C92.9212 52.2838 92.402 51.9435 91.957 51.4973C90.722 50.2011 89.7794 48.5866 89.2087 46.7898L89.34 46.7378C90.1055 46.4774 90.7585 45.9031 91.1722 45.1264C91.3291 44.7116 91.41 44.2648 91.41 43.8133C91.41 43.3619 91.3291 42.9151 91.1722 42.5003C91.1337 42.2222 91.0405 41.9575 90.8994 41.7261C90.7583 41.4947 90.573 41.3024 90.3574 41.1637C90.1418 41.0249 89.9014 40.9433 89.6541 40.9248C89.4068 40.9064 89.159 40.9516 88.9293 41.0572L88.5064 41.2219C88.4158 41.2556 88.328 41.298 88.2437 41.3486C88.7262 45.6028 89.2596 49.8437 89.8439 54.0714C88.5695 54.5952 87.3012 55.1416 86.039 55.7105Z" fill="white"/>
<path d="M99.0278 49.9707C98.6282 49.6908 98.2953 49.3036 98.0583 48.8433C97.7282 48.1885 97.4717 47.4892 97.2949 46.7618C97.0595 45.8883 96.9786 44.9704 97.0567 44.0612C97.1256 43.1788 97.3615 42.3239 97.7483 41.5548C98.1725 40.7359 98.7425 40.0267 99.4219 39.4726C100.101 38.9186 100.875 38.5318 101.694 38.3372C102.276 38.1499 102.886 38.1014 103.486 38.195C104.567 37.7694 105.653 37.3577 106.743 36.96C106.783 39.7237 106.844 42.4839 106.928 45.2406C106.931 45.475 106.96 45.708 107.013 45.9345C107.037 46.0703 107.084 46.1992 107.153 46.3134C107.222 46.4277 107.31 46.5248 107.413 46.5988C107.617 46.7444 107.86 46.8016 108.097 46.7601C108.076 47.0171 108.008 47.2665 107.9 47.4933C107.791 47.7201 107.643 47.9197 107.465 48.0801C107.085 48.4634 106.628 48.735 106.134 48.871C105.704 49.0078 105.25 49.0215 104.815 48.9109C104.471 48.8286 104.17 48.5955 103.976 48.2622C103.83 48.6973 103.579 49.0771 103.253 49.3584C102.847 49.7208 102.379 49.9815 101.878 50.1234C101.373 50.29 100.849 50.3695 100.323 50.3593C99.8687 50.3594 99.4225 50.2255 99.0278 49.9707V49.9707ZM100.964 40.5799C100.862 40.936 100.8 41.3057 100.782 41.6796C100.754 42.4817 100.766 43.2849 100.817 44.0854C100.85 45.0628 100.972 46.0337 101.182 46.9821C101.271 47.5015 101.45 47.9953 101.71 48.4339C101.774 48.5229 101.859 48.5892 101.955 48.6248C102.051 48.6605 102.153 48.6641 102.251 48.6351C102.45 48.57 102.633 48.4527 102.785 48.2927C102.937 48.1328 103.054 47.9346 103.126 47.7141C103.331 47.1167 103.403 46.4705 103.334 45.8339C103.214 43.7698 103.107 41.7033 103.011 39.6346C102.713 39.4713 102.374 39.432 102.053 39.5236C101.791 39.5864 101.547 39.7176 101.338 39.9069C101.166 40.0922 101.037 40.3236 100.964 40.5799V40.5799Z" fill="white"/>
<path d="M113.887 35.3296C114.309 35.2375 114.74 35.209 115.169 35.2446C115.169 35.1891 115.179 35.0815 115.183 34.9272V34.2715C115.195 33.9871 115.208 33.6118 115.22 33.1458L115.302 31.4633C116.617 31.0736 117.935 30.7053 119.255 30.3584C119 34.4646 118.793 38.5697 118.635 42.6736C118.636 42.7847 118.645 42.8955 118.661 43.0049L118.707 43.3345C118.738 43.6164 118.844 43.8806 119.012 44.0907C119.083 44.1859 119.175 44.2587 119.278 44.3022C119.381 44.3456 119.492 44.3582 119.6 44.3388C119.498 44.7008 119.329 45.0337 119.104 45.315C118.879 45.5963 118.604 45.8194 118.296 45.9692C118.004 46.1126 117.696 46.2123 117.38 46.2658C117.014 46.333 116.638 46.2918 116.29 46.1462C115.957 46.0312 115.677 45.772 115.51 45.4246C115.352 45.8463 115.091 46.2075 114.757 46.4653C114.338 46.7862 113.862 47.0004 113.363 47.0932C112.835 47.2157 112.294 47.2519 111.757 47.2008C111.295 47.1633 110.849 46.99 110.464 46.6977C109.656 45.8643 109.137 44.7307 108.999 43.501C108.787 42.6047 108.745 41.6672 108.877 40.751C109.008 39.8349 109.311 38.9612 109.763 38.1881C110.24 37.4148 110.853 36.7618 111.562 36.2699C112.272 35.7781 113.063 35.4579 113.887 35.3296V35.3296ZM113.942 36.5871C113.707 36.6333 113.489 36.7564 113.316 36.9413C113.142 37.1262 113.019 37.3649 112.963 37.6278C112.751 38.6125 112.648 39.6236 112.658 40.6373C112.619 41.9532 112.707 43.27 112.92 44.5643C113.062 45.3968 113.356 45.7628 113.801 45.6674C114.004 45.619 114.192 45.5144 114.35 45.3631C114.508 45.2118 114.631 45.0184 114.707 44.8002C114.933 44.2136 115.04 43.5771 115.021 42.9373C115.048 40.8662 115.085 38.7952 115.134 36.7242C114.763 36.5234 114.341 36.475 113.942 36.5871Z" fill="white"/>
<path d="M125.68 43.3984C125.524 43.942 125.222 44.416 124.815 44.7532C124.409 45.0904 123.919 45.2736 123.416 45.2769C123.13 45.3292 122.837 45.3122 122.557 45.227C122.277 45.1418 122.016 44.9903 121.791 44.7825C121.448 44.4895 121.214 44.0615 121.133 43.5822C121.002 41.9062 121.039 40.2185 121.245 38.5521C121.325 37.1818 121.411 35.8115 121.503 34.4412C122.826 34.1082 124.149 33.7931 125.473 33.4959C125.269 35.7242 125.081 37.9525 124.908 40.1808C124.808 40.8778 124.768 41.5842 124.789 42.29C124.868 43.0659 125.165 43.4354 125.68 43.3984ZM121.538 31.5029C121.505 31.2483 121.536 30.9882 121.628 30.7527C121.719 30.5173 121.868 30.3161 122.056 30.1725C122.514 29.7983 123.053 29.5734 123.616 29.5221C124.149 29.4234 124.695 29.5099 125.184 29.7701C125.379 29.8798 125.546 30.0462 125.666 30.2524C125.786 30.4586 125.857 30.6974 125.87 30.9444C125.898 31.1941 125.865 31.4479 125.773 31.677C125.681 31.9061 125.534 32.1012 125.349 32.2401C124.896 32.5911 124.369 32.8004 123.822 32.8472C123.294 32.9422 122.752 32.8702 122.257 32.639C122.058 32.5418 121.885 32.3846 121.759 32.1844C121.632 31.9843 121.556 31.7486 121.538 31.5029V31.5029Z" fill="white"/>
<path d="M131.463 44.3734C128.74 44.5989 127.255 43.3431 127 40.4794C126.771 38.6475 127.185 36.787 128.152 35.2983C128.691 34.5293 129.375 33.907 130.153 33.4769C130.931 33.0469 131.784 32.8199 132.649 32.8127C133.797 32.6428 134.96 32.9509 135.924 33.68C136.319 34.0742 136.631 34.5651 136.835 35.1158C137.039 35.6665 137.131 36.2627 137.103 36.8594C137.241 38.7868 136.714 40.6999 135.632 42.1931C135.106 42.8616 134.464 43.4001 133.747 43.7752C133.029 44.1502 132.252 44.3539 131.463 44.3734V44.3734ZM131.406 35.3018C131.254 35.7662 131.142 36.2467 131.073 36.7362C130.985 37.3144 130.892 38.0493 130.795 38.9408C130.698 39.9328 130.686 40.9332 130.76 41.9277C130.77 42.2364 130.845 42.5379 130.979 42.8071C131.043 42.9195 131.136 43.008 131.244 43.0619C131.353 43.1158 131.473 43.1327 131.589 43.1107C131.84 43.1046 132.082 43.0053 132.278 42.8279C132.482 42.6083 132.633 42.3322 132.716 42.0266C132.982 41.1256 133.163 40.1954 133.257 39.2513C133.376 38.4017 133.446 37.5442 133.467 36.6842C133.467 36.1639 133.45 35.7215 133.432 35.3417C133.426 35.0162 133.356 34.6963 133.228 34.405C133.166 34.2851 133.073 34.1891 132.963 34.1294C132.852 34.0697 132.729 34.0491 132.608 34.0703C132.337 34.0796 132.079 34.2032 131.884 34.4172C131.674 34.6724 131.511 34.9733 131.406 35.3018V35.3018Z" fill="white"/>
<path d="M149.951 34.112C150.152 33.7545 150.272 33.3455 150.299 32.9221C150.319 32.6192 150.312 32.3148 150.279 32.0132C150.252 31.8091 150.193 31.6123 150.104 31.4322C150.018 31.2531 149.89 31.1039 149.736 31.0007C149.581 30.8974 149.404 30.8439 149.224 30.8459C148.731 30.8208 148.247 30.9988 147.861 31.3472C147.653 31.5147 147.483 31.7358 147.365 31.9924C147.247 32.249 147.184 32.5337 147.181 32.8233C147.177 33.0151 147.206 33.206 147.267 33.3848C147.329 33.5635 147.421 33.7265 147.539 33.864C147.822 34.2064 148.141 34.5097 148.487 34.7677C148.871 35.0626 149.278 35.3597 149.708 35.6592C150.132 35.9528 150.536 36.2828 150.916 36.6462C151.301 36.9613 151.611 37.3795 151.82 37.8636C152.028 38.3478 152.128 38.8829 152.11 39.4214C152.073 40.1047 151.861 40.7607 151.499 41.3086C151.118 41.8891 150.641 42.3794 150.095 42.7518C148.827 43.6313 147.358 44.0624 145.874 43.9902C144.867 44.0327 143.867 43.7763 142.973 43.2461C142.684 43.0815 142.438 42.8313 142.263 42.5219C142.087 42.2124 141.988 41.8551 141.976 41.4873C141.916 40.9721 142.02 40.4492 142.269 40.0136C142.519 39.5779 142.898 39.2583 143.337 39.1127C143.651 39.0088 143.979 38.9631 144.306 38.9774C144.736 38.9908 145.16 39.0906 145.558 39.2723C145.356 39.7809 145.243 40.3294 145.225 40.8871C145.209 41.999 145.557 42.5592 146.27 42.58C146.74 42.5911 147.197 42.4059 147.555 42.0597C147.727 41.9275 147.871 41.7538 147.976 41.5511C148.082 41.3484 148.147 41.1216 148.166 40.8871C148.186 40.4825 148.065 40.0853 147.83 39.7805C147.569 39.4441 147.263 39.1551 146.925 38.9236C146.558 38.6687 146.161 38.4172 145.739 38.1708C145.314 37.9273 144.914 37.6343 144.543 37.2966C144.13 36.9532 143.797 36.5021 143.57 35.9813C143.343 35.4605 143.23 34.8854 143.241 34.3046C143.234 33.5521 143.433 32.8159 143.81 32.1971C144.198 31.5704 144.704 31.0487 145.29 30.669C146.519 29.8433 147.937 29.4497 149.363 29.5381C150.503 29.5138 151.63 29.8182 152.638 30.4227C152.944 30.6067 153.197 30.8861 153.368 31.2282C153.539 31.5702 153.62 31.9606 153.602 32.3532C153.585 32.6791 153.498 32.9954 153.35 33.2749C153.202 33.5544 152.996 33.7887 152.75 33.9577C152.315 34.279 151.8 34.4334 151.282 34.3982C150.828 34.3813 150.379 34.2847 149.951 34.112V34.112Z" fill="white"/>
<path d="M153.719 41.919C153.798 41.2573 153.931 40.6053 154.115 39.9711C154.578 38.1325 155.051 36.2956 155.534 34.4605C155.147 34.4235 154.759 34.3888 154.371 34.3564C154.412 34.1517 154.452 33.9453 154.492 33.7406C156.208 33.3351 157.86 32.6332 159.39 31.6592L160.35 31.7771C160.116 32.5091 159.884 33.2411 159.655 33.9731C160.168 34.0355 160.683 34.1014 161.196 34.1708C161.104 34.4726 161.013 34.7744 160.923 35.0762C160.419 35.0103 159.913 34.9461 159.41 34.8854C158.901 36.7078 158.402 38.5326 157.913 40.3596C157.738 40.9092 157.604 41.4751 157.515 42.0508C157.463 42.3242 157.504 42.6098 157.631 42.8495C157.758 43.0893 157.96 43.2651 158.197 43.3413C158.104 43.575 157.971 43.785 157.805 43.9587C157.639 44.1325 157.443 44.2664 157.231 44.3525C156.706 44.5875 156.138 44.6715 155.577 44.5971C155.3 44.5864 155.029 44.5093 154.78 44.3709C154.532 44.2325 154.311 44.0359 154.134 43.794C153.789 43.2528 153.64 42.5814 153.719 41.919V41.919Z" fill="white"/>
<path d="M166.087 44.7549C165.626 45.1499 165.094 45.4232 164.529 45.5549C163.963 45.6867 163.379 45.6735 162.819 45.5164C162.097 45.4208 161.425 45.0439 160.92 44.4497C160.685 44.1939 160.505 43.8797 160.395 43.5318C160.285 43.1839 160.247 42.8118 160.285 42.4445C160.309 42.1321 160.361 41.8231 160.437 41.5218C161.113 39.1246 161.807 36.7321 162.52 34.3442C163.87 34.3963 165.221 34.4685 166.574 34.5611C165.742 37.1282 164.93 39.6999 164.138 42.2763C164.065 42.5068 164.01 42.7442 163.973 42.9857C163.874 43.7836 164.042 44.2155 164.479 44.2866C164.759 44.302 165.038 44.2292 165.285 44.0762C165.531 43.9232 165.736 43.6959 165.876 43.4193C166.029 43.189 166.148 42.9326 166.23 42.6596C167.021 40.2232 167.831 37.7948 168.661 35.3746C169.971 35.4786 171.281 35.6018 172.593 35.744C171.664 38.2984 170.757 40.8597 169.872 43.428C169.802 43.6291 169.751 43.8378 169.719 44.0507C169.686 44.2925 169.706 44.54 169.779 44.7705C169.834 44.9198 169.922 45.0513 170.032 45.1537C170.143 45.2562 170.274 45.3265 170.414 45.3586C170.283 45.6737 170.06 45.9267 169.782 46.0732C169.232 46.4118 168.6 46.5372 167.981 46.4305C167.494 46.3626 167.03 46.1516 166.636 45.8182C166.336 45.5605 166.139 45.1781 166.087 44.7549V44.7549Z" fill="white"/>
<path d="M179.727 37.4564C180.149 37.5624 180.556 37.7309 180.938 37.9577C180.963 37.9091 181.004 37.812 181.062 37.6715L181.295 37.0731C181.405 36.8164 181.549 36.4781 181.725 36.0549C181.944 35.5542 182.166 35.0523 182.389 34.5493C183.732 34.7875 185.075 35.0448 186.418 35.3212C184.747 38.9718 183.118 42.6421 181.532 46.332C181.493 46.4348 181.462 46.5409 181.439 46.6495L181.366 46.9721C181.297 47.2462 181.305 47.5377 181.389 47.8064C181.421 47.9263 181.481 48.0346 181.561 48.1209C181.641 48.2072 181.739 48.2685 181.847 48.299C181.624 48.5886 181.348 48.82 181.039 48.9772C180.73 49.1344 180.394 49.2137 180.056 49.2096C179.736 49.2084 179.417 49.1606 179.108 49.0674C178.746 48.9633 178.415 48.7561 178.144 48.4655C177.881 48.2079 177.717 47.8439 177.686 47.4508C177.393 47.7626 177.027 47.9732 176.633 48.0579C176.135 48.1623 175.623 48.144 175.132 48.0041C174.603 47.8787 174.093 47.6678 173.617 47.378C173.207 47.1359 172.859 46.7773 172.606 46.3372C172.157 45.2078 172.077 43.9337 172.38 42.7433C172.498 41.8249 172.787 40.9456 173.228 40.164C173.669 39.3825 174.251 38.7167 174.936 38.2109C175.646 37.7174 176.438 37.3956 177.263 37.2658C178.087 37.136 178.926 37.2009 179.727 37.4564V37.4564ZM179.338 38.6342C179.105 38.5705 178.861 38.5859 178.636 38.6784C178.411 38.7709 178.215 38.9365 178.072 39.1545C177.531 39.9611 177.082 40.8423 176.736 41.7771C176.24 42.9679 175.861 44.2167 175.603 45.5012C175.443 46.3291 175.584 46.7986 176.028 46.9096C176.231 46.9564 176.44 46.9455 176.639 46.878C176.837 46.8106 177.017 46.6886 177.164 46.5228C177.577 46.0893 177.899 45.5557 178.106 44.9617C178.854 43.0746 179.613 41.1909 180.382 39.3106C180.113 38.9552 179.744 38.7162 179.338 38.6342V38.6342Z" fill="white"/>
<path d="M187.795 50.1996C187.458 50.6262 187.012 50.9224 186.519 51.0468C186.026 51.1712 185.511 51.1176 185.047 50.8934C184.764 50.8119 184.5 50.6638 184.271 50.4589C184.042 50.2539 183.853 49.9966 183.717 49.7035C183.503 49.2796 183.437 48.7806 183.529 48.3037C183.996 46.7033 184.623 45.1692 185.398 43.7315C185.953 42.5104 186.513 41.2921 187.078 40.0768C188.414 40.3682 189.75 40.6804 191.086 41.0135C190.115 42.9654 189.159 44.9231 188.217 46.8866C187.881 47.4814 187.597 48.1116 187.368 48.7686C187.157 49.5214 187.31 49.9984 187.795 50.1996ZM188.128 37.4056C188.188 37.1563 188.308 36.9313 188.476 36.7566C188.643 36.5819 188.851 36.4647 189.075 36.4187C189.631 36.2843 190.208 36.3233 190.747 36.5314C191.277 36.6826 191.755 37.0099 192.121 37.4715C192.263 37.6596 192.358 37.8872 192.398 38.1311C192.437 38.3749 192.418 38.6262 192.344 38.8592C192.282 39.1019 192.162 39.3201 191.996 39.4885C191.831 39.657 191.627 39.7689 191.408 39.8114C190.865 39.926 190.305 39.8794 189.783 39.6761C189.262 39.5224 188.787 39.2107 188.409 38.7742C188.257 38.5969 188.15 38.3756 188.101 38.1344C188.051 37.8932 188.061 37.6412 188.128 37.4056V37.4056Z" fill="white"/>
<path d="M192.822 53.7312C190.211 52.6905 189.275 50.8658 190.041 48.1235C190.475 46.3368 191.513 44.8173 192.929 43.8964C193.705 43.4363 194.561 43.1776 195.436 43.1389C196.31 43.1002 197.182 43.2825 197.987 43.6726C199.119 44.0386 200.098 44.8534 200.746 45.9692C200.976 46.5084 201.095 47.1004 201.092 47.6996C201.089 48.2989 200.966 48.8895 200.731 49.4261C200.18 51.2621 199.014 52.7773 197.486 53.6428C196.755 54.0161 195.964 54.2164 195.162 54.2316C194.36 54.2468 193.564 54.0766 192.822 53.7312V53.7312ZM195.953 45.3846C195.648 45.7403 195.374 46.1302 195.138 46.5485C194.855 47.0307 194.511 47.6621 194.107 48.4426C193.668 49.3071 193.306 50.2194 193.026 51.1658C192.927 51.4541 192.891 51.7654 192.921 52.073C192.941 52.2068 192.995 52.331 193.076 52.4303C193.158 52.5295 193.263 52.5995 193.379 52.6315C193.614 52.7394 193.874 52.7588 194.12 52.687C194.386 52.5803 194.624 52.3961 194.808 52.1528C195.372 51.4473 195.868 50.6757 196.288 49.8511C196.696 49.1268 197.062 48.3736 197.385 47.5962C197.56 47.1209 197.706 46.7063 197.822 46.349C197.932 46.0477 197.979 45.7221 197.961 45.3968C197.947 45.257 197.895 45.1256 197.813 45.02C197.731 44.9144 197.623 44.8395 197.503 44.8053C197.25 44.6895 196.967 44.6839 196.711 44.7897C196.425 44.9272 196.167 45.1296 195.953 45.3846V45.3846Z" fill="white"/>
<defs>
<linearGradient id="paint0_linear" x1="0" y1="0" x2="440" y2="660" gradientUnits="userSpaceOnUse">
<stop stop-color="#A6B0D3" stop-opacity="0.24"/>
<stop offset="1" stop-color="#A6B0D3"/>
</linearGradient>
<linearGradient id="paint1_linear" x1="4.78761e-06" y1="0.999997" x2="441" y2="660" gradientUnits="userSpaceOnUse">
<stop offset="0.458333" stop-color="#459FB3"/>
<stop offset="1" stop-color="#3D6F7E" stop-opacity="0"/>
</linearGradient>
</defs>
</svg>
