<svg width="65" height="60" viewBox="0 0 65 60" fill="none" xmlns="http://www.w3.org/2000/svg">
<path d="M55.297 52.8233C55.0742 52.8233 54.8481 52.7534 54.653 52.608C54.1552 52.2404 54.0399 51.5258 54.3969 51.0105C62.5158 39.2922 61.2365 23.377 51.3551 13.1692C40.2675 1.7154 22.2272 1.7154 11.1396 13.1692C1.27035 23.3655 -0.0166611 39.2693 8.07786 50.9853C8.4337 51.4995 8.31841 52.2152 7.82068 52.5817C7.32073 52.9492 6.63011 52.8302 6.27317 52.316C-2.45433 39.6862 -1.06755 22.5422 9.57106 11.5511C21.5222 -0.79591 40.9703 -0.79591 52.9214 11.5511C63.5733 22.5548 64.9524 39.7114 56.1982 52.3446C55.9832 52.6561 55.6418 52.8233 55.297 52.8233Z" fill="#5B6165"/>
<path d="M55.2959 53.3959C54.9456 53.3959 54.6097 53.2836 54.327 53.0718C53.969 52.8073 53.7295 52.411 53.6575 51.9587C53.5843 51.5064 53.6863 51.0518 53.9457 50.6773C61.9061 39.1869 60.6512 23.5831 50.9626 13.5745C45.7048 8.14312 38.7022 5.15199 31.2473 5.15199C23.7902 5.15199 16.7887 8.14312 11.532 13.5745C1.85563 23.5705 0.591903 39.164 8.53012 50.651C8.7873 51.0243 8.88929 51.4789 8.81723 51.9312C8.74407 52.3847 8.50463 52.7798 8.14324 53.0466C7.39609 53.5951 6.35739 53.4165 5.82419 52.6469C-3.06294 39.7881 -1.65066 22.3338 9.17972 11.1445C15.0649 5.06496 22.9012 1.71655 31.2473 1.71655C39.5924 1.71655 47.4297 5.06496 53.3138 11.1445C64.1586 22.3475 65.562 39.8144 56.6494 52.6767C56.3412 53.1268 55.8346 53.3959 55.2959 53.3959ZM31.2462 4.00685C38.9982 4.00685 46.2791 7.11706 51.7452 12.7649C61.8196 23.172 63.1244 39.3965 54.8458 51.3438C54.7605 51.4674 54.7261 51.6197 54.7505 51.7698C54.7738 51.9209 54.8547 52.0526 54.9744 52.1408C55.0941 52.2313 55.215 52.2496 55.2959 52.2496C55.4755 52.2496 55.6429 52.1603 55.7448 52.0114C64.3415 39.6049 62.988 22.7598 52.529 11.9542C46.8533 6.09101 39.2953 2.8617 31.2462 2.8617C23.196 2.8617 15.638 6.09101 9.96235 11.9542C-0.483376 22.7472 -1.84466 39.5808 6.72432 51.9828C6.90168 52.2404 7.25087 52.3011 7.49808 52.1156C7.6178 52.0274 7.69761 51.8957 7.722 51.7446C7.74528 51.5946 7.71202 51.4422 7.62667 51.3186C-0.627485 39.3724 0.685021 23.1594 10.7472 12.7649C16.2145 7.11821 23.4931 4.00685 31.2462 4.00685Z" fill="#5B8491"/>
<path d="M52.1376 15.2236C51.4282 15.2236 50.7198 14.9442 50.1778 14.3853C39.7387 3.60149 22.7526 3.60149 12.3135 14.3853C11.2316 15.5041 9.47568 15.5041 8.39486 14.3853C7.31182 13.2677 7.31182 11.4549 8.39486 10.3372C20.9945 -2.67964 41.4968 -2.67964 54.0975 10.3372C55.1795 11.4549 55.1795 13.2677 54.0975 14.3853C53.5577 14.9442 52.8471 15.2236 52.1376 15.2236Z" fill="#00A8D4"/>
<path d="M52.3982 14.3842C46.8965 8.70082 39.578 6.04408 32.357 6.35098C38.8386 6.62581 45.2415 9.28369 50.1789 14.3842C50.7199 14.943 51.4293 15.2224 52.1388 15.2224C52.5179 15.2224 52.8959 15.1365 53.2484 14.9762C52.9403 14.8388 52.6487 14.6453 52.3982 14.3842Z" fill="#477682"/>
<path d="M10.6141 14.3842C9.53111 13.2666 9.53111 11.4538 10.6141 10.3361C16.6324 4.11798 24.4531 0.878357 32.3558 0.601231C23.7137 0.296622 14.9762 3.53739 8.39486 10.3361C7.31182 11.4538 7.31182 13.2666 8.39486 14.3842C9.22515 15.2419 10.4501 15.4355 11.4644 14.9774C11.1573 14.8388 10.8658 14.6453 10.6141 14.3842Z" fill="#477682"/>
<path d="M52.2075 15.7962C51.3182 15.7962 50.4811 15.4389 49.8526 14.7896C39.6139 4.23017 22.9546 4.22903 12.7148 14.7896C11.4569 16.0882 9.263 16.0882 8.00509 14.7896C7.37668 14.1414 7.02917 13.2791 7.02917 12.3607C7.02917 11.4423 7.37668 10.58 8.00509 9.93071C14.2136 3.52705 22.4816 0 31.2848 0C40.0891 0 48.356 3.52705 54.5634 9.93071C55.1918 10.58 55.5393 11.4423 55.5393 12.3607C55.5393 13.2791 55.1918 14.1414 54.5634 14.7896C53.935 15.4389 53.0979 15.7962 52.2075 15.7962ZM31.2837 5.72459C38.2927 5.72459 45.3017 8.47637 50.6376 13.9799C51.4769 14.8457 52.9403 14.8434 53.7774 13.9799C54.1971 13.5471 54.428 12.9722 54.428 12.3607C54.428 11.7492 54.1971 11.1732 53.7774 10.7403C47.7798 4.5531 39.7904 1.14515 31.2837 1.14515C22.777 1.14515 14.7887 4.5531 8.78892 10.7403C8.36925 11.1732 8.13832 11.7481 8.13832 12.3607C8.13832 12.9734 8.36925 13.5471 8.78892 13.9799C9.62827 14.8457 11.0894 14.8457 11.9287 13.9799C17.2646 8.47637 24.2747 5.72459 31.2837 5.72459Z" fill="#3B6573"/>
<path d="M9.47239 39.172L6.33523 39.5339C5.13469 39.7549 4.15253 40.9676 4.15253 42.2284V52.6916C4.15253 53.9524 5.13469 55.164 6.33523 55.385L9.47239 55.748V39.172Z" fill="#00A8D4"/>
<path d="M6.37181 54.9831V44.5199C6.37181 43.2591 7.35398 42.0475 8.55452 41.8253L9.47239 41.7188V39.1709L6.33523 39.5339C5.13469 39.7549 4.15253 40.9676 4.15253 42.2284V52.6916C4.15253 53.9525 5.13469 55.164 6.33523 55.385L6.41061 55.3942C6.38844 55.2579 6.37181 55.1216 6.37181 54.9831Z" fill="#BBD6FF"/>
<path d="M9.47239 56.3217C9.45133 56.3217 9.43138 56.3206 9.41031 56.3183L6.27316 55.9553C4.78218 55.6804 3.59827 54.2192 3.59827 52.6916V42.2284C3.59827 40.7008 4.78218 39.2396 6.23769 38.9705L9.41031 38.6029C9.5644 38.5846 9.72292 38.6361 9.84154 38.746C9.95904 38.8548 10.0267 39.0094 10.0267 39.1732V55.7492C10.0267 55.9118 9.95904 56.0675 9.84154 56.1763C9.73955 56.2702 9.60763 56.3217 9.47239 56.3217ZM8.91813 39.8121L6.39732 40.103C5.49719 40.2702 4.70791 41.2459 4.70791 42.2273V52.6905C4.70791 53.673 5.4983 54.6475 6.4339 54.8204L8.91923 55.1067V39.8121H8.91813Z" fill="#3B6573"/>
<path d="M16.128 56.6092C16.128 57.8688 15.1303 58.8995 13.9109 58.8995H11.6894C10.47 58.8995 9.47235 57.8688 9.47235 56.6092V38.312C9.47235 37.0512 10.47 36.0217 11.6894 36.0217H13.9109C15.1303 36.0217 16.128 37.0512 16.128 38.312V56.6092Z" fill="#00A8D4"/>
<path d="M11.6916 40.6046C11.6916 39.3438 12.6893 38.3143 13.9087 38.3143H16.128V38.3132C16.128 37.0524 15.1303 36.0229 13.9109 36.0229H11.6894C10.47 36.0229 9.47235 37.0524 9.47235 38.3132V56.6103C9.47235 57.87 10.47 58.9006 11.6894 58.9006H11.6916V40.6046Z" fill="#97D6EA"/>
<path d="M13.9098 59.472H11.6883C10.1597 59.472 8.91699 58.1872 8.91699 56.6092V38.312C8.91699 36.734 10.1597 35.4492 11.6883 35.4492H13.9098C15.4385 35.4492 16.6812 36.734 16.6812 38.312V56.6092C16.6812 58.1872 15.4385 59.472 13.9098 59.472ZM11.6894 36.5943C10.7727 36.5943 10.0266 37.365 10.0266 38.312V56.6092C10.0266 57.5562 10.7727 58.3269 11.6894 58.3269H13.9109C14.8277 58.3269 15.5737 57.5562 15.5737 56.6092V38.312C15.5737 37.365 14.8277 36.5943 13.9109 36.5943H11.6894Z" fill="#3B6573"/>
<path d="M53.3737 36.0217C52.2131 36.0217 47.8776 36.0217 46.7169 36.0217C40.6012 36.0217 35.6449 41.1428 35.6449 47.4606C35.6449 53.7784 40.6023 58.8995 46.7169 58.8995H53.3737C59.4895 58.8995 64.4457 53.7784 64.4457 47.4606C64.4468 41.1428 59.4895 36.0217 53.3737 36.0217Z" fill="#00A8D4"/>
<path d="M53.3737 59.472H46.7181C40.3063 59.472 35.0906 54.0841 35.0906 47.4606C35.0906 40.8371 40.3063 35.4492 46.7181 35.4492H53.3737C59.7844 35.4492 65 40.8371 65 47.4606C65 54.0841 59.7844 59.472 53.3737 59.472ZM46.7181 36.5943C40.9182 36.5943 36.1992 41.4692 36.1992 47.4606C36.1992 53.452 40.9182 58.3269 46.7181 58.3269H53.3737C59.1725 58.3269 63.8915 53.452 63.8915 47.4606C63.8915 41.4692 59.1725 36.5943 53.3737 36.5943H46.7181Z" fill="#3B6573"/>
<path d="M57.7912 47.4606C57.7912 53.7784 52.8327 58.8995 46.718 58.8995C40.6034 58.8995 35.646 53.7784 35.646 47.4606C35.646 41.1428 40.6034 36.0217 46.718 36.0217C52.8327 36.0217 57.7912 41.1428 57.7912 47.4606Z" fill="#97D6EA"/>
<path d="M37.8631 47.4606C37.8631 41.5299 42.2318 36.655 47.8266 36.0801C47.4619 36.0423 47.0916 36.0217 46.7169 36.0217C40.6012 36.0217 35.6449 41.1428 35.6449 47.4606C35.6449 53.7784 40.6023 58.8995 46.7169 58.8995C47.0916 58.8995 47.4619 58.8789 47.8266 58.8411C42.2329 58.2662 37.8631 53.3902 37.8631 47.4606Z" fill="#8399A3"/>
<path d="M46.7181 59.472C40.3063 59.472 35.0906 54.0841 35.0906 47.4606C35.0906 40.8371 40.3063 35.4492 46.7181 35.4492C53.1287 35.4492 58.3444 40.8371 58.3444 47.4606C58.3444 54.0841 53.1287 59.472 46.7181 59.472ZM46.7181 36.5943C40.9182 36.5943 36.1992 41.4692 36.1992 47.4606C36.1992 53.452 40.9182 58.3269 46.7181 58.3269C52.5168 58.3269 57.2358 53.452 57.2358 47.4606C57.2358 41.4692 52.5179 36.5943 46.7181 36.5943Z" fill="#3B6573"/>
<path d="M53.2639 47.4606C53.2639 51.1949 50.3329 54.2227 46.718 54.2227C43.1031 54.2227 40.1721 51.1949 40.1721 47.4606C40.1721 43.7263 43.1042 40.6985 46.718 40.6985C50.3329 40.6985 53.2639 43.7263 53.2639 47.4606Z" fill="#83B8C9"/>
<path d="M42.3903 47.4606C42.3903 44.1179 44.7415 41.3478 47.8266 40.8027C47.4652 40.7386 47.096 40.6985 46.7169 40.6985C43.102 40.6985 40.171 43.7263 40.171 47.4606C40.171 51.1949 43.1031 54.2227 46.7169 54.2227C47.096 54.2227 47.4652 54.1826 47.8266 54.1185C44.7415 53.5734 42.3903 50.8033 42.3903 47.4606Z" fill="#8399A3"/>
<path d="M46.718 54.7952C42.8027 54.7952 39.6168 51.5041 39.6168 47.4606C39.6168 43.4171 42.8027 40.1259 46.718 40.1259C50.6323 40.1259 53.8171 43.4171 53.8171 47.4606C53.8171 51.5041 50.6323 54.7952 46.718 54.7952ZM46.718 41.2711C43.4135 41.2711 40.7253 44.048 40.7253 47.4606C40.7253 50.8731 43.4135 53.6501 46.718 53.6501C50.0204 53.6501 52.7086 50.8731 52.7086 47.4606C52.7086 44.048 50.0215 41.2711 46.718 41.2711Z" fill="#3B6573"/>
</svg>
