<svg width="356" height="58" viewBox="0 0 356 58" fill="none" xmlns="http://www.w3.org/2000/svg">
<rect width="356" height="58" rx="29" fill="#FCA727"/>
<path d="M25.5315 50.2666H19.028C18.7049 50.2666 18.3966 50.1333 18.1783 49.8991C17.96 49.665 17.8517 49.3515 17.8799 49.0351L20.6559 17.8469C20.7081 17.2618 21.2065 16.8129 21.804 16.8129H36.9154C39.6574 16.8129 42.1491 17.8659 43.9317 19.7782C45.7229 21.6996 46.5767 24.2485 46.3357 26.9554C46.0987 29.6178 44.826 32.1166 42.7517 33.9914C40.6764 35.8672 38.0404 36.9004 35.3292 36.9004H27.7773L26.6797 49.2327C26.6275 49.8177 26.1291 50.2666 25.5315 50.2666V50.2666Z" fill="#283F7A"/>
<path d="M36.9148 16.8129H29.0879V36.9003H35.3286C38.0398 36.9003 40.6758 35.8672 42.7511 33.9914C44.8253 32.1166 46.0981 29.6177 46.3351 26.9553C46.576 24.2484 45.7222 21.6995 43.9311 19.7781C42.1485 17.866 39.6567 16.8129 36.9148 16.8129V16.8129Z" fill="#42516C"/>
<path d="M19.4568 45.0538H12.9533C12.6302 45.0538 12.3219 44.9204 12.1036 44.6863C11.8853 44.4521 11.777 44.1387 11.8052 43.8223L14.5812 12.634C14.6334 12.0489 15.1317 11.6 15.7293 11.6H30.8407C33.5827 11.6 36.0745 12.653 37.8571 14.5654C39.6482 16.4867 40.5021 19.0356 40.2611 21.7424C40.0241 24.4049 38.7513 26.9037 36.6771 28.7785C34.6018 30.6543 31.9658 31.6875 29.2546 31.6875H21.7026L20.605 44.0198C20.5527 44.6048 20.0543 45.0538 19.4568 45.0538V45.0538Z" fill="#23394F"/>
<path d="M30.8409 11.6H29.0879V31.6874H29.2548C31.9659 31.6874 34.6021 30.6543 36.6773 28.7785C38.7515 26.9036 40.0243 24.4048 40.2613 21.7423C40.5022 19.0355 39.6484 16.4866 37.8573 14.5653C36.0747 12.653 33.5828 11.6 30.8409 11.6V11.6Z" fill="#2E4E8B"/>
<path d="M21.8021 16.8127C21.2046 16.8127 20.7061 17.2616 20.654 17.8467L18.2324 45.0536H19.4559C20.0534 45.0536 20.5518 44.6047 20.6039 44.0196L21.7015 31.6873H29.2535C31.9647 31.6873 34.6008 30.6542 36.6761 28.7784C38.7503 26.9035 40.0231 24.4047 40.2601 21.7422C40.4041 20.1235 40.1564 18.5615 39.5512 17.1562C38.7109 16.93 37.8262 16.8126 36.9135 16.8126H21.8021V16.8127Z" fill="#2E4E8B"/>
<path d="M36.9148 16.8129H29.0879V31.6874H29.2548C31.9659 31.6874 34.6021 30.6543 36.6773 28.7785C38.7515 26.9037 40.0243 24.4049 40.2613 21.7424C40.4054 20.1237 40.1577 18.5617 39.5524 17.1563C38.7122 16.9302 37.8275 16.8129 36.9148 16.8129V16.8129Z" fill="#283F7A"/>
<path d="M66.2407 30.5653C66.6567 30.8693 66.8647 31.3493 66.8647 32.0053C66.8647 32.6453 66.7207 33.1973 66.4327 33.6613C66.1607 34.1093 65.7527 34.5093 65.2087 34.8613C64.0407 35.6133 62.4327 35.9893 60.3847 35.9893C58.3527 35.9893 56.7767 35.4613 55.6567 34.4053C54.5527 33.3333 54.0007 31.8533 54.0007 29.9653C54.0007 27.2933 54.6967 24.9413 56.0887 22.9093C57.1447 21.4053 58.6167 20.3333 60.5047 19.6933C61.4807 19.3733 62.4487 19.2133 63.4087 19.2133C64.3687 19.2133 65.1447 19.2773 65.7367 19.4053C66.3287 19.5333 66.8487 19.7253 67.2967 19.9813C68.2727 20.5413 68.7607 21.2693 68.7607 22.1653C68.7607 22.9813 68.3767 23.6933 67.6087 24.3013C66.9047 24.8453 66.2647 25.1173 65.6887 25.1173C65.1127 25.1173 64.7047 25.0773 64.4647 24.9973C64.5287 24.4213 64.5607 23.9493 64.5607 23.5813C64.5607 23.1973 64.5527 22.8693 64.5367 22.5973C64.5207 22.3253 64.4727 22.0613 64.3927 21.8053C64.2327 21.2133 63.9047 20.9173 63.4087 20.9173C62.9287 20.9173 62.4407 21.1493 61.9447 21.6133C61.4647 22.0613 61.0167 22.6693 60.6007 23.4373C59.6567 25.1813 59.1847 27.0853 59.1847 29.1493C59.1847 30.1413 59.4647 30.9253 60.0247 31.5013C60.5847 32.0613 61.4647 32.3413 62.6647 32.3413C63.5607 32.3413 64.4327 32.0453 65.2807 31.4533C65.6487 31.1973 65.9687 30.9013 66.2407 30.5653ZM74.0853 36.0133C70.5653 36.0133 68.8053 34.3573 68.8053 31.0453C68.8053 28.6933 69.4533 26.7573 70.7493 25.2373C72.1253 23.6213 74.0053 22.8133 76.3893 22.8133C78.1173 22.8133 79.4213 23.2133 80.3013 24.0133C81.1813 24.8133 81.6213 26.0533 81.6213 27.7333C81.6213 30.2933 80.9333 32.3173 79.5573 33.8053C78.2133 35.2773 76.3893 36.0133 74.0853 36.0133ZM74.7093 25.5733C74.5173 26.0053 74.3413 26.5493 74.1813 27.2053C74.0373 27.8453 73.8693 28.6773 73.6773 29.7013C73.4853 30.7253 73.3893 31.8693 73.3893 33.1333C73.3893 33.5493 73.4533 33.8933 73.5813 34.1653C73.7253 34.4373 73.9813 34.5733 74.3493 34.5733C74.7173 34.5733 75.0133 34.4853 75.2373 34.3093C75.4773 34.1333 75.6853 33.8373 75.8613 33.4213C76.1813 32.6853 76.4693 31.6373 76.7253 30.2773C76.9813 28.9013 77.1173 27.9173 77.1333 27.3253C77.1653 26.7333 77.1813 26.2213 77.1813 25.7893C77.1813 25.3413 77.1173 24.9733 76.9893 24.6853C76.8613 24.3973 76.6133 24.2533 76.2453 24.2533C75.8933 24.2533 75.5973 24.3653 75.3573 24.5893C75.1173 24.8133 74.9013 25.1413 74.7093 25.5733ZM88.769 34.2133C88.273 35.4133 87.233 36.0133 85.649 36.0133C84.849 36.0133 84.193 35.7333 83.681 35.1733C83.265 34.7093 83.057 34.2133 83.057 33.6853C83.057 32.4853 83.337 30.5733 83.897 27.9493L85.649 18.7333L90.521 18.2533L88.193 30.3973C87.921 31.5813 87.785 32.3813 87.785 32.7973C87.785 33.7093 88.113 34.1813 88.769 34.2133ZM91.8463 34.8133C91.4783 34.3973 91.2063 33.8613 91.0303 33.2053C90.8703 32.5493 90.7903 31.6853 90.7903 30.6133C90.7903 29.5413 90.9743 28.5173 91.3423 27.5413C91.7103 26.5653 92.2303 25.7253 92.9023 25.0213C94.2783 23.5493 96.1023 22.8133 98.3743 22.8133C99.1903 22.8133 99.8943 22.9493 100.486 23.2213L104.59 22.8133L102.814 32.1733C102.766 32.3653 102.742 32.6373 102.742 32.9893C102.742 33.3413 102.846 33.6293 103.054 33.8533C103.278 34.0773 103.55 34.2053 103.87 34.2373C103.71 34.7813 103.334 35.2133 102.742 35.5333C102.166 35.8533 101.55 36.0133 100.894 36.0133C100.238 36.0133 99.6863 35.8853 99.2383 35.6293C98.8063 35.3893 98.5263 35.0613 98.3983 34.6453C98.1423 35.0453 97.7423 35.3733 97.1983 35.6293C96.6543 35.8853 96.0143 36.0133 95.2783 36.0133C94.5583 36.0133 93.9023 35.9173 93.3103 35.7253C92.7183 35.5333 92.2303 35.2293 91.8463 34.8133ZM96.9103 25.0693C96.7343 25.3573 96.5663 25.7493 96.4062 26.2453C96.2463 26.7253 96.0303 27.6213 95.7583 28.9333C95.5023 30.2293 95.3743 31.3413 95.3743 32.2693C95.3743 33.1973 95.4463 33.7973 95.5903 34.0693C95.7343 34.3413 95.9343 34.4773 96.1903 34.4773C96.7023 34.4773 97.1423 34.2373 97.5103 33.7573C97.8943 33.2613 98.1583 32.5813 98.3023 31.7173L99.5743 24.6853C99.2383 24.3973 98.8703 24.2533 98.4703 24.2533C98.0863 24.2533 97.7743 24.3173 97.5343 24.4453C97.3103 24.5733 97.1023 24.7813 96.9103 25.0693ZM105.573 34.3813L108.549 18.7333L113.421 18.2533L112.677 21.9253C112.501 22.6773 112.301 23.3173 112.077 23.8453C112.429 23.3973 112.989 23.0853 113.757 22.9093C113.981 22.8453 114.229 22.8133 114.501 22.8133C115.989 22.8133 117.141 23.2693 117.957 24.1813C118.773 25.0773 119.181 26.3973 119.181 28.1413C119.181 30.4133 118.533 32.2613 117.237 33.6853C115.845 35.2373 113.885 36.0133 111.357 36.0133C109.613 36.0133 108.085 35.7253 106.773 35.1493C106.309 34.9413 105.909 34.6853 105.573 34.3813ZM110.397 34.1653C110.733 34.4533 111.109 34.5973 111.525 34.5973C111.941 34.5973 112.269 34.5173 112.509 34.3573C112.749 34.1973 112.957 33.9573 113.133 33.6373C113.613 32.7733 114.045 31.0213 114.429 28.3813C114.541 27.6293 114.597 26.8773 114.597 26.1253C114.597 25.3733 114.509 24.8773 114.333 24.6373C114.173 24.3973 113.933 24.2773 113.613 24.2773C112.637 24.2773 111.989 25.2293 111.669 27.1333L110.397 34.1653ZM125.859 36.0133C122.339 36.0133 120.579 34.3573 120.579 31.0453C120.579 28.6933 121.227 26.7573 122.523 25.2373C123.899 23.6213 125.779 22.8133 128.163 22.8133C129.891 22.8133 131.195 23.2133 132.075 24.0133C132.955 24.8133 133.395 26.0533 133.395 27.7333C133.395 30.2933 132.707 32.3173 131.331 33.8053C129.987 35.2773 128.163 36.0133 125.859 36.0133ZM126.483 25.5733C126.291 26.0053 126.115 26.5493 125.955 27.2053C125.811 27.8453 125.643 28.6773 125.451 29.7013C125.259 30.7253 125.163 31.8693 125.163 33.1333C125.163 33.5493 125.227 33.8933 125.355 34.1653C125.499 34.4373 125.755 34.5733 126.123 34.5733C126.491 34.5733 126.787 34.4853 127.011 34.3093C127.251 34.1333 127.459 33.8373 127.635 33.4213C127.955 32.6853 128.243 31.6373 128.499 30.2773C128.755 28.9013 128.891 27.9173 128.907 27.3253C128.939 26.7333 128.955 26.2213 128.955 25.7893C128.955 25.3413 128.891 24.9733 128.763 24.6853C128.635 24.3973 128.387 24.2533 128.019 24.2533C127.667 24.2533 127.371 24.3653 127.131 24.5893C126.891 24.8133 126.675 25.1413 126.483 25.5733ZM142.318 28.7893C142.894 27.7653 143.182 26.7333 143.182 25.6933C143.182 25.0053 142.934 24.6613 142.438 24.6613C142.054 24.6613 141.662 24.9893 141.262 25.6453C140.846 26.3013 140.574 27.0533 140.446 27.9013L139.198 35.5333L134.23 36.0133L136.678 23.2933L140.638 22.8133L140.206 25.2373C140.99 23.6213 142.262 22.8133 144.022 22.8133C144.95 22.8133 145.662 23.0533 146.158 23.5333C146.67 24.0133 146.926 24.7493 146.926 25.7413C146.926 26.7173 146.598 27.5173 145.942 28.1413C145.302 28.7653 144.43 29.0773 143.326 29.0773C142.846 29.0773 142.51 28.9813 142.318 28.7893ZM148.354 34.8133C147.986 34.3973 147.714 33.8613 147.538 33.2053C147.378 32.5493 147.298 31.6853 147.298 30.6133C147.298 29.5413 147.482 28.5173 147.85 27.5413C148.218 26.5653 148.738 25.7253 149.41 25.0213C150.786 23.5493 152.61 22.8133 154.882 22.8133C155.698 22.8133 156.402 22.9493 156.994 23.2213L161.098 22.8133L159.322 32.1733C159.274 32.3653 159.25 32.6373 159.25 32.9893C159.25 33.3413 159.354 33.6293 159.562 33.8533C159.786 34.0773 160.058 34.2053 160.378 34.2373C160.218 34.7813 159.842 35.2133 159.25 35.5333C158.674 35.8533 158.058 36.0133 157.402 36.0133C156.746 36.0133 156.194 35.8853 155.746 35.6293C155.314 35.3893 155.034 35.0613 154.906 34.6453C154.65 35.0453 154.25 35.3733 153.706 35.6293C153.162 35.8853 152.522 36.0133 151.786 36.0133C151.066 36.0133 150.41 35.9173 149.818 35.7253C149.226 35.5333 148.738 35.2293 148.354 34.8133ZM153.418 25.0693C153.242 25.3573 153.074 25.7493 152.914 26.2453C152.754 26.7253 152.538 27.6213 152.266 28.9333C152.01 30.2293 151.882 31.3413 151.882 32.2693C151.882 33.1973 151.954 33.7973 152.098 34.0693C152.242 34.3413 152.442 34.4773 152.698 34.4773C153.21 34.4773 153.65 34.2373 154.018 33.7573C154.402 33.2613 154.666 32.5813 154.81 31.7173L156.082 24.6853C155.746 24.3973 155.378 24.2533 154.978 24.2533C154.594 24.2533 154.282 24.3173 154.042 24.4453C153.818 24.5733 153.61 24.7813 153.418 25.0693ZM179.122 25.5493C179.122 26.2213 178.842 26.7653 178.282 27.1813C177.722 27.5973 176.986 27.8053 176.074 27.8053C175.69 27.8053 175.386 27.7493 175.162 27.6373C175.338 27.2213 175.45 26.7573 175.498 26.2453C175.562 25.7173 175.594 25.3813 175.594 25.2373C175.594 24.5653 175.362 24.2293 174.898 24.2293C174.578 24.2293 174.234 24.4293 173.866 24.8293C173.514 25.2293 173.186 25.7413 172.882 26.3653C172.21 27.8053 171.874 29.2533 171.874 30.7093C171.874 31.5093 172.026 32.0933 172.33 32.4613C172.634 32.8133 173.122 32.9893 173.794 32.9893C174.722 32.9893 175.554 32.6053 176.29 31.8373C176.498 31.5973 176.658 31.3413 176.77 31.0693C177.378 31.3893 177.682 31.9893 177.682 32.8693C177.682 33.7653 177.186 34.5093 176.194 35.1013C175.17 35.7093 173.842 36.0133 172.21 36.0133C168.962 36.0133 167.338 34.2933 167.338 30.8533C167.338 28.3413 168.05 26.3653 169.474 24.9253C170.85 23.5173 172.802 22.8133 175.33 22.8133C177.858 22.8133 179.122 23.7253 179.122 25.5493ZM184.992 36.0133C181.472 36.0133 179.712 34.3573 179.712 31.0453C179.712 28.6933 180.36 26.7573 181.656 25.2373C183.032 23.6213 184.912 22.8133 187.296 22.8133C189.024 22.8133 190.328 23.2133 191.208 24.0133C192.088 24.8133 192.528 26.0533 192.528 27.7333C192.528 30.2933 191.84 32.3173 190.464 33.8053C189.12 35.2773 187.296 36.0133 184.992 36.0133ZM185.616 25.5733C185.424 26.0053 185.248 26.5493 185.088 27.2053C184.944 27.8453 184.776 28.6773 184.584 29.7013C184.392 30.7253 184.296 31.8693 184.296 33.1333C184.296 33.5493 184.36 33.8933 184.488 34.1653C184.632 34.4373 184.888 34.5733 185.256 34.5733C185.624 34.5733 185.92 34.4853 186.144 34.3093C186.384 34.1333 186.592 33.8373 186.768 33.4213C187.088 32.6853 187.376 31.6373 187.632 30.2773C187.888 28.9013 188.024 27.9173 188.04 27.3253C188.072 26.7333 188.088 26.2213 188.088 25.7893C188.088 25.3413 188.024 24.9733 187.896 24.6853C187.768 24.3973 187.52 24.2533 187.152 24.2533C186.8 24.2533 186.504 24.3653 186.264 24.5893C186.024 24.8133 185.808 25.1413 185.616 25.5733ZM204.091 36.0133C202.155 36.0133 201.187 35.2613 201.187 33.7573C201.203 33.3413 201.275 32.7813 201.403 32.0773L201.835 29.8693C202.267 27.7893 202.483 26.5173 202.483 26.0533C202.483 25.1253 202.211 24.6613 201.667 24.6613C200.755 24.6613 200.059 25.8533 199.579 28.2373L198.163 35.5333L193.339 36.0133L195.835 23.2693L199.771 22.8133L199.387 25.1653C200.139 23.5973 201.667 22.8133 203.971 22.8133C205.091 22.8133 205.883 23.0533 206.347 23.5333C206.827 23.9973 207.067 24.7573 207.067 25.8133C207.067 26.8053 206.811 28.4613 206.299 30.7813C206.059 31.8213 205.939 32.5413 205.939 32.9413C205.939 33.3253 206.043 33.6293 206.251 33.8533C206.475 34.0773 206.747 34.2053 207.067 34.2373C206.907 34.7813 206.547 35.2133 205.987 35.5333C205.443 35.8533 204.811 36.0133 204.091 36.0133ZM224.083 36.0133C222.147 36.0133 221.179 35.2613 221.179 33.7573C221.195 33.3413 221.267 32.7813 221.395 32.0773L221.827 29.8693C222.259 27.7893 222.475 26.5173 222.475 26.0533C222.475 25.1253 222.203 24.6613 221.659 24.6613C220.747 24.6613 220.051 25.8533 219.571 28.2373L218.155 35.5333L213.331 36.0133L215.827 23.2693L219.763 22.8133L219.379 25.1653C220.131 23.5973 221.659 22.8133 223.963 22.8133C225.083 22.8133 225.875 23.0533 226.339 23.5333C226.819 23.9973 227.059 24.7573 227.059 25.8133C227.059 26.8053 226.803 28.4613 226.291 30.7813C226.051 31.8213 225.931 32.5413 225.931 32.9413C225.931 33.3253 226.035 33.6293 226.243 33.8533C226.467 34.0773 226.739 34.2053 227.059 34.2373C226.899 34.7813 226.539 35.2133 225.979 35.5333C225.435 35.8533 224.803 36.0133 224.083 36.0133ZM234.21 36.0133C230.69 36.0133 228.93 34.3573 228.93 31.0453C228.93 28.6933 229.578 26.7573 230.874 25.2373C232.25 23.6213 234.13 22.8133 236.514 22.8133C238.242 22.8133 239.546 23.2133 240.426 24.0133C241.306 24.8133 241.746 26.0533 241.746 27.7333C241.746 30.2933 241.058 32.3173 239.682 33.8053C238.338 35.2773 236.514 36.0133 234.21 36.0133ZM234.834 25.5733C234.642 26.0053 234.466 26.5493 234.306 27.2053C234.162 27.8453 233.994 28.6773 233.802 29.7013C233.61 30.7253 233.514 31.8693 233.514 33.1333C233.514 33.5493 233.578 33.8933 233.706 34.1653C233.85 34.4373 234.106 34.5733 234.474 34.5733C234.842 34.5733 235.138 34.4853 235.362 34.3093C235.602 34.1333 235.81 33.8373 235.986 33.4213C236.306 32.6853 236.594 31.6373 236.85 30.2773C237.106 28.9013 237.242 27.9173 237.258 27.3253C237.29 26.7333 237.306 26.2213 237.306 25.7893C237.306 25.3413 237.242 24.9733 237.114 24.6853C236.986 24.3973 236.738 24.2533 236.37 24.2533C236.018 24.2533 235.722 24.3653 235.482 24.5893C235.242 24.8133 235.026 25.1413 234.834 25.5733ZM250.334 27.1093C250.558 26.5173 250.67 25.9653 250.67 25.4533C250.67 24.5093 250.286 24.0373 249.518 24.0373C249.118 24.0373 248.75 24.2213 248.414 24.5893C248.094 24.9413 247.934 25.3413 247.934 25.7893C247.934 26.1093 248.062 26.3973 248.318 26.6533C248.686 27.0053 249.342 27.4693 250.286 28.0453C251.23 28.6213 251.878 29.1493 252.23 29.6293C252.598 30.0933 252.782 30.6533 252.782 31.3093C252.782 31.9493 252.622 32.5653 252.302 33.1573C251.998 33.7493 251.566 34.2533 251.006 34.6693C249.806 35.5653 248.246 36.0133 246.326 36.0133C245.286 36.0133 244.366 35.7413 243.566 35.1973C242.766 34.6693 242.366 34.0933 242.366 33.4693C242.366 32.8453 242.59 32.3493 243.038 31.9813C243.502 31.6133 244.07 31.4293 244.742 31.4293C245.414 31.4293 245.958 31.5573 246.374 31.8133C246.166 32.3413 246.062 32.7813 246.062 33.1333C246.062 34.1893 246.51 34.7173 247.406 34.7173C247.79 34.7173 248.11 34.5973 248.366 34.3573C248.622 34.1173 248.75 33.7893 248.75 33.3733C248.75 32.5573 248.062 31.7173 246.686 30.8533C245.566 30.1173 244.878 29.6053 244.622 29.3173C244.19 28.8053 243.974 28.2293 243.974 27.5893C243.974 26.9493 244.126 26.3253 244.43 25.7173C244.734 25.1093 245.166 24.5893 245.726 24.1573C246.894 23.2613 248.494 22.8133 250.526 22.8133C251.566 22.8133 252.39 23.0213 252.998 23.4373C253.622 23.8533 253.934 24.4133 253.934 25.1173C253.934 25.8213 253.718 26.3733 253.286 26.7733C252.87 27.1733 252.278 27.3733 251.51 27.3733C250.982 27.3733 250.59 27.2853 250.334 27.1093ZM260.062 36.0133C256.542 36.0133 254.782 34.3573 254.782 31.0453C254.782 28.6933 255.43 26.7573 256.726 25.2373C258.102 23.6213 259.982 22.8133 262.366 22.8133C264.094 22.8133 265.398 23.2133 266.278 24.0133C267.158 24.8133 267.598 26.0533 267.598 27.7333C267.598 30.2933 266.91 32.3173 265.534 33.8053C264.19 35.2773 262.366 36.0133 260.062 36.0133ZM260.686 25.5733C260.494 26.0053 260.318 26.5493 260.158 27.2053C260.014 27.8453 259.846 28.6773 259.654 29.7013C259.462 30.7253 259.366 31.8693 259.366 33.1333C259.366 33.5493 259.43 33.8933 259.558 34.1653C259.702 34.4373 259.958 34.5733 260.326 34.5733C260.694 34.5733 260.99 34.4853 261.214 34.3093C261.454 34.1333 261.662 33.8373 261.838 33.4213C262.158 32.6853 262.446 31.6373 262.702 30.2773C262.958 28.9013 263.094 27.9173 263.11 27.3253C263.142 26.7333 263.158 26.2213 263.158 25.7893C263.158 25.3413 263.094 24.9733 262.966 24.6853C262.838 24.3973 262.59 24.2533 262.222 24.2533C261.87 24.2533 261.574 24.3653 261.334 24.5893C261.094 24.8133 260.878 25.1413 260.686 25.5733ZM269.394 33.1333C269.394 32.7013 269.506 31.9413 269.73 30.8533L271.002 24.3733H269.586L269.682 23.6533C271.602 23.0773 273.49 22.0853 275.346 20.6773H276.498L275.922 23.2933H277.794L277.578 24.3733H275.73L274.506 30.8533C274.298 31.8453 274.194 32.5093 274.194 32.8453C274.194 33.6133 274.53 34.0773 275.202 34.2373C275.042 34.7813 274.674 35.2133 274.098 35.5333C273.522 35.8533 272.826 36.0133 272.01 36.0133C271.194 36.0133 270.554 35.7573 270.09 35.2453C269.626 34.7333 269.394 34.0293 269.394 33.1333ZM285.193 28.7893C285.769 27.7653 286.057 26.7333 286.057 25.6933C286.057 25.0053 285.809 24.6613 285.313 24.6613C284.929 24.6613 284.537 24.9893 284.137 25.6453C283.721 26.3013 283.449 27.0533 283.321 27.9013L282.073 35.5333L277.105 36.0133L279.553 23.2933L283.513 22.8133L283.081 25.2373C283.865 23.6213 285.137 22.8133 286.897 22.8133C287.825 22.8133 288.537 23.0533 289.033 23.5333C289.545 24.0133 289.801 24.7493 289.801 25.7413C289.801 26.7173 289.473 27.5173 288.817 28.1413C288.177 28.7653 287.305 29.0773 286.201 29.0773C285.721 29.0773 285.385 28.9813 285.193 28.7893ZM295.429 36.0133C291.909 36.0133 290.149 34.3573 290.149 31.0453C290.149 28.6933 290.797 26.7573 292.093 25.2373C293.469 23.6213 295.349 22.8133 297.733 22.8133C299.461 22.8133 300.765 23.2133 301.645 24.0133C302.525 24.8133 302.965 26.0533 302.965 27.7333C302.965 30.2933 302.277 32.3173 300.901 33.8053C299.557 35.2773 297.733 36.0133 295.429 36.0133ZM296.053 25.5733C295.861 26.0053 295.685 26.5493 295.525 27.2053C295.381 27.8453 295.213 28.6773 295.021 29.7013C294.829 30.7253 294.733 31.8693 294.733 33.1333C294.733 33.5493 294.797 33.8933 294.925 34.1653C295.069 34.4373 295.325 34.5733 295.693 34.5733C296.061 34.5733 296.357 34.4853 296.581 34.3093C296.821 34.1333 297.029 33.8373 297.205 33.4213C297.525 32.6853 297.813 31.6373 298.069 30.2773C298.325 28.9013 298.461 27.9173 298.477 27.3253C298.509 26.7333 298.525 26.2213 298.525 25.7893C298.525 25.3413 298.461 24.9733 298.333 24.6853C298.205 24.3973 297.957 24.2533 297.589 24.2533C297.237 24.2533 296.941 24.3653 296.701 24.5893C296.461 24.8133 296.245 25.1413 296.053 25.5733ZM311.553 27.1093C311.777 26.5173 311.889 25.9653 311.889 25.4533C311.889 24.5093 311.505 24.0373 310.737 24.0373C310.337 24.0373 309.969 24.2213 309.633 24.5893C309.313 24.9413 309.153 25.3413 309.153 25.7893C309.153 26.1093 309.281 26.3973 309.537 26.6533C309.905 27.0053 310.561 27.4693 311.505 28.0453C312.449 28.6213 313.097 29.1493 313.449 29.6293C313.817 30.0933 314.001 30.6533 314.001 31.3093C314.001 31.9493 313.841 32.5653 313.521 33.1573C313.217 33.7493 312.785 34.2533 312.225 34.6693C311.025 35.5653 309.465 36.0133 307.545 36.0133C306.505 36.0133 305.585 35.7413 304.785 35.1973C303.985 34.6693 303.585 34.0933 303.585 33.4693C303.585 32.8453 303.809 32.3493 304.257 31.9813C304.721 31.6133 305.289 31.4293 305.961 31.4293C306.633 31.4293 307.177 31.5573 307.593 31.8133C307.385 32.3413 307.281 32.7813 307.281 33.1333C307.281 34.1893 307.729 34.7173 308.625 34.7173C309.009 34.7173 309.329 34.5973 309.585 34.3573C309.841 34.1173 309.969 33.7893 309.969 33.3733C309.969 32.5573 309.281 31.7173 307.905 30.8533C306.785 30.1173 306.097 29.6053 305.841 29.3173C305.409 28.8053 305.193 28.2293 305.193 27.5893C305.193 26.9493 305.345 26.3253 305.649 25.7173C305.953 25.1093 306.385 24.5893 306.945 24.1573C308.113 23.2613 309.713 22.8133 311.745 22.8133C312.785 22.8133 313.609 23.0213 314.217 23.4373C314.841 23.8533 315.153 24.4133 315.153 25.1173C315.153 25.8213 314.937 26.3733 314.505 26.7733C314.089 27.1733 313.497 27.3733 312.729 27.3733C312.201 27.3733 311.809 27.2853 311.553 27.1093Z" fill="white"/>
</svg>
