<svg width="30" height="30" viewBox="0 0 30 30" fill="none" xmlns="http://www.w3.org/2000/svg">
<path d="M11 7.5L18 18.5M11 22L18 11" stroke="#7A9AA3" stroke-width="1.5" stroke-linecap="round" stroke-linejoin="round"/>
<path fill-rule="evenodd" clip-rule="evenodd" d="M22.8511 15.6528C23.3738 15.3558 23.3944 14.6101 22.889 14.2846L12.0331 7.29406C11.5007 6.95124 10.8 7.33346 10.8 7.96667V21.1253C10.8 21.7387 11.4619 22.1239 11.9952 21.8209L22.8511 15.6528ZM15 0C6.71573 0 0 6.71573 0 15V15C0 23.2843 6.71573 30 15 30V30C23.2843 30 30 23.2843 30 15V15C30 6.71573 23.2843 0 15 0V0Z" fill="#7A9AA3"/>
</svg>
